<svg viewBox="0 0 300 221" fill="none" xmlns="http://www.w3.org/2000/svg">
<g clip-path="url(#clip0)">
<path d="M300 214.024C299.039 222.767 248.565 222.033 248.642 214.023C249.603 205.281 300.077 206.015 300 214.024Z" fill="#E6E6E6"/>
<path d="M265.327 191.588L263.281 196.021L259.53 195.68L257.143 187.836L260.894 185.791L265.327 191.588Z" fill="#FFB8B8"/>
<path d="M278.205 201.797L278.286 204.886L272.489 205.228V201.477L278.205 201.797Z" fill="#FFB8B8"/>
<path d="M276.24 145.552L274.876 172.832L278.286 202.5L268.055 203.864L261.577 166.353L259.53 140.777L276.24 145.552Z" fill="#2F2E41"/>
<path d="M292.267 135.662C292.267 135.662 296.359 162.602 287.834 171.468C279.309 180.334 267.714 196.02 267.714 196.02L259.53 185.79L280.332 163.625L276.24 148.62L259.53 140.777L262.258 122.022L286.811 121.681L292.267 135.662Z" fill="#2F2E41"/>
<path d="M272.148 73.2573C276.291 73.2573 279.65 69.8985 279.65 65.7551C279.65 61.6118 276.291 58.2529 272.148 58.2529C268.004 58.2529 264.646 61.6118 264.646 65.7551C264.646 69.8985 268.004 73.2573 272.148 73.2573Z" fill="#FFB8B8"/>
<path d="M278.627 67.4604C278.627 67.4604 278.968 78.0317 280.673 79.3957C282.378 80.7598 274.535 86.5569 274.535 86.5569L269.419 78.3727V70.8705L278.627 67.4604Z" fill="#FFB8B8"/>
<path d="M275.217 81.7828L279.357 75.5312L281.696 78.7138L285.106 88.2621L282.378 125.432L266.35 125.773L264.304 83.1468L269.419 77.0088L275.217 81.7828Z" fill="#D0CDE1"/>
<path d="M257.825 84.1696L255.097 83.8286C255.097 83.8286 254.415 84.1696 254.074 86.5567C253.733 88.9437 249.641 110.086 249.641 110.086L255.097 136.003L261.235 127.819L257.484 113.496L261.235 99.174L257.825 84.1696Z" fill="#2F2E41"/>
<path d="M292.608 83.8291H294.654L299.769 111.451L294.995 132.934L290.221 125.091L291.585 116.566L290.903 109.064L288.516 104.63L292.608 83.8291Z" fill="#2F2E41"/>
<path d="M262.258 194.656C262.258 194.656 264.304 193.974 264.304 195.338C264.304 196.702 262.94 200.795 262.94 200.795C262.94 200.795 264.986 213.412 261.917 212.73C258.848 212.048 256.461 206.251 256.12 204.546C255.779 202.841 254.074 193.974 254.074 193.974C254.074 193.974 251.346 187.495 253.051 187.154C254.756 186.813 259.53 185.449 259.53 185.449C259.53 185.449 256.802 193.974 262.258 194.656Z" fill="#2F2E41"/>
<path d="M272.148 205.228C272.148 205.228 277.604 201.818 278.627 204.546C279.305 206.535 279.763 208.594 279.991 210.684C279.991 210.684 281.355 215.117 275.899 214.435C270.443 213.753 271.125 213.753 270.784 211.707C270.443 209.661 272.148 205.228 272.148 205.228Z" fill="#2F2E41"/>
<path d="M276.581 65.7553L275.217 65.4143C275.217 65.4143 274.194 59.6171 271.806 60.2992C269.419 60.9812 263.281 61.6632 263.281 58.9351C263.281 56.207 269.078 53.82 272.488 54.161C275.899 54.502 281.696 55.525 281.355 60.6402C281.014 65.7553 278.813 70.7312 278.813 70.7312L278.636 67.6985L276.581 65.7553Z" fill="#2F2E41"/>
<path d="M269.419 85.8749L275.217 81.7828L269.419 77.0088L267.407 79.424L269.419 85.8749Z" fill="#D0CDE1"/>
<path d="M280.332 85.5337L275.217 81.7825L279.309 75.6445L281.696 78.7135L280.332 85.5337Z" fill="#D0CDE1"/>
<path d="M255.438 83.8288L266.351 79.3956L268.908 77.5201L276.581 111.45L281.696 96.1051L280.161 76.4971L294.313 83.8288L289.539 107.017L288.857 115.884L290.903 123.045C290.903 123.045 298.064 128.16 295.677 133.616C293.29 139.072 290.562 139.413 290.562 139.413C290.562 139.413 278.968 128.501 278.286 125.773C277.604 123.045 276.581 118.271 276.581 118.271C276.581 118.271 270.784 140.095 263.963 139.754C257.143 139.413 257.143 132.252 257.143 132.252L258.848 124.75L261.576 116.907L260.212 103.948L255.438 83.8288Z" fill="#2F2E41"/>
<path d="M237.829 0.134766H0.101562V152.386H237.829V0.134766Z" fill="#E6E6E6"/>
<path d="M231.031 19.231H6.89917V77.2705H231.031V19.231Z" fill="white"/>
<path d="M110.049 27.6143H62.6499V30.3351H110.049V27.6143Z" fill="#E6E6E6"/>
<path d="M135.844 37.5396H62.6499V40.2604H135.844V37.5396Z" fill="#8BC34B"/>
<path d="M122.302 46.8901H62.6499V49.611H122.302V46.8901Z" fill="#E6E6E6"/>
<path d="M97.4736 56.2056H62.6499V58.9264H97.4736V56.2056Z" fill="#E6E6E6"/>
<path d="M115.208 65.521H62.6499V68.2419H115.208V65.521Z" fill="#E6E6E6"/>
<path d="M46.8503 26.647H41.0464V32.4509H46.8503V26.647Z" fill="#E6E6E6"/>
<path d="M46.8503 35.998H41.0464V41.802H46.8503V35.998Z" fill="#8BC34B"/>
<path d="M46.8503 45.3486H41.0464V51.1526H46.8503V45.3486Z" fill="#E6E6E6"/>
<path d="M46.8503 54.6997H41.0464V60.5036H46.8503V54.6997Z" fill="#E6E6E6"/>
<path d="M46.8503 64.0503H41.0464V69.8542H46.8503V64.0503Z" fill="#E6E6E6"/>
<path d="M199.688 39.8672H180.341V59.2137H199.688V39.8672Z" fill="#E6E6E6"/>
<path d="M231.031 85.3315H6.89917V143.371H231.031V85.3315Z" fill="white"/>
<path d="M56.8462 90.4897H51.0422V96.2937H56.8462V90.4897Z" fill="#E6E6E6"/>
<path d="M46.8503 90.4897H41.0464V96.2937H46.8503V90.4897Z" fill="#8BC34B"/>
<path d="M139.453 103.182C137.684 100.187 135.23 97.6548 132.291 95.7934C129.353 93.932 126.015 92.7945 122.551 92.4746C119.088 92.1546 115.598 92.6613 112.368 93.953C109.139 95.2446 106.262 97.2844 103.974 99.9045L102.56 98.6685C105.043 95.824 108.165 93.6094 111.671 92.207C115.176 90.8046 118.964 90.2543 122.724 90.6016C126.484 90.9488 130.107 92.1836 133.296 94.2043C136.486 96.225 139.15 98.974 141.07 102.225L139.453 103.182Z" fill="#E6E6E6"/>
<path d="M140.338 127.651L138.78 126.603C141.088 123.159 142.377 119.134 142.496 114.99C142.615 110.846 141.56 106.752 139.453 103.182L141.07 102.225C143.357 106.101 144.503 110.545 144.373 115.044C144.244 119.542 142.845 123.913 140.338 127.651V127.651Z" fill="#8BC34B"/>
<path d="M102.755 130.268C98.8729 125.932 96.7098 120.325 96.6738 114.505C96.6377 108.685 98.7312 103.052 102.56 98.6685L103.974 99.9044C100.447 103.943 98.5189 109.132 98.5521 114.494C98.5853 119.855 100.578 125.02 104.154 129.015L102.755 130.268Z" fill="#8BC34B"/>
<path d="M120.528 138.213C117.174 138.21 113.858 137.501 110.796 136.132C107.734 134.763 104.994 132.765 102.756 130.268L104.155 129.014C106.388 131.509 109.162 133.461 112.265 134.721C115.367 135.98 118.717 136.514 122.057 136.281C125.398 136.048 128.641 135.055 131.539 133.378C134.437 131.701 136.914 129.383 138.78 126.603L140.338 127.651C138.158 130.903 135.21 133.567 131.754 135.409C128.299 137.252 124.444 138.214 120.528 138.213Z" fill="#8BC34B"/>
<path d="M199.688 103.066H180.341V122.412H199.688V103.066Z" fill="#E6E6E6"/>
<path d="M59.5867 115.641H40.2402V134.988H59.5867V115.641Z" fill="#E6E6E6"/>
<path d="M237.728 0H0V10.0995H237.728V0Z" fill="#8BC34B"/>
<path d="M7.50517 7.03525C8.53898 7.03525 9.37705 6.19718 9.37705 5.16338C9.37705 4.12957 8.53898 3.2915 7.50517 3.2915C6.47137 3.2915 5.6333 4.12957 5.6333 5.16338C5.6333 6.19718 6.47137 7.03525 7.50517 7.03525Z" fill="white"/>
<path d="M14.6104 7.03525C15.6442 7.03525 16.4823 6.19718 16.4823 5.16338C16.4823 4.12957 15.6442 3.2915 14.6104 3.2915C13.5766 3.2915 12.7385 4.12957 12.7385 5.16338C12.7385 6.19718 13.5766 7.03525 14.6104 7.03525Z" fill="white"/>
<path d="M21.7154 7.03525C22.7492 7.03525 23.5873 6.19718 23.5873 5.16338C23.5873 4.12957 22.7492 3.2915 21.7154 3.2915C20.6816 3.2915 19.8435 4.12957 19.8435 5.16338C19.8435 6.19718 20.6816 7.03525 21.7154 7.03525Z" fill="white"/>
</g>
<defs>
<clipPath id="clip0">
<rect width="300" height="220.309" fill="white"/>
</clipPath>
</defs>
</svg>
