<svg viewBox="0 0 300 213" fill="none" xmlns="http://www.w3.org/2000/svg">
<g clip-path="url(#clip0)">
<path opacity="0.1" d="M99.7375 203.381C114.347 203.381 126.191 201.479 126.191 199.133C126.191 196.786 114.347 194.884 99.7375 194.884C85.1277 194.884 73.2842 196.786 73.2842 199.133C73.2842 201.479 85.1277 203.381 99.7375 203.381Z" fill="#8BC34B"/>
<path opacity="0.1" d="M243.534 203.501C261.765 203.501 276.544 201.599 276.544 199.252C276.544 196.906 261.765 195.003 243.534 195.003C225.303 195.003 210.524 196.906 210.524 199.252C210.524 201.599 225.303 203.501 243.534 203.501Z" fill="#8BC34B"/>
<path opacity="0.1" d="M3.75731 82.8154H31.3102V120.37H5.77443C5.70656 120.755 5.64141 121.143 5.57082 121.532H31.3102V151.818C31.264 151.805 31.2233 151.788 31.1798 151.772C30.4523 151.484 29.7301 151.18 29.008 150.855L28.5465 150.646C27.8225 150.303 27.0985 149.941 26.3746 149.56C26.1221 149.427 25.8696 149.288 25.6199 149.147C21.6008 146.896 17.9497 144.043 14.7931 140.688C14.7008 140.598 14.6139 140.503 14.5216 140.416C14.0818 139.938 13.6502 139.455 13.2321 138.961L12.7706 138.418C12.2765 137.813 11.7986 137.191 11.3344 136.561C11.2665 136.469 11.2014 136.376 11.1308 136.289C9.24276 133.672 7.67509 130.837 6.46129 127.846C6.42328 127.757 6.3907 127.659 6.35541 127.575C5.98257 126.616 5.65227 125.647 5.36449 124.67C5.23961 124.26 5.12016 123.856 5.017 123.429C4.97899 123.304 4.94641 123.182 4.91655 123.06C3.37452 117.041 3.19263 110.789 3.19263 104.58C3.19263 103.855 3.19263 103.128 3.19263 102.408C3.19263 99.8972 3.22249 97.3697 3.26593 94.8449C3.26593 94.1906 3.29308 93.539 3.30665 92.882C3.34466 91.2151 3.39895 89.5482 3.46954 87.8813C3.48583 87.4171 3.50755 86.9556 3.53198 86.494C3.53198 86.228 3.54556 85.9619 3.5727 85.6959C3.63786 84.7294 3.69216 83.7711 3.75731 82.8154Z" fill="#8BC34B"/>
<path opacity="0.1" d="M31.3103 41.002H16.1968C18.6536 37.1566 21.3379 33.4615 24.2354 29.9363C26.4806 27.178 28.8506 24.4903 31.3103 21.9004V41.002Z" fill="#8BC34B"/>
<path opacity="0.1" d="M31.3102 42.1636V81.6535H3.84424C3.84424 81.5395 3.86324 81.4228 3.87139 81.3088C3.89582 80.9966 3.92025 80.6844 3.9474 80.3749C3.97726 80.0111 4.00984 79.6446 4.04514 79.2889C4.08043 78.9333 4.11844 78.4989 4.15916 78.1053C4.19988 77.7116 4.23789 77.3125 4.28404 76.9189C4.33019 76.5252 4.37092 76.1316 4.41978 75.7406C4.46865 75.3497 4.51209 74.9533 4.56367 74.5624C4.60439 74.2366 4.64783 73.9136 4.69127 73.5878C4.75371 73.129 4.81886 72.6674 4.88945 72.2114C4.88945 72.1435 4.90845 72.0729 4.91931 72.0077C5.41482 68.6689 6.08998 65.3593 6.94186 62.0932C7.83357 58.667 8.97226 55.3099 10.349 52.0483C11.8122 48.6362 13.5254 45.3369 15.4746 42.1771L31.3102 42.1636Z" fill="#8BC34B"/>
<path opacity="0.1" d="M37.8882 82.8127V120.37H96.7376V82.8127H37.8882ZM37.8882 121.529V153.781C38.2248 153.852 38.5587 153.92 38.89 153.977C39.3406 154.064 39.7886 154.142 40.2474 154.21C40.3342 154.224 40.4238 154.237 40.5189 154.245C40.698 154.275 40.8826 154.3 41.0618 154.324C41.5152 154.387 41.9659 154.438 42.4192 154.479C42.6337 154.501 42.8509 154.52 43.0681 154.536L43.592 154.577C43.8771 154.598 44.1594 154.615 44.4391 154.623C44.6128 154.623 44.7866 154.639 44.9658 154.645C45.1015 154.645 45.2372 154.645 45.3784 154.645C45.5196 154.645 45.7205 154.645 45.8915 154.645C46.125 154.645 46.3585 154.645 46.5892 154.645H46.9014C47.1349 154.645 47.3684 154.645 47.5991 154.623H47.6154C47.7756 154.623 47.9385 154.623 48.1014 154.601C48.1466 154.604 48.1919 154.604 48.2371 154.601C48.3729 154.601 48.5086 154.601 48.6389 154.582H48.7339L49.6434 154.511C49.942 154.484 50.2434 154.449 50.5475 154.416L51.1664 154.343C53.6847 153.99 56.1749 153.461 58.6187 152.758C64.108 151.227 69.478 149.085 74.9647 147.515C82.0585 145.493 89.8963 144.499 96.7512 146.972V121.529H37.8882ZM96.7376 41.0016V-8.99751C90.2946 -9.06732 83.8691 -8.31373 77.6171 -6.75506C62.7153 -3.0113 49.3448 5.10877 37.8882 15.4794V40.9989H40.8419V42.1581H37.8882V81.6535H96.7376V42.1608H52.9691V41.0016H96.7376ZM172.327 24.1126C168.64 23.9823 164.975 22.8149 161.66 21.0123C155.321 17.5644 150.258 12.2406 144.6 7.74758C132.845 -1.61045 118.266 -7.2573 103.31 -8.65816V41.0016H187.321L187.53 40.7817L172.327 24.1126ZM179.98 22.7552L188.095 31.6598V20.4204C185.377 20.7571 182.996 21.5579 179.991 22.7443L179.98 22.7552ZM188.095 161.79V121.529H170.804C170.758 121.358 170.711 121.184 170.657 121.01C170.709 121.184 170.752 121.358 170.801 121.529H103.321V150.646C103.962 151.121 104.594 151.62 105.221 152.128C105.897 152.671 106.565 153.244 107.236 153.806L107.912 154.365C108.235 154.636 108.561 154.908 108.889 155.163C109.541 155.692 110.199 156.213 110.863 156.727C111.191 156.998 111.528 157.243 111.862 157.498C117.163 161.551 122.756 165.209 128.593 168.441C129.902 169.165 131.222 169.872 132.554 170.562C133.442 171.015 134.335 171.466 135.231 171.903C136.578 172.56 137.935 173.193 139.304 173.803C151.918 179.466 165.258 183.352 178.94 185.349C181.979 185.798 185.029 186.151 188.092 186.408V161.787H188.363L188.095 161.79ZM103.321 42.1608V81.6535H188.105V42.1608H103.321ZM103.321 82.8127V120.37H188.105V82.8127H103.321ZM194.686 20.3716V32.9087L205.043 21.5444C201.612 20.9905 198.159 20.5951 194.686 20.358V20.3716ZM194.686 82.8263V120.37H277.149V82.8127L194.686 82.8263ZM276.848 164.771L277.138 121.529H194.686V186.84C199.998 187.063 205.317 186.999 210.622 186.65H210.715C213.248 186.49 215.77 186.259 218.281 185.955H218.338C231.73 184.396 244.826 180.902 257.214 175.581L276.848 164.771ZM293.05 88.9971C292.741 88.2668 292.417 87.542 292.089 86.8253C291.475 85.4678 290.827 84.1484 290.159 82.829H283.725V120.37H299.992C299.984 109.738 297.293 98.8791 293.058 88.9836L293.05 88.9971ZM283.725 121.543V158.736C288.307 154.343 292.179 149.318 294.967 143.573C298.319 136.656 299.853 129.166 299.978 121.537L283.725 121.543ZM283.725 71.8828V81.6562H289.556C287.792 78.2918 285.848 75.0247 283.733 71.8692L283.725 71.8828ZM227.799 27.7396C227.37 27.5767 226.941 27.4111 226.509 27.2509C221.957 25.5697 217.305 24.1716 212.58 23.0647L196.73 40.4586L196.426 40.7817L196.63 41.0043H253.039C245.183 35.5965 236.713 31.1393 227.807 27.726L227.799 27.7396ZM254.692 42.1744H195.843L194.686 43.2332V81.6535H204.823H204.84H277.16V63.0433C270.618 55.1311 263.067 48.1105 254.7 42.1608L254.692 42.1744Z" fill="#8BC34B"/>
<path opacity="0.1" d="M31.3102 62.0825V81.6537H3.84424C3.84424 81.5397 3.86324 81.423 3.87139 81.309C3.89582 80.9968 3.92025 80.6846 3.9474 80.3751C3.97726 80.0113 4.00984 79.6448 4.04514 79.2891C4.08043 78.9335 4.11844 78.4991 4.15916 78.1055C4.19988 77.7118 4.23789 77.3127 4.28404 76.9191C4.33019 76.5254 4.37092 76.1318 4.41978 75.7408C4.46865 75.3499 4.51209 74.9535 4.56367 74.5626C4.60439 74.2368 4.64783 73.9138 4.69127 73.588C4.75371 73.1292 4.81886 72.6677 4.88945 72.2116C4.88945 72.1437 4.90845 72.0731 4.91931 72.0079C5.41482 68.6691 6.08998 65.3595 6.94186 62.0934L31.3102 62.0825Z" fill="#8BC34B"/>
<path opacity="0.1" d="M3.75731 82.8154H31.3102V120.37H5.77443C5.70656 120.755 5.64141 121.143 5.57082 121.532H31.3102V151.818C31.264 151.805 31.2233 151.788 31.1798 151.772C30.4523 151.484 29.7301 151.18 29.008 150.855L28.5465 150.646C27.8225 150.303 27.0985 149.941 26.3746 149.56C26.1221 149.427 25.8696 149.288 25.6199 149.147C21.6008 146.896 17.9497 144.043 14.7931 140.688C14.7008 140.598 14.6139 140.503 14.5216 140.416C14.0818 139.938 13.6502 139.455 13.2321 138.961L12.7706 138.418C12.2765 137.813 11.7986 137.191 11.3344 136.561C11.2665 136.469 11.2014 136.376 11.1308 136.289C9.24276 133.672 7.67509 130.837 6.46129 127.846C6.42328 127.757 6.3907 127.659 6.35541 127.575C5.98257 126.616 5.65227 125.647 5.36449 124.67C5.23961 124.26 5.12016 123.856 5.017 123.429C4.97899 123.304 4.94641 123.182 4.91655 123.06C3.37452 117.041 3.19263 110.789 3.19263 104.58C3.19263 103.855 3.19263 103.128 3.19263 102.408C3.19263 99.8972 3.22249 97.3697 3.26593 94.8449C3.26593 94.1906 3.29308 93.539 3.30665 92.882C3.34466 91.2151 3.39895 89.5482 3.46954 87.8813C3.48583 87.4171 3.50755 86.9556 3.53198 86.494C3.53198 86.228 3.54556 85.9619 3.5727 85.6959C3.63786 84.7294 3.69216 83.7711 3.75731 82.8154Z" fill="#8BC34B"/>
<path opacity="0.1" d="M58.6051 47.816V81.6537H37.8882V47.816H40.8419V36.3594H52.9664V47.816H58.6051Z" fill="#8BC34B"/>
<path opacity="0.1" d="M58.605 82.813H37.8909V120.367H58.605V82.813Z" fill="#8BC34B"/>
<path opacity="0.1" d="M37.8882 121.532H58.6051V152.752C56.1613 153.455 53.6711 153.983 51.1529 154.335L50.5339 154.411C50.2298 154.446 49.9285 154.476 49.6298 154.506C49.3312 154.536 49.0217 154.558 48.7204 154.577H48.6254C48.495 154.577 48.3539 154.593 48.2263 154.596H48.0878C47.9249 154.596 47.762 154.612 47.5991 154.617C47.3684 154.631 47.1376 154.634 46.9014 154.636C46.801 154.636 46.706 154.636 46.6055 154.636C46.372 154.636 46.1413 154.636 45.9078 154.636H45.3947C45.2562 154.636 45.1232 154.636 44.9793 154.636L44.4554 154.617C44.1839 154.617 43.8907 154.588 43.6083 154.569L43.0871 154.531L42.4382 154.471C41.9822 154.43 41.5288 154.379 41.0808 154.316L40.5379 154.24L40.2664 154.202C39.813 154.131 39.3651 154.055 38.909 153.969C38.575 153.912 38.2438 153.841 37.9072 153.773L37.8882 121.532Z" fill="#8BC34B"/>
<path opacity="0.1" d="M188.105 43.8198H171.024V81.651H188.105V43.8198Z" fill="#8BC34B"/>
<path opacity="0.1" d="M188.108 82.813V120.37H103.321V104.171H148.482V113.727H171.024V82.813H188.108Z" fill="#8BC34B"/>
<path opacity="0.1" d="M188.377 161.799H188.105V186.436C185.047 186.177 181.997 185.825 178.956 185.38C165.267 183.375 151.922 179.481 139.303 173.809C135.66 172.169 132.091 170.379 128.596 168.439C122.758 165.205 117.165 161.547 111.862 157.496C110.53 156.475 109.215 155.431 107.917 154.363C107.019 153.622 106.125 152.861 105.221 152.123C104.594 151.615 103.962 151.116 103.321 150.638V121.532H170.798C170.752 121.358 170.706 121.185 170.657 121.014C170.709 121.185 170.758 121.358 170.804 121.532H188.105V161.782C188.198 161.785 188.287 161.793 188.377 161.799Z" fill="#8BC34B"/>
<path opacity="0.1" d="M232.656 41.0017H221.525V37.543H226.515V27.2402C226.947 27.3977 227.378 27.5597 227.807 27.7262V37.543H232.656V41.0017Z" fill="#8BC34B"/>
<path opacity="0.1" d="M259.473 81.6535H204.829C204.829 81.6535 204.829 81.6535 204.848 81.6671L204.823 81.6535H194.686V43.8223H197.558V71.7851H210.685V55.2246H221.528V42.1636H232.658V55.2355H243.501V71.796H259.473V81.6535Z" fill="#8BC34B"/>
<path opacity="0.1" d="M194.686 82.813V120.37H259.473V82.813H194.686ZM277.06 164.578L277.149 134.851H259.473V121.548H194.686V186.84C199.998 187.063 205.317 187 210.622 186.65H210.714C213.248 186.491 215.77 186.259 218.281 185.955H218.338C231.73 184.396 244.825 180.902 257.214 175.582" fill="#8BC34B"/>
<path opacity="0.1" d="M284.876 121.532H299.989C299.856 129.158 298.325 136.648 294.975 143.565C292.187 149.313 288.313 154.338 283.735 158.728V134.837H284.876V121.532Z" fill="#8BC34B"/>
<path opacity="0.1" d="M299.997 120.37H284.876V88.9839H293.058C297.293 98.8795 299.984 109.739 299.997 120.37Z" fill="#8BC34B"/>
<path opacity="0.1" d="M188.108 54.3369H178.957V66.198H188.108V54.3369Z" fill="#8BC34B"/>
<path opacity="0.1" d="M188.108 78.9229H178.957V81.654H188.108V78.9229Z" fill="#8BC34B"/>
<path opacity="0.1" d="M188.108 82.813H178.957V90.781H188.108V82.813Z" fill="#8BC34B"/>
<path opacity="0.1" d="M188.108 103.508H178.957V115.369H188.108V103.508Z" fill="#8BC34B"/>
<path opacity="0.1" d="M188.108 128.094H178.957V139.955H188.108V128.094Z" fill="#8BC34B"/>
<path opacity="0.1" d="M188.106 161.782C188.198 161.782 188.287 161.782 188.377 161.798H188.106V164.554H178.957V152.679H188.106V161.782Z" fill="#8BC34B"/>
<path opacity="0.1" d="M188.106 177.259V186.422C185.047 186.163 181.997 185.811 178.957 185.366V177.259H188.106Z" fill="#8BC34B"/>
<path opacity="0.1" d="M142.542 119.499H103.321V120.37H142.542V119.499Z" fill="#8BC34B"/>
<path opacity="0.1" d="M142.542 121.529H103.321V124.869H142.542V121.529Z" fill="#8BC34B"/>
<path opacity="0.1" d="M142.542 135.814H103.321V141.184H142.542V135.814Z" fill="#8BC34B"/>
<path opacity="0.1" d="M142.54 152.131V157.501H111.862C110.53 156.484 109.214 155.439 107.915 154.368C107.016 153.627 106.126 152.867 105.219 152.131H142.54Z" fill="#8BC34B"/>
<path opacity="0.1" d="M142.54 168.444V173.809H139.301C135.661 172.167 132.093 170.376 128.596 168.436L142.54 168.444Z" fill="#8BC34B"/>
<path opacity="0.1" d="M218.346 86.4536H210.625V94.1746H218.346V86.4536Z" fill="#8BC34B"/>
<path opacity="0.1" d="M51.1719 50.4795H43.4509V58.2005H51.1719V50.4795Z" fill="#8BC34B"/>
<path opacity="0.1" d="M51.1719 68.4136H43.4509V76.1346H51.1719V68.4136Z" fill="#8BC34B"/>
<path opacity="0.1" d="M51.1719 86.3477H43.4509V94.0686H51.1719V86.3477Z" fill="#8BC34B"/>
<path opacity="0.1" d="M51.1719 104.279H43.4509V112H51.1719V104.279Z" fill="#8BC34B"/>
<path opacity="0.1" d="M51.1719 122.213H43.4509V129.934H51.1719V122.213Z" fill="#8BC34B"/>
<path opacity="0.1" d="M51.1719 140.147H43.4509V147.868H51.1719V140.147Z" fill="#8BC34B"/>
<path opacity="0.1" d="M247.821 86.4536H240.1V94.1746H247.821V86.4536Z" fill="#8BC34B"/>
<path opacity="0.1" d="M218.346 105.498H210.625V113.219H218.346V105.498Z" fill="#8BC34B"/>
<path opacity="0.1" d="M247.821 105.498H240.1V113.219H247.821V105.498Z" fill="#8BC34B"/>
<path opacity="0.1" d="M218.346 124.54H210.625V132.261H218.346V124.54Z" fill="#8BC34B"/>
<path opacity="0.1" d="M247.821 124.54H240.1V132.261H247.821V124.54Z" fill="#8BC34B"/>
<path opacity="0.1" d="M218.346 143.584H210.625V151.305H218.346V143.584Z" fill="#8BC34B"/>
<path opacity="0.1" d="M247.821 143.584H240.1V151.305H247.821V143.584Z" fill="#8BC34B"/>
<path opacity="0.1" d="M218.346 162.629H210.625V170.35H218.346V162.629Z" fill="#8BC34B"/>
<path opacity="0.1" d="M247.821 162.629H240.1V170.35H247.821V162.629Z" fill="#8BC34B"/>
<path opacity="0.1" d="M210.625 186.65V181.671H218.343V185.941L210.625 186.65Z" fill="#8BC34B"/>
<path opacity="0.1" d="M4.88672 72.0024V76.4195H31.3102V72.0024H4.88672ZM7.52011 76.1426H5.36453V72.2739H7.5364L7.52011 76.1426ZM10.1508 76.1426H7.97891V72.2739H10.1508V76.1426ZM12.776 76.1426H10.6042V72.2739H12.776V76.1426ZM15.4067 76.1426H13.2375V72.2739H15.4094L15.4067 76.1426ZM18.0347 76.1426H15.8628V72.2739H18.0347V76.1426ZM20.6653 76.1426H18.4935V72.2739H20.6653V76.1426ZM23.296 76.1426H21.1241V72.2739H23.296V76.1426ZM25.924 76.1426H23.7521V72.2739H25.924V76.1426ZM28.5519 76.1426H26.3801V72.2739H28.5519V76.1426ZM31.1799 76.1426H29.008V72.2739H31.1799V76.1426Z" fill="#8BC34B"/>
<path opacity="0.1" d="M4.88672 84.8545V89.2715H31.3102V84.8545H4.88672ZM7.52011 88.9919H5.36453V85.1341H7.5364L7.52011 88.9919ZM10.1508 88.9919H7.97891V85.1341H10.1508V88.9919ZM12.776 88.9919H10.6042V85.1341H12.776V88.9919ZM15.4067 88.9919H13.2375V85.1341H15.4094L15.4067 88.9919ZM18.0347 88.9919H15.8628V85.1341H18.0347V88.9919ZM20.6653 88.9919H18.4935V85.1341H20.6653V88.9919ZM23.296 88.9919H21.1241V85.1341H23.296V88.9919ZM25.924 88.9919H23.7521V85.1341H25.924V88.9919ZM28.5519 88.9919H26.3801V85.1341H28.5519V88.9919ZM31.1799 88.9919H29.008V85.1341H31.1799V88.9919Z" fill="#8BC34B"/>
<path opacity="0.1" d="M4.88672 97.7119V102.137H31.3102V97.7119H4.88672ZM7.52011 101.849H5.36453V97.9888H7.5364L7.52011 101.849ZM10.1508 101.849H7.97891V97.9888H10.1508V101.849ZM12.776 101.849H10.6042V97.9888H12.776V101.849ZM15.4067 101.849H13.2375V97.9888H15.4094L15.4067 101.849ZM18.0347 101.849H15.8628V97.9888H18.0347V101.849ZM20.6653 101.849H18.4935V97.9888H20.6653V101.849ZM23.296 101.849H21.1241V97.9888H23.296V101.849ZM25.924 101.849H23.7521V97.9888H25.924V101.849ZM28.5519 101.849H26.3801V97.9888H28.5519V101.849ZM31.1799 101.849H29.008V97.9888H31.1799V101.849Z" fill="#8BC34B"/>
<path opacity="0.1" d="M4.88672 110.569V114.981H31.3102V110.569H4.88672ZM7.52011 114.707H5.36453V110.844H7.5364L7.52011 114.707ZM10.1508 114.707H7.97891V110.844H10.1508V114.707ZM12.776 114.707H10.6042V110.844H12.776V114.707ZM15.4067 114.707H13.2375V110.844H15.4094L15.4067 114.707ZM18.0347 114.707H15.8628V110.844H18.0347V114.707ZM20.6653 114.707H18.4935V110.844H20.6653V114.707ZM23.296 114.707H21.1241V110.844H23.296V114.707ZM25.924 114.707H23.7521V110.844H25.924V114.707ZM28.5519 114.707H26.3801V110.844H28.5519V114.707ZM31.1799 114.707H29.008V110.844H31.1799V114.707Z" fill="#8BC34B"/>
<path opacity="0.1" d="M5.00073 123.424C5.10661 123.839 5.22606 124.255 5.35094 124.665V123.701H7.52281V127.561H6.36086C6.39616 127.651 6.43145 127.749 6.46674 127.833H31.3102V123.424H5.00073ZM10.1589 127.561H7.98705V123.701H10.1589V127.561ZM12.7842 127.561H10.6123V123.701H12.7842V127.561ZM15.4148 127.561H13.2375V123.701H15.4094L15.4148 127.561ZM18.0428 127.561H15.8709V123.701H18.0428V127.561ZM20.6735 127.561H18.5016V123.701H20.6735V127.561ZM23.3041 127.561H21.1323V123.701H23.3041V127.561ZM25.9321 127.561H23.7602V123.701H25.9321V127.561ZM28.5601 127.561H26.3882V123.701H28.5601V127.561ZM31.188 127.561H29.0161V123.701H31.188V127.561Z" fill="#8BC34B"/>
<path opacity="0.1" d="M11.1362 136.282C11.2041 136.369 11.2693 136.466 11.3398 136.553H12.776V138.407C12.9307 138.592 13.0828 138.777 13.2402 138.95V136.542H15.4121V140.416H14.5325C14.6194 140.506 14.7035 140.601 14.804 140.688H31.3183V136.282H11.1362ZM18.0346 140.416H15.8628V136.559H18.0346V140.416ZM20.6653 140.416H18.4934V136.559H20.6653V140.416ZM23.296 140.416H21.1241V136.559H23.296V140.416ZM25.9239 140.416H23.7521V136.559H25.9239V140.416ZM28.5519 140.416H26.38V136.559H28.5519V140.416ZM31.1798 140.416H29.008V136.559H31.1798V140.416Z" fill="#8BC34B"/>
<path opacity="0.1" d="M25.6309 149.136C25.8779 149.277 26.1304 149.408 26.3856 149.549V149.413H28.5574V150.635L29.019 150.849V149.413H31.1908V151.761C31.2325 151.782 31.2762 151.799 31.3212 151.81V149.136H25.6309Z" fill="#8BC34B"/>
<path opacity="0.1" d="M204.829 81.6537H204.845H204.829ZM188.105 161.779H188.377H188.105ZM170.657 121.011C170.709 121.184 170.752 121.358 170.801 121.529C170.758 121.358 170.711 121.184 170.657 121.011ZM204.829 81.6456H204.845H204.829ZM40.8528 40.9937V42.1529H52.9799V40.9937H40.8528ZM188.105 161.779H188.377H188.105ZM170.657 121.011C170.709 121.184 170.752 121.358 170.801 121.529C170.758 121.358 170.711 121.184 170.657 121.011ZM204.829 81.6456H204.845H204.829ZM188.105 161.771H188.377H188.105ZM170.657 121.011C170.709 121.184 170.752 121.358 170.801 121.529C170.758 121.358 170.711 121.184 170.657 121.011Z" fill="#8BC34B"/>
<path d="M125.317 94.0742C125.317 94.0742 124.247 93.9249 124.247 92.3666C124.247 90.8083 123.482 87.898 123.482 87.898C123.482 87.8844 122.819 82.8294 121.904 82.0258C120.989 81.2222 119.814 76.5038 119.814 76.5038C119.814 76.5038 119.613 73.9437 119.203 73.3926C118.793 72.8415 118.239 71.4922 117.422 69.5674C116.605 67.6426 113.198 66.3096 113.198 66.3096C113.198 66.3096 107.038 62.7369 105.292 61.5722C105.134 61.4765 104.985 61.3646 104.85 61.2383C104.546 60.8392 103.221 60.8311 103.221 60.8311C103.082 59.9569 102.949 58.9524 102.906 58.0429C102.906 57.9452 102.906 57.8475 102.892 57.7497C104.839 56.5991 106.305 54.785 107.022 52.6404C107.054 52.5373 107.081 52.4287 107.111 52.3255C107.228 52.2871 107.335 52.2248 107.426 52.1425C107.517 52.0602 107.59 51.9598 107.641 51.8477C107.798 51.4975 107.801 51.0875 107.996 50.7618C108.224 50.3763 108.659 50.1699 109.001 49.8794C109.864 49.1464 110.087 47.9112 110.046 46.7872C110.019 45.8778 109.872 44.9602 109.929 44.0561L109.945 43.8281C109.962 43.6923 109.981 43.5566 110.005 43.4263C110.138 42.753 110.429 42.1177 110.592 41.4499C110.754 40.782 110.771 40.03 110.391 39.4545C109.834 38.6102 108.675 38.4418 107.657 38.355C106.503 38.2572 105.471 38.3848 104.733 37.4265C104.387 36.9256 103.999 36.456 103.571 36.0229C103.419 35.8818 101.942 34.9804 101.942 34.9207C100.501 34.2531 98.8669 34.1278 97.3405 34.5678C96.5749 34.7904 95.8528 35.1542 95.0763 35.3361C93.4013 35.7324 91.4737 35.3035 90.0512 36.2618C89.2584 36.8048 88.7833 37.6681 88.3381 38.5097C87.9761 39.2029 87.6087 39.8952 87.2359 40.5866C86.6359 41.7241 86.0251 42.8806 85.7726 44.1403C85.7195 44.4144 85.6868 44.6921 85.6748 44.971V44.9846C85.6748 45.085 85.6748 45.1855 85.6748 45.2859V45.4135C85.6748 45.5086 85.6748 45.6009 85.6911 45.685C85.7074 45.7692 85.7047 45.7963 85.7128 45.8533C85.721 45.9104 85.7346 46.038 85.7509 46.1248C85.7671 46.2117 85.7997 46.3637 85.8323 46.4832C85.8459 46.5348 85.8649 46.5836 85.8812 46.6325C85.9083 46.7248 85.9409 46.8144 85.9762 46.904C85.9952 46.9501 86.0142 46.999 86.0359 47.0452C86.0766 47.1402 86.1255 47.2325 86.1744 47.3166C86.1961 47.3546 86.2124 47.3899 86.2341 47.4252C86.3098 47.5515 86.3932 47.673 86.4839 47.789C87.0648 48.5139 87.92 48.9754 88.5526 49.6541C88.5526 49.6813 88.5526 49.7084 88.5526 49.7328C88.5526 49.8089 88.5526 49.8822 88.5526 49.9582C88.5861 51.4718 88.989 52.9544 89.7262 54.2768C90.4633 55.5993 91.5125 56.7216 92.7823 57.5461C92.7823 57.6493 92.7959 57.7552 92.8013 57.8583C92.8542 58.6642 92.8442 59.473 92.7714 60.2773C92.6609 60.1471 92.5225 60.0433 92.3665 59.9738C92.2105 59.9043 92.0408 59.8706 91.8701 59.8755C91.7535 59.8698 91.6366 59.8798 91.5226 59.9053L91.4982 59.8863V59.9108C90.9009 60.0574 90.1652 60.6791 89.462 62.4464C89.462 62.4464 87.3228 64.8572 85.6938 64.7567C84.0649 64.6563 79.9411 67.2652 79.9411 67.2652C79.9411 67.2652 75.9177 69.8769 75.0544 72.5374C74.5719 74.0461 73.9933 75.5224 73.3223 76.9572L68.3488 87.2057L67.4312 95.3366C67.4312 95.3366 67.9388 98.9528 67.8384 99.5039C67.7379 100.055 69.9261 105.026 69.9261 105.026C69.9261 105.026 77.1557 117.729 80.1094 118.38L80.3212 118.231C80.4476 118.297 80.5816 118.347 80.7203 118.38L81.3284 117.951C81.3649 118.429 81.3494 118.91 81.2822 119.385C80.875 120.639 81.4343 128.824 82.1456 130.429C82.8568 132.033 82.6044 153.07 82.6044 153.07L82.5039 154.927C82.5039 154.927 82.5039 154.987 82.5284 155.09L82.5039 155.53L82.5772 155.568C82.6533 156.157 82.6285 156.755 82.5039 157.335C82.2487 158.15 82.1456 160.452 82.1456 160.452C82.1456 160.452 80.1121 173.451 81.0759 176.062C82.0397 178.674 82.8596 181.535 82.8596 181.535C82.8596 181.535 83.8776 184.793 82.9084 185.35C81.9392 185.906 79.1837 186.84 79.7511 188.198C80.2669 189.452 82.2243 192.813 82.5148 193.304L82.4903 193.562L82.0913 197.887C82.1559 198.458 82.3107 199.015 82.5501 199.537C82.9872 200.479 83.8369 201.457 85.4522 201.351C85.7237 201.332 86.0386 201.299 86.3427 201.259C89.2991 200.862 92.9397 199.543 92.9397 199.543C92.7507 199.423 92.5775 199.28 92.4239 199.117C92.2786 198.976 92.1635 198.807 92.0855 198.62C92.0076 198.434 91.9685 198.233 91.9705 198.031C92.014 197.243 90.5398 193.491 90.1733 192.568C90.1163 192.435 90.0865 192.359 90.0865 192.359C90.0865 192.359 93.4474 188.846 92.8882 185.732C92.8882 185.732 89.1688 183.561 90.3932 182.369C91.6176 181.177 93.8058 177.754 93.8058 177.754C93.8058 177.754 93.9062 164.953 93.8058 163.042C93.701 161.715 93.7639 160.381 93.9931 159.07C94.0338 158.872 94.0827 158.679 94.1343 158.489C95.8276 158.742 97.537 158.872 99.249 158.877C99.8734 158.877 100.509 158.877 101.149 158.839C101.149 159.02 101.158 159.216 101.174 159.426C101.315 162.597 101.578 168.157 101.793 170.223C102.097 173.184 103.777 181.166 103.777 181.166C103.777 181.166 100.571 183.224 104.337 188.295C104.337 188.295 104.337 190.133 104.087 190.399C103.82 191.269 103.605 192.154 103.443 193.049C103.286 194.005 103.221 194.971 103.476 195.473C104.087 196.673 107.752 196.576 107.752 196.576L107.841 196.559C108.533 196.488 109.233 196.554 109.899 196.755C110.565 196.956 111.184 197.287 111.721 197.729C113.114 198.848 118.399 198.356 121.261 198.001C122.382 197.86 123.131 197.729 123.131 197.729C123.168 197.602 123.181 197.47 123.169 197.338C123.14 196.635 122.588 195.093 118.853 193.717C118.853 193.717 115.34 191.355 115.389 189.297H115.315H114.908C115.204 189.281 115.394 189.297 115.394 189.297C115.394 189.297 114.018 184.275 114.58 183.867C115.142 183.46 113.458 177.895 113.458 177.895C113.458 177.895 112.495 168.556 112.443 167.901C112.445 167.34 112.53 166.782 112.696 166.245L112.443 161.125C112.443 161.125 112.394 159.423 112.443 158.869C112.435 158.388 112.396 157.909 112.326 157.433C112.302 157.243 112.278 157.045 112.25 156.849C113.567 156.515 114.422 156.206 114.422 156.206L114.27 138.383C115.389 136.211 115.595 131.447 115.59 128.067C115.59 125.895 115.492 124.288 115.492 124.288L117.02 121.793C117.02 121.793 117.373 118.806 116.814 118.152C116.567 117.856 116.678 117.549 116.882 117.297C116.988 117.213 117.099 117.137 117.216 117.069C117.216 117.069 117.199 117.044 117.18 117.009C117.287 116.92 117.401 116.839 117.52 116.768C117.52 116.768 116.977 115.926 117.463 115.57C117.919 115.88 118.326 116.113 118.636 116.303C118.614 116.501 118.592 116.615 118.592 116.615L118.723 116.344C119.021 116.512 119.203 116.615 119.203 116.615C119.203 116.615 121.598 111.846 121.546 111.142C121.494 110.439 123.175 107.477 123.175 107.477C123.175 107.477 123.378 105.922 124.296 105.27C125.214 104.619 125.007 99.8975 125.007 99.8975C125.007 99.8975 125.263 97.4379 125.873 96.4334C126.484 95.4289 125.317 94.0742 125.317 94.0742ZM79.5013 91.9811L79.5475 93.1186C79.276 92.6815 79.0805 92.3666 79.0805 92.3666L79.5013 91.9811Z" fill="url(#paint0_linear)"/>
<path d="M119.333 114.555L118.747 117.053C118.747 117.053 114.05 114.655 113.203 111.609C112.356 108.563 114.62 107.407 114.62 107.407L118.997 109.261L119.333 114.555Z" fill="white"/>
<path opacity="0.1" d="M119.333 114.555L118.747 117.053C118.747 117.053 114.05 114.655 113.203 111.609C112.356 108.563 114.62 107.407 114.62 107.407L118.997 109.261L119.333 114.555Z" fill="black"/>
<path d="M92.975 199.559C92.975 199.559 88.6312 201.155 85.6449 201.356C84.0595 201.462 83.226 200.49 82.7971 199.554C82.5627 199.033 82.4116 198.479 82.3491 197.911L82.7373 193.608L82.9437 191.317L89.2882 189.669L90.1869 192.416L90.271 192.625C90.6321 193.543 92.0791 197.276 92.0357 198.055C92.0339 198.255 92.0724 198.452 92.1489 198.637C92.2254 198.821 92.3383 198.988 92.4809 199.127C92.6266 199.292 92.7926 199.437 92.975 199.559Z" fill="white"/>
<path d="M122.645 197.371C122.656 197.501 122.643 197.633 122.607 197.759C122.607 197.759 113.317 199.309 111.417 197.759C110.881 197.306 110.256 196.97 109.583 196.773C108.91 196.576 108.203 196.521 107.507 196.613C107.507 196.613 103.913 196.711 103.313 195.527C103.063 195.031 103.128 194.067 103.283 193.117C103.441 192.226 103.651 191.346 103.913 190.481L104.057 190.367L104.912 189.68L114.924 189.384H115C114.951 191.431 118.399 193.779 118.399 193.779C122.062 195.137 122.602 196.67 122.645 197.371Z" fill="white"/>
<path opacity="0.1" d="M122.645 197.371C122.655 197.502 122.641 197.633 122.605 197.759C122.605 197.759 113.317 199.309 111.417 197.759C110.881 197.307 110.257 196.971 109.584 196.774C108.912 196.576 108.205 196.522 107.51 196.613C107.51 196.613 103.913 196.711 103.316 195.527C103.066 195.028 103.128 194.067 103.283 193.117C104.668 193.255 106.853 193.6 107.711 194.423C109.009 195.674 111.208 196.923 112.557 197.021C113.613 197.089 119.93 197.289 122.645 197.371Z" fill="black"/>
<path opacity="0.1" d="M92.975 199.559C92.975 199.559 88.6313 201.155 85.6449 201.356C84.0595 201.462 83.226 200.49 82.7998 199.551C83.9047 199.923 85.4386 200.313 86.2449 199.955C87.2006 199.532 90.5887 199.257 92.489 199.141C92.6337 199.299 92.7968 199.439 92.975 199.559Z" fill="black"/>
<path d="M99.42 70.9164C95.8364 69.5237 91.2266 64.9221 92.3777 62.7719C92.6334 62.2294 92.7853 61.6437 92.8256 61.0453C92.8997 60.2329 92.9106 59.416 92.8582 58.602C92.7775 57.2687 92.6171 55.9415 92.3777 54.6274C92.3777 54.6274 103.566 54.8799 102.914 56.5278C102.724 57.0111 102.694 57.8499 102.746 58.7893C102.797 59.7286 102.933 60.7901 103.074 61.6887C103.27 62.9213 103.465 63.8606 103.465 63.8606C103.465 63.8606 102.781 64.8189 102.379 64.8705C101.977 64.9221 104.562 72.901 99.42 70.9164Z" fill="#CF6F80"/>
<path opacity="0.1" d="M90.2629 192.625L90.1787 192.718C86.8341 188.673 82.789 193.714 82.789 193.714L82.7292 193.608L82.9356 191.317L89.2801 189.669L90.1787 192.416L90.2629 192.625Z" fill="black"/>
<path opacity="0.1" d="M115.003 189.669C115.003 189.669 112.56 189.617 111.257 190.768C109.953 191.92 103.655 191.018 103.926 190.768C104.007 190.645 104.055 190.503 104.068 190.356L104.923 189.669L114.935 189.373C114.973 189.555 115.003 189.669 115.003 189.669Z" fill="black"/>
<path d="M94.4246 157.903C94.2426 158.353 94.1044 158.819 94.0119 159.296C93.7856 160.6 93.7226 161.928 93.8246 163.248C93.9251 165.149 93.8246 177.884 93.8246 177.884C93.8246 177.884 91.6772 181.28 90.4799 182.477C89.2827 183.675 92.9233 185.825 92.9233 185.825C93.4663 188.92 90.1759 192.416 90.1759 192.416C86.8312 188.371 82.7861 193.416 82.7861 193.416C82.7861 193.416 80.5871 189.615 80.0387 188.257C79.4903 186.9 82.1861 185.961 83.1336 185.41C84.0811 184.858 83.0875 181.609 83.0875 181.609C83.0875 181.609 82.2866 178.761 81.3364 176.163C80.3862 173.565 82.3843 160.631 82.3843 160.631C82.3843 160.631 82.4875 158.334 82.7345 157.534C82.8592 156.956 82.884 156.361 82.8078 155.774C82.7915 155.576 82.7725 155.411 82.759 155.299C82.7454 155.188 82.7345 155.136 82.7345 155.136L82.7725 155.071L84.13 152.541C84.13 152.541 95.0762 156.309 94.4246 157.903Z" fill="#8BC34B"/>
<path d="M115.003 189.37C115.003 189.37 112.56 189.319 111.257 190.456C109.953 191.594 103.655 190.706 103.927 190.456C104.198 190.206 104.176 188.357 104.176 188.357C100.481 183.313 103.633 181.266 103.633 181.266C103.633 181.266 101.983 173.325 101.684 170.38C101.475 168.322 101.217 162.792 101.079 159.635C101.019 158.277 100.984 157.343 100.984 157.343L104.003 156.735L104.391 156.656L111.672 155.196C111.672 155.196 111.873 156.553 112.009 157.664C112.076 158.138 112.114 158.615 112.123 159.094C112.074 159.637 112.123 161.337 112.123 161.337L112.37 166.432C112.208 166.967 112.125 167.522 112.123 168.08C112.171 168.729 113.119 178.019 113.119 178.019C113.119 178.019 114.767 183.563 114.205 183.962C113.643 184.361 115.003 189.37 115.003 189.37Z" fill="#8BC34B"/>
<path opacity="0.1" d="M102.914 56.5278C102.724 57.0111 102.694 57.8499 102.746 58.7893C101.247 59.6917 99.5243 60.1531 97.7753 60.1204C96.0264 60.0878 94.322 59.5624 92.8582 58.6047C92.7776 57.2705 92.6172 55.9424 92.3777 54.6274C92.3777 54.6274 103.566 54.8745 102.914 56.5278Z" fill="black"/>
<path d="M107.239 50.5281C107.241 51.5064 107.087 52.4787 106.783 53.4085C106.102 55.4918 104.708 57.2675 102.845 58.4219C100.982 59.5763 98.7711 60.035 96.6028 59.7169C94.4345 59.3989 92.4485 58.3245 90.9957 56.6838C89.5429 55.043 88.7169 52.9415 88.6637 50.7507C88.6637 50.6747 88.6637 50.6041 88.6637 50.5281C88.6426 49.2949 88.8673 48.0698 89.3247 46.9244C89.782 45.779 90.4628 44.7361 91.3275 43.8565C92.1921 42.977 93.2232 42.2784 94.3607 41.8015C95.4981 41.3247 96.7192 41.0791 97.9525 41.0791C99.1859 41.0791 100.407 41.3247 101.544 41.8015C102.682 42.2784 103.713 42.977 104.578 43.8565C105.442 44.7361 106.123 45.779 106.58 46.9244C107.038 48.0698 107.262 49.2949 107.241 50.5281H107.239Z" fill="#CF6F80"/>
<path opacity="0.1" d="M99.42 70.9166C95.8364 69.5239 91.2266 64.9222 92.3777 62.772C92.6334 62.2295 92.7853 61.6438 92.8256 61.0454L97.7314 65.0769L100.767 67.5665L103.074 61.6915C103.27 62.9241 103.465 63.8634 103.465 63.8634C103.465 63.8634 102.781 64.8217 102.379 64.8733C101.977 64.9249 104.562 72.9011 99.42 70.9166Z" fill="black"/>
<path d="M112.106 88.734L108.01 157.555L102.667 157.905L88.832 118L91.1016 70.6234L91.5794 60.6138L97.7312 65.6661L100.769 68.1556L103.145 62.1096L107.562 65.9593L112.106 88.734Z" fill="#8BC34B"/>
<path opacity="0.1" d="M94.4247 157.903C94.2427 158.352 94.1045 158.819 94.012 159.295C90.1243 158.695 86.3486 157.515 82.8106 155.796L82.7373 155.758L82.7617 155.321L82.7753 155.093L84.1327 152.562C84.1327 152.562 95.0762 156.309 94.4247 157.903Z" fill="black"/>
<path opacity="0.1" d="M104.065 159.306C103.071 159.475 102.069 159.589 101.062 159.648C101.003 158.291 100.967 157.357 100.967 157.357L103.986 156.749L104.065 159.306Z" fill="black"/>
<path opacity="0.1" d="M111.992 157.677C110.062 158.18 107.081 158.744 104.413 158.391L104.375 156.67L111.656 155.209C111.656 155.209 111.857 156.553 111.992 157.677Z" fill="black"/>
<path opacity="0.1" d="M104.364 158.706C93.2328 160.606 83.0386 155.158 83.0386 155.158L83.1363 153.312C83.1363 153.312 83.3888 132.383 82.6884 130.779C81.988 129.174 81.4423 121.038 81.8386 119.789C82.235 118.54 80.3916 99.8131 80.3916 99.8131L80.093 92.2116L69.1631 87.7837L74.0498 77.5976C74.7098 76.1695 75.2775 74.7005 75.7493 73.1996C76.599 70.5554 80.5437 67.9573 80.5437 67.9573C80.5437 67.9573 84.5888 65.3619 86.1878 65.4596C87.7868 65.5573 89.8827 63.1629 89.8827 63.1629C91.4302 59.2182 92.831 61.0046 92.831 61.0046C92.831 61.1919 92.831 61.0046 92.755 61.5883C92.212 65.9184 101.535 79.6012 101.668 79.8428L102.556 101.469L103.454 128.837L104.364 158.706Z" fill="black"/>
<path d="M104.065 158.706C92.9341 160.607 82.7371 155.158 82.7371 155.158L82.8376 153.312C82.8376 153.312 83.0901 132.383 82.3869 130.779C81.6838 129.174 81.1408 121.038 81.5399 119.789C81.939 118.54 80.0929 99.8133 80.0929 99.8133L79.7916 92.2118L68.8562 87.7676L73.7429 77.5815C74.4015 76.1528 74.9691 74.6838 75.4424 73.1835C76.2894 70.5392 80.2368 67.9411 80.2368 67.9411C80.2368 67.9411 84.2819 65.3458 85.8782 65.4435C87.4745 65.5412 89.5731 63.1467 89.5731 63.1467C91.1233 59.2021 92.8309 60.9885 92.8309 60.9885C92.8309 61.1758 92.668 61.2599 92.7549 61.5721C93.9494 65.772 101.236 79.5851 101.369 79.8267L102.268 101.453L103.166 128.821L104.065 158.706Z" fill="white"/>
<path opacity="0.1" d="M101.065 80.443C99.868 79.9435 93.5261 72.703 93.5261 72.703V71.0551C93.2954 70.5122 91.9244 70.8434 90.8113 71.2235L91.2891 61.2139L91.8321 61.6645C93.0212 65.8617 100.927 80.2014 101.065 80.443Z" fill="black"/>
<path d="M101.367 79.8429C100.167 79.3434 93.8247 72.1029 93.8247 72.1029V70.455C93.5939 69.9121 92.2229 70.2433 91.1099 70.6234L91.5904 60.6138L92.1334 61.0644C93.3252 65.2616 101.233 79.604 101.367 79.8429Z" fill="white"/>
<path opacity="0.1" d="M83.0386 115.953C83.1879 115.953 90.7786 115.155 90.7786 115.155C90.7786 115.155 95.3748 124.192 95.0734 126.391C94.7721 128.59 94.2264 130.537 92.3776 130.192C90.5288 129.847 82.4277 130.464 82.4277 130.464L83.0386 115.953Z" fill="black"/>
<path d="M82.7373 115.353C82.8866 115.353 90.4773 114.555 90.4773 114.555C90.4773 114.555 95.0708 123.595 94.7722 125.791C94.4735 127.988 93.9224 129.937 92.0763 129.592C90.2302 129.247 82.1265 129.864 82.1265 129.864L82.7373 115.353Z" fill="white"/>
<path d="M88.4574 111.11C88.4574 111.11 95.4236 114.854 95.573 115.997C95.7223 117.14 92.0274 115.497 91.2292 115.299C90.7039 115.172 90.1691 115.089 89.6302 115.049L84.3064 115.193L88.4574 111.11Z" fill="#CF6F80"/>
<path opacity="0.1" d="M99.1212 80.9099C99.526 80.9099 99.8542 80.5817 99.8542 80.1769C99.8542 79.772 99.526 79.4438 99.1212 79.4438C98.7164 79.4438 98.3882 79.772 98.3882 80.1769C98.3882 80.5817 98.7164 80.9099 99.1212 80.9099Z" fill="black"/>
<path d="M99.1212 80.6115C99.526 80.6115 99.8542 80.2833 99.8542 79.8785C99.8542 79.4737 99.526 79.1455 99.1212 79.1455C98.7164 79.1455 98.3882 79.4737 98.3882 79.8785C98.3882 80.2833 98.7164 80.6115 99.1212 80.6115Z" fill="#3F3D56"/>
<path opacity="0.1" d="M100.471 112.641C100.875 112.641 101.204 112.313 101.204 111.908C101.204 111.503 100.875 111.175 100.471 111.175C100.066 111.175 99.7375 111.503 99.7375 111.908C99.7375 112.313 100.066 112.641 100.471 112.641Z" fill="black"/>
<path d="M100.471 112.34C100.875 112.34 101.204 112.011 101.204 111.607C101.204 111.202 100.875 110.874 100.471 110.874C100.066 110.874 99.7375 111.202 99.7375 111.607C99.7375 112.011 100.066 112.34 100.471 112.34Z" fill="#3F3D56"/>
<path opacity="0.1" d="M99.8516 96.7756C100.256 96.7756 100.585 96.4474 100.585 96.0426C100.585 95.6378 100.256 95.3096 99.8516 95.3096C99.4468 95.3096 99.1187 95.6378 99.1187 96.0426C99.1187 96.4474 99.4468 96.7756 99.8516 96.7756Z" fill="black"/>
<path d="M99.8516 96.4768C100.256 96.4768 100.585 96.1486 100.585 95.7438C100.585 95.3389 100.256 95.0107 99.8516 95.0107C99.4468 95.0107 99.1187 95.3389 99.1187 95.7438C99.1187 96.1486 99.4468 96.4768 99.8516 96.4768Z" fill="#3F3D56"/>
<path d="M116.749 114.897C116.749 114.897 117.248 115.646 116.749 115.996C116.249 116.346 116.797 117.193 116.797 117.193C116.797 117.193 115.551 117.924 116.1 118.581C116.648 119.238 116.301 122.205 116.301 122.205L114.802 124.686C114.802 124.686 114.892 126.285 114.897 128.446C114.897 131.818 114.699 136.558 113.602 138.719L113.754 156.45C113.754 156.45 108.506 158.367 104.114 157.783L103.462 129.331C103.462 129.331 104.412 113.197 104.763 110.102C104.968 108.495 105.051 106.876 105.012 105.256C105.012 105.256 104.863 100.413 104.361 98.1651C104.361 98.1651 103.818 88.427 103.764 85.7312C103.739 84.4416 103.807 80.6788 103.883 77.1007C103.967 73.1886 104.062 69.4992 104.062 69.4992L103.071 61.6587C103.071 61.6587 104.062 61.5583 104.361 61.9574C104.495 62.0823 104.64 62.1941 104.795 62.2913C106.506 63.4478 112.549 67.0042 112.549 67.0042C112.549 67.0042 115.893 68.3345 116.694 70.2403C117.495 72.1461 118.052 73.4981 118.44 74.0411C118.828 74.584 119.04 77.136 119.04 77.136C119.04 77.136 120.191 81.8327 121.09 82.6281C121.988 83.4235 122.645 88.484 122.645 88.484L114.704 94.7281C114.704 94.7281 114.007 105.115 113.857 105.517C113.708 105.919 116.749 114.897 116.749 114.897Z" fill="white"/>
<path d="M117.05 114.897C117.05 114.897 117.547 115.646 117.05 115.997C116.553 116.347 117.096 117.194 117.096 117.194C117.096 117.194 115.858 117.932 116.401 118.589C116.944 119.246 116.602 122.214 116.602 122.214L115.104 124.695C115.104 124.695 115.193 126.294 115.201 128.455C115.201 131.827 115.003 136.567 113.906 138.728L114.056 156.459C114.056 156.459 108.8 158.375 104.413 157.791L103.764 129.34C103.764 129.34 104.714 113.206 105.064 110.111C105.269 108.504 105.352 106.884 105.311 105.265C105.311 105.265 105.162 100.422 104.662 98.1738C104.662 98.1738 104.119 88.4357 104.062 85.7398C104.038 84.4503 104.109 80.6875 104.182 77.1094C104.266 73.1973 104.361 69.5078 104.361 69.5078L103.052 61.5615C103.052 61.5615 104.361 61.5615 104.662 61.966C104.795 62.0925 104.941 62.2044 105.097 62.3C106.807 63.4565 112.853 67.0129 112.853 67.0129C112.853 67.0129 116.195 68.3432 116.996 70.249C117.797 72.1548 118.353 73.5068 118.744 74.0498C119.135 74.5927 119.341 77.1447 119.341 77.1447C119.341 77.1447 120.493 81.8413 121.391 82.6368C122.29 83.4322 122.939 88.4818 122.939 88.4818L114.998 94.7259C114.998 94.7259 114.3 105.113 114.148 105.515C113.996 105.916 117.05 114.897 117.05 114.897Z" fill="white"/>
<path opacity="0.1" d="M107.54 71.8124L108.257 73.9028L104.483 77.7036C104.567 73.7942 104.662 70.1021 104.662 70.1021L103.354 62.1558C103.354 62.1558 104.662 62.1558 104.964 62.5603C105.096 62.6864 105.241 62.7974 105.398 62.8915L108.607 72.1491L107.54 71.8124Z" fill="black"/>
<path d="M107.239 71.2123L107.958 73.3028L104.185 77.1035C104.269 73.1915 104.364 69.502 104.364 69.502L103.052 61.5557C103.052 61.5557 104.364 61.5557 104.662 61.9602C104.796 62.0859 104.941 62.1977 105.097 62.2941L108.308 71.549L107.239 71.2123Z" fill="white"/>
<path opacity="0.1" d="M107.239 50.5281C107.241 51.5064 107.087 52.4787 106.783 53.4085C106.731 53.4165 106.679 53.4142 106.628 53.4016C106.578 53.389 106.531 53.3664 106.489 53.3352C106.419 50.8919 105.216 48.5978 103.736 46.6459C103.321 46.0565 102.817 45.5346 102.243 45.0984C101.663 44.6624 100.941 44.4582 100.218 44.5256C99.4036 44.6369 98.6842 45.1907 97.8616 45.2613C96.7756 45.3509 95.8037 44.5989 94.7259 44.5609C94.2878 44.565 93.8556 44.6626 93.4581 44.847C93.0606 45.0315 92.7071 45.2986 92.421 45.6305C91.8548 46.3003 91.4342 47.0806 91.1858 47.9218C90.7589 49.1974 90.5265 50.5299 90.4962 51.8746C90.4826 52.6348 90.4094 53.5877 89.7035 53.8646C89.7566 53.3056 89.6931 52.7416 89.5169 52.2084C89.3407 51.6751 89.0558 51.1843 88.68 50.767L88.6637 50.7507C88.6637 50.6747 88.6637 50.6041 88.6637 50.5281C88.6426 49.2949 88.8673 48.0698 89.3247 46.9244C89.782 45.779 90.4628 44.7361 91.3275 43.8565C92.1921 42.977 93.2232 42.2784 94.3607 41.8015C95.4981 41.3247 96.7192 41.0791 97.9525 41.0791C99.1859 41.0791 100.407 41.3247 101.544 41.8015C102.682 42.2784 103.713 42.977 104.578 43.8565C105.442 44.7361 106.123 45.779 106.58 46.9244C107.038 48.0698 107.262 49.2949 107.241 50.5281H107.239Z" fill="black"/>
<path d="M101.798 35.7783C100.387 35.1147 98.7829 34.9892 97.2861 35.4254C96.5341 35.648 95.8255 36.009 95.0627 36.1909C93.4338 36.5846 91.5334 36.1584 90.1353 37.1113C89.3588 37.6542 88.8919 38.5121 88.4575 39.3456L87.3716 41.4143C86.7797 42.5464 86.1825 43.6974 85.9354 44.9436C85.6884 46.1897 85.8377 47.5851 86.6277 48.5869C87.2032 49.3172 88.053 49.776 88.6774 50.4628C89.0515 50.8806 89.3352 51.3711 89.5109 51.9037C89.6865 52.4363 89.7503 52.9994 89.6982 53.5577C90.4067 53.2862 90.4746 52.3306 90.4909 51.5705C90.5212 50.2257 90.7536 48.8932 91.1805 47.6177C91.4282 46.7762 91.849 45.9958 92.4157 45.3263C92.702 44.9947 93.0556 44.7278 93.453 44.5434C93.8504 44.3589 94.2825 44.2612 94.7206 44.2567C95.8065 44.2947 96.7812 45.044 97.8562 44.9544C98.6707 44.8865 99.3928 44.33 100.213 44.2214C100.936 44.153 101.658 44.3573 102.238 44.7942C102.812 45.2298 103.315 45.7518 103.728 46.3417C105.211 48.2937 106.413 50.5823 106.484 53.031C106.791 53.2564 107.233 52.9632 107.385 52.6157C107.537 52.2682 107.543 51.861 107.736 51.5297C107.958 51.147 108.384 50.9433 108.718 50.6556C109.565 49.9253 109.777 48.6955 109.745 47.5797C109.712 46.4639 109.495 45.3318 109.706 44.235C109.834 43.5617 110.122 42.9319 110.279 42.2667C110.437 41.6016 110.456 40.855 110.084 40.2822C109.541 39.4406 108.398 39.275 107.402 39.1963C106.27 39.0985 105.257 39.2234 104.535 38.2705C104.196 37.7732 103.814 37.3063 103.395 36.8751C103.251 36.7339 101.798 35.838 101.798 35.7783Z" fill="#512E4E"/>
<path opacity="0.1" d="M72.2905 93.0288L69.4535 87.7837L68.5549 95.8766C68.5549 95.8766 69.0545 99.471 68.954 100.022C68.8536 100.573 71.001 105.514 71.001 105.514C71.001 105.514 78.0949 118.149 80.9916 118.801L90.7786 111.807L88.1832 108.511C88.1832 108.511 87.2846 108.161 87.0592 108.511C87.0592 108.511 82.2404 100.22 81.7409 99.6204C81.2413 99.0204 81.3391 97.8231 81.3391 97.8231C81.3391 97.8231 80.5898 97.025 80.8396 96.2757C81.0893 95.5264 79.3925 92.9283 79.3925 92.9283L80.94 91.4813L72.2905 93.0288Z" fill="black"/>
<path d="M69.603 87.1865L68.8537 87.7838L67.9551 95.8767C67.9551 95.8767 68.4546 99.4711 68.3542 100.022C68.2537 100.573 70.4039 105.514 70.4039 105.514C70.4039 105.514 77.495 118.149 80.3917 118.801L90.1814 111.807L87.5833 108.512C87.5833 108.512 86.6847 108.161 86.4594 108.512C86.4594 108.512 81.6406 100.22 81.141 99.6205C80.6415 99.0205 80.742 97.8232 80.742 97.8232C80.742 97.8232 79.9927 97.0251 80.2424 96.2758C80.4922 95.5265 78.7927 92.9284 78.7927 92.9284L80.3402 91.4814L69.603 87.1865Z" fill="white"/>
<path opacity="0.1" d="M116.1 118.89C116.643 119.55 116.301 122.512 116.301 122.512L114.802 124.993C114.802 124.993 114.892 126.595 114.897 128.753L112.378 129.541C112.15 129.612 111.909 129.627 111.674 129.586C111.439 129.545 111.217 129.448 111.027 129.304C110.837 129.16 110.685 128.972 110.582 128.757C110.479 128.542 110.429 128.305 110.437 128.066L110.871 114.055L116.749 116.303C116.249 116.651 116.798 117.503 116.798 117.503C116.798 117.503 115.551 118.231 116.1 118.89Z" fill="black"/>
<path d="M116.401 118.589C116.944 119.249 116.602 122.214 116.602 122.214L115.103 124.695C115.103 124.695 115.193 126.294 115.201 128.455L112.636 129.256C112.413 129.325 112.176 129.34 111.946 129.3C111.716 129.259 111.499 129.164 111.314 129.023C111.128 128.882 110.978 128.698 110.878 128.487C110.777 128.277 110.728 128.045 110.735 127.812L111.172 113.757L117.053 116.005C116.55 116.352 117.099 117.202 117.099 117.202C117.099 117.202 115.858 117.932 116.401 118.589Z" fill="white"/>
<path d="M118.348 111.911C118.348 111.911 117.949 114.46 116.95 114.609C115.951 114.759 115.503 118.733 114.506 118.592C113.51 118.451 114.17 114.897 114.205 114.207C114.24 113.518 113.119 110.662 113.958 110.013C114.797 109.364 117.452 110.013 117.452 110.013L118.348 111.911Z" fill="#CF6F80"/>
<path opacity="0.1" d="M120.473 92.2793L122.358 88.4785C122.358 88.4785 123.107 91.3752 123.107 92.9227C123.107 94.4702 124.155 94.6222 124.155 94.6222C124.155 94.6222 125.303 95.9796 124.698 96.9678C124.092 97.956 123.848 100.416 123.848 100.416C123.848 100.416 124.046 105.11 123.148 105.758C122.249 106.407 122.062 107.957 122.062 107.957C122.062 107.957 120.411 110.903 120.463 111.603C120.514 112.304 118.166 117.047 118.166 117.047C118.166 117.047 119.314 111.153 112.622 108.606C112.622 108.606 112.571 106.605 113.07 106.057C113.57 105.509 114.349 105.259 113.86 102.487C113.371 99.7152 113.719 96.4031 113.719 95.738C113.719 95.0728 115.218 90.9246 115.218 90.9246L120.473 92.2793Z" fill="black"/>
<path d="M121.288 87.936L122.933 88.479C122.933 88.479 123.685 91.3757 123.685 92.9232C123.685 94.4706 124.733 94.6227 124.733 94.6227C124.733 94.6227 125.881 95.9801 125.276 96.9683C124.671 97.9565 124.429 100.416 124.429 100.416C124.429 100.416 124.627 105.11 123.729 105.759C122.83 106.408 122.629 107.958 122.629 107.958C122.629 107.958 120.981 110.904 121.033 111.604C121.084 112.304 118.733 117.047 118.733 117.047C118.733 117.047 119.884 111.153 113.19 108.607C113.19 108.607 113.141 106.606 113.64 106.058C114.14 105.509 114.919 105.259 114.43 102.488C113.942 99.7157 114.289 96.4036 114.289 95.7385C114.289 95.0733 115.788 90.9251 115.788 90.9251L121.288 87.936Z" fill="white"/>
<path opacity="0.1" d="M84.95 186.449C84.95 186.449 87.5725 184.801 89.2937 185.999C91.0149 187.196 84.95 186.449 84.95 186.449Z" fill="black"/>
<path opacity="0.1" d="M105.327 181.354C105.327 181.354 107.649 181.055 109.598 183.153C111.547 185.252 105.327 181.354 105.327 181.354Z" fill="black"/>
<g opacity="0.1">
<path opacity="0.1" d="M108.724 50.0611C108.39 50.3488 107.961 50.5552 107.738 50.938C107.548 51.2664 107.543 51.671 107.391 52.0239C107.239 52.3768 106.796 52.6646 106.489 52.442C106.419 49.9986 105.213 47.7046 103.734 45.7499C103.32 45.16 102.817 44.638 102.243 44.2024C101.662 43.7656 100.939 43.5613 100.215 43.6296C99.4009 43.7409 98.6842 44.2947 97.8616 44.3626C96.7757 44.4549 95.8011 43.7029 94.7233 43.6649C94.2853 43.6693 93.8533 43.7672 93.4562 43.9521C93.0592 44.1371 92.7063 44.4048 92.4211 44.7373C91.8544 45.4057 91.4336 46.1853 91.1859 47.0259C90.7592 48.3015 90.5268 49.634 90.4963 50.9787C90.48 51.7361 90.4094 52.6809 89.709 52.9632C89.7253 53.1638 89.7253 53.3653 89.709 53.5659C90.4148 53.2944 90.4854 52.3388 90.5017 51.5786C90.532 50.2339 90.7644 48.9014 91.1913 47.6258C91.4391 46.7844 91.8598 46.004 92.4265 45.3345C92.7123 45.0029 93.0654 44.7361 93.4623 44.5516C93.8593 44.3672 94.291 44.2694 94.7287 44.2649C95.8146 44.3029 96.792 45.0522 97.8671 44.9626C98.6815 44.8947 99.4036 44.3382 100.221 44.2296C100.945 44.1613 101.668 44.3656 102.249 44.8024C102.823 45.2379 103.326 45.76 103.739 46.3499C105.219 48.3018 106.424 50.5904 106.495 53.0392C106.802 53.2646 107.244 52.9714 107.396 52.6239C107.548 52.2764 107.554 51.8691 107.744 51.5379C107.966 51.1551 108.395 50.9515 108.729 50.6638C109.576 49.9335 109.788 48.7036 109.755 47.5878C109.755 47.5526 109.755 47.5173 109.755 47.4847C109.704 48.4512 109.446 49.4366 108.724 50.0611Z" fill="black"/>
<path opacity="0.1" d="M88.6829 49.8682C88.0585 49.1813 87.206 48.7225 86.6332 47.9949C86.1508 47.3508 85.8754 46.5755 85.8432 45.7715C85.7577 46.7762 86.0383 47.778 86.6332 48.5922C87.206 49.3225 88.0585 49.7813 88.6829 50.4681C89.2824 51.14 89.6423 51.9916 89.7064 52.8898C89.7479 52.3432 89.6787 51.7938 89.5028 51.2746C89.327 50.7554 89.0481 50.277 88.6829 49.8682Z" fill="black"/>
<path opacity="0.1" d="M110.285 41.6723C110.125 42.3374 109.839 42.97 109.709 43.6405C109.632 44.0886 109.604 44.5438 109.625 44.998C109.634 44.7392 109.662 44.4815 109.709 44.227C109.839 43.5537 110.125 42.9238 110.285 42.2587C110.378 41.8918 110.408 41.5118 110.374 41.1348C110.357 41.3159 110.327 41.4955 110.285 41.6723Z" fill="black"/>
</g>
<path opacity="0.1" d="M36.0339 197.488C50.6437 197.488 62.4872 195.585 62.4872 193.239C62.4872 190.892 50.6437 188.99 36.0339 188.99C21.4241 188.99 9.58057 190.892 9.58057 193.239C9.58057 195.585 21.4241 197.488 36.0339 197.488Z" fill="#8BC34B"/>
<path d="M36.8865 111.848H35.1843V150.173H36.8865V111.848Z" fill="#535461"/>
<path d="M47.5828 150.057L47.477 151.784L47.3249 154.227L47.2625 155.242L47.1132 157.686L47.048 158.701L46.896 161.144L45.1802 188.855C45.1056 190.047 44.5796 191.166 43.709 191.984C42.8385 192.802 41.689 193.258 40.4944 193.258H31.5735C30.3792 193.258 29.23 192.802 28.3599 191.984C27.4898 191.166 26.9643 190.047 26.8904 188.855L25.1828 161.125L25.0307 158.682L24.9683 157.667L24.8162 155.223L24.7538 154.208L24.6018 151.764L24.4932 150.038C24.4743 149.706 24.5236 149.373 24.6379 149.06C24.7522 148.748 24.9292 148.462 25.158 148.22C25.3868 147.978 25.6625 147.786 25.9684 147.654C26.2742 147.523 26.6037 147.456 26.9365 147.456H45.1829C45.5145 147.459 45.842 147.53 46.1452 147.664C46.4484 147.798 46.7208 147.993 46.9457 148.237C47.1706 148.481 47.3432 148.768 47.4527 149.081C47.5623 149.394 47.6066 149.726 47.5828 150.057Z" fill="#3F3D56"/>
<path d="M47.4771 151.783L47.3251 154.218H24.7431L24.5911 151.783H47.4771Z" fill="#9D9CB5"/>
<path d="M47.2625 155.234L47.1132 157.672H24.9574L24.8054 155.234H47.2625Z" fill="#9D9CB5"/>
<path d="M47.0482 158.69L46.8989 161.125H25.172L25.02 158.69H47.0482Z" fill="#9D9CB5"/>
<path d="M21.9928 126.212C31.9047 133.385 36.0421 144.602 36.0421 144.602C36.0421 144.602 24.0968 144.192 14.1823 137.02C4.26769 129.847 0.138428 118.632 0.138428 118.632C0.138428 118.632 12.0783 119.04 21.9928 126.212Z" fill="#8BC34B"/>
<path d="M0.130371 118.632C0.130371 118.632 12.5317 125.514 16.509 131.213C20.4862 136.911 36.0422 144.602 36.0422 144.602" stroke="#535461" stroke-width="2" stroke-miterlimit="10"/>
<path d="M28.3918 111.764C33.7861 115.665 36.0422 121.771 36.0422 121.771C36.0422 121.771 29.5401 121.548 24.143 117.647C18.746 113.746 16.4954 107.638 16.4954 107.638C16.4954 107.638 22.9947 107.86 28.3918 111.764Z" fill="#8BC34B"/>
<path d="M16.4954 107.638C16.4954 107.638 23.2444 111.384 25.4082 114.484C27.5719 117.585 36.0422 121.771 36.0422 121.771" stroke="#535461" stroke-width="2" stroke-miterlimit="10"/>
<path d="M43.8745 121.461C37.6765 128.273 36.3652 137.175 36.3652 137.175C36.3652 137.175 45.1043 135.03 51.2968 128.216C57.4894 121.402 58.806 112.502 58.806 112.502C58.806 112.502 50.0724 114.65 43.8745 121.461Z" fill="#8BC34B"/>
<path d="M58.8115 112.505C58.8115 112.505 50.7376 119.487 48.6852 124.298C46.6327 129.109 36.3652 137.175 36.3652 137.175" stroke="#535461" stroke-width="2" stroke-miterlimit="10"/>
<path d="M271.394 119.064C271.394 119.064 266.912 96.7645 268.627 93.9899C268.627 93.9899 268.69 91.4109 268.587 88.1232C268.587 87.9983 268.587 87.8734 268.587 87.7458C268.889 87.9471 269.203 88.1285 269.529 88.2888C271.11 89.101 272.925 89.3353 274.66 88.9512L273.302 87.4391C272.977 87.078 272.637 86.687 272.567 86.2092C272.496 85.7314 272.692 85.3052 272.86 84.879C274.149 81.6212 274.217 77.5245 271.733 75.0377C269.635 72.9473 269.124 70.2487 266.847 68.3402C265.182 66.9421 264.267 64.8924 263.404 62.9105C262.674 61.2355 261.938 59.5469 261.52 57.7714C261.194 56.3841 261.064 54.9479 260.616 53.5932C260.168 52.2385 259.329 50.9218 258.018 50.3164C257.551 50.102 257.032 49.9798 256.606 49.6947C256.047 49.3174 255.71 48.7038 255.306 48.1663C253.251 45.4514 246.369 47.0505 243.111 48.1527C242.225 48.4303 241.405 48.8847 240.7 49.4884L240.73 49.4395C240.754 49.3988 240.784 49.3581 240.811 49.3174C240.455 49.6057 240.147 49.9494 239.899 50.3354C239.424 51.0874 239.226 51.9643 238.829 52.7788C238.352 53.7425 235.694 56.4329 236.837 57.5162C236.917 57.5889 237.009 57.6476 237.108 57.6899C237.537 57.8685 238.01 57.9157 238.466 57.8257L238.417 57.9424C238.026 58.8981 237.826 59.9208 237.828 60.9531C237.828 65.4136 241.506 69.0298 246.048 69.0298C246.902 69.0306 247.751 68.8996 248.565 68.6416C248.584 68.7447 248.6 68.8479 248.619 68.951C248.619 68.9918 248.633 69.0325 248.638 69.0732L248.494 69.2741C248.487 69.2617 248.479 69.2499 248.47 69.2388L244.208 75.1952C243.556 75.654 239.804 78.3688 239.592 80.4049C239.37 82.6338 239.147 85.2428 239.147 85.2428L239.117 85.802C238.931 85.9577 238.713 86.071 238.479 86.1343C238.244 86.1976 237.999 86.2093 237.76 86.1685C236.43 85.9513 236.43 91.0552 236.43 91.0552C236.43 91.0552 235.545 91.8697 234.936 91.1638C234.328 90.4579 232.721 92.8497 232.721 92.8497L222.649 93.2841L222.418 93.2977L221.875 91.6172C221.817 91.4399 221.691 91.2929 221.525 91.208C221.358 91.1231 221.165 91.1072 220.988 91.1638C220.946 91.1777 220.905 91.1949 220.865 91.2154L220.827 91.2371L220.757 91.286L220.722 91.3186C220.702 91.3362 220.684 91.3553 220.667 91.3756L220.635 91.4136L220.618 91.4299C220.556 91.5165 220.514 91.6167 220.497 91.7223C220.48 91.8279 220.488 91.936 220.521 92.038L220.988 93.4796C219.044 93.8705 217.056 94.9727 218.677 98.0079L210.462 96.4903L213.12 98.7219L226.841 101.553C226.659 101.879 226.778 102.352 227.346 103.017C229.789 105.886 234.241 106.666 236.033 106.866C236.506 107.925 237.097 108.927 237.795 109.853L237.64 112.711C237.64 112.711 233.104 134.501 232.273 135.606C232.693 135.13 233.076 134.625 233.422 134.093C232.105 138.57 230.264 144.698 229.781 145.615C229.004 147.081 228.285 153.013 229.17 153.393C229.442 153.51 230.218 153.453 231.326 153.369V153.86L231.277 172.481C231.277 172.481 231.499 183.903 230.889 184.991C230.278 186.08 230.115 188.363 230.115 188.363C230.115 188.363 227.671 192.867 225.736 194.678C225.723 194.692 225.708 194.705 225.692 194.716L225.633 194.292C225.633 194.292 223.306 197.23 218.159 197.064C218.159 197.064 215.061 199.078 219.655 199.187C224.248 199.296 230.115 199.024 230.115 199.024C230.115 199.024 234.212 192.78 237.643 193.594V198.326H238.694V193.518C239.181 193.198 239.598 192.781 239.92 192.295C240.241 191.808 240.46 191.261 240.564 190.687C240.654 190.095 240.588 189.49 240.373 188.932C240.158 188.373 239.801 187.881 239.337 187.502C239.129 187.314 238.962 187.085 238.846 186.829C238.731 186.573 238.67 186.295 238.667 186.015L238.629 186.047C238.629 185.952 238.604 185.854 238.593 185.754C238.292 183.311 237.915 178.269 239.248 174.539C241.075 169.424 241.628 162.301 240.298 158.06C239.869 156.705 239.516 155.326 239.242 153.931C239.21 153.754 239.18 153.586 239.153 153.429C240.062 153.552 240.962 153.733 241.848 153.971C244.93 154.821 251.671 154.979 257.426 154.933C257.44 155.09 257.456 155.256 257.475 155.421C257.578 156.572 257.792 157.711 258.116 158.82C258.838 160.992 259.169 170.567 259.169 170.567C259.169 170.567 260.1 178.44 259.593 181.644C259.321 183.425 259.05 185.214 258.895 187.011V187.046C258.895 187.046 257.369 191.39 256.253 193.749C256.226 193.809 256.196 193.869 256.169 193.926C255.872 193.953 255.579 194.018 255.298 194.118C255.298 194.118 253.802 197.105 252.311 197.599C250.821 198.093 251.315 199.719 254.69 199.122C258.064 198.525 263.16 198.036 263.16 198.036L263.38 194.99L264.417 193.692L264.145 196.73L265.25 196.513L265.104 192.818L266.8 190.695C266.8 190.695 268.85 188.871 265.804 185.282V185.36C265.771 185.309 265.742 185.255 265.706 185.203V185.187C265.201 184.405 264.8 182.947 265.535 180.36C266.866 175.685 267.639 171.441 267.639 171.441C267.639 171.441 270.609 160.074 267.039 154.696H267.197C266.831 153.94 266.572 153.135 266.428 152.307C266.41 152.21 266.394 152.109 266.38 152.006C269.021 151.854 271.614 151.376 273.729 150.344C273.721 150.334 272.447 123.359 271.394 119.064ZM237.858 100.25V100.305L237.315 100.332L237.858 100.25ZM235.995 100.508C235.906 100.528 235.822 100.568 235.751 100.625C235.517 100.955 235.371 101.339 235.325 101.741L234.478 101.551C234.478 101.551 233.883 101.423 233.028 101.279L232.623 100.872C233.736 100.78 234.893 100.644 235.995 100.508Z" fill="url(#paint1_linear)"/>
<path d="M264.02 192.856L263.697 196.703L264.78 196.486L264.618 192.313L264.02 192.856Z" fill="#1D2366"/>
<path d="M239.307 174.59C238.001 178.31 238.37 183.33 238.664 185.767C238.772 186.669 238.873 187.217 238.873 187.217C238.873 187.217 236.921 191.664 236.758 191.832C236.595 192.001 231.013 195.408 231.013 195.408L227.112 197.686C227.112 197.686 223.154 195.951 225.052 195.354C225.439 195.198 225.788 194.96 226.075 194.656C227.975 192.85 230.362 188.363 230.362 188.363C230.362 188.363 230.525 186.085 231.122 185.002C231.719 183.919 231.502 172.535 231.502 172.535L231.548 153.979V151.561L238.973 151.615C239.02 152.436 239.127 153.253 239.294 154.058C239.56 155.449 239.905 156.823 240.328 158.174C241.636 162.406 241.093 169.495 239.307 174.59Z" fill="#FFB0B1"/>
<path opacity="0.1" d="M238.873 187.217C238.873 187.217 236.921 191.664 236.758 191.832C236.595 192.001 231.013 195.408 231.013 195.408L227.112 197.686C227.112 197.686 223.154 195.951 225.052 195.354C225.439 195.198 225.789 194.96 226.075 194.656L226.243 195.842L227.544 195.788L238.675 185.773C238.772 186.669 238.873 187.217 238.873 187.217Z" fill="black"/>
<path d="M238.737 186.025L227.544 196.108L226.243 196.163L225.972 194.262C225.972 194.262 223.697 197.189 218.642 197.026C218.642 197.026 215.607 199.032 220.105 199.141C224.604 199.249 230.348 198.978 230.348 198.978C230.348 198.978 234.361 192.734 237.719 193.548V198.264H238.751V193.505C239.23 193.182 239.64 192.765 239.954 192.28C240.269 191.795 240.482 191.251 240.581 190.681C240.67 190.094 240.607 189.495 240.397 188.939C240.187 188.384 239.838 187.892 239.383 187.51C239.18 187.32 239.018 187.09 238.907 186.835C238.796 186.579 238.738 186.304 238.737 186.025Z" fill="#1D2366"/>
<path d="M265.052 180.389C264.33 182.969 264.723 184.421 265.218 185.2V185.216C265.851 186.178 266.292 187.254 266.515 188.385L266.559 188.629L261.466 196.054L258.702 197.14C258.702 197.14 254.258 195.622 255.07 195.188C255.273 195.082 255.591 194.517 255.955 193.738C257.04 191.39 258.539 187.057 258.539 187.057V187.022C258.697 185.233 258.946 183.449 259.223 181.674C259.72 178.478 258.808 170.635 258.808 170.635C258.808 170.635 258.482 161.098 257.776 158.929C257.458 157.826 257.246 156.695 257.144 155.551C256.997 154.194 256.964 153.075 256.964 153.075C256.964 153.075 259.891 149.003 265.256 153.401C265.685 153.752 266.062 154.161 266.377 154.618C270.083 159.89 267.099 171.504 267.099 171.504C267.099 171.504 266.352 175.728 265.052 180.389Z" fill="#FFB0B1"/>
<path opacity="0.1" d="M266.567 188.629L261.474 196.054L258.71 197.14C258.71 197.14 254.266 195.622 255.078 195.188C255.281 195.082 255.599 194.517 255.963 193.738C257.844 193.722 258.819 195.514 258.819 195.514L261.202 195.134C261.202 195.134 264.346 188.955 265.052 188.577C265.758 188.2 265.16 185.756 265.16 185.756V185.135C265.179 185.156 265.196 185.181 265.217 185.203V185.219C265.851 186.181 266.292 187.257 266.515 188.387L266.567 188.629Z" fill="black"/>
<path d="M258.982 195.674C258.982 195.674 257.624 193.182 255.023 194.102C255.023 194.102 253.56 197.088 252.097 197.572C250.633 198.055 251.122 199.684 254.429 199.089C257.735 198.495 262.72 198.003 262.72 198.003L262.937 194.965L266.298 190.684C266.298 190.684 268.302 188.868 265.321 185.292V185.914C265.321 185.914 265.918 188.358 265.212 188.735C264.506 189.112 261.373 195.294 261.373 195.294L258.982 195.674Z" fill="#1D2366"/>
<path opacity="0.1" d="M238.981 151.609C239.028 152.431 239.135 153.247 239.302 154.053C236.245 153.605 233.408 153.827 231.548 153.974V151.555L238.981 151.609Z" fill="black"/>
<path opacity="0.1" d="M266.678 155.293C266.678 155.293 262.334 155.505 257.155 155.548C257.008 154.191 256.975 153.073 256.975 153.073C256.975 153.073 259.902 149 265.266 153.398C265.695 153.749 266.073 154.159 266.388 154.615C266.472 154.846 266.569 155.073 266.678 155.293Z" fill="black"/>
<path d="M266.678 154.805C266.678 154.805 247.653 155.725 241.854 154.099C236.055 152.473 230.308 153.882 229.442 153.504C228.576 153.127 229.279 147.217 230.039 145.754C230.799 144.29 234.969 129.492 234.969 129.492L238.981 108.571L243.208 107.407L243.507 107.322L250.872 105.292L256.27 103.801C256.27 103.801 267.001 145.699 266.081 148.789C265.747 149.972 265.693 151.216 265.923 152.424C266.064 153.249 266.318 154.05 266.678 154.805Z" fill="#1D2366"/>
<path d="M224.995 94.2642C224.995 94.2642 221.194 98.3364 224.072 100.606C226.949 102.876 228.841 100.823 228.841 100.823L224.995 94.2642Z" fill="#C7DAF5"/>
<path opacity="0.1" d="M224.995 94.2642C224.995 94.2642 221.194 98.3364 224.072 100.606C226.949 102.876 228.841 100.823 228.841 100.823L224.995 94.2642Z" fill="black"/>
<path d="M255.702 67.4902C255.702 67.4902 255.257 67.9138 254.586 68.5382C253.631 69.4313 252.216 70.7372 250.962 71.8313C249.224 73.3434 247.791 74.4538 248.304 73.5063C248.817 72.5588 248.719 70.9082 248.464 69.3635C248.445 69.2603 248.429 69.1572 248.41 69.0567C248.199 67.9222 247.918 66.8016 247.571 65.7012C247.571 65.7012 250.378 62.0742 251.931 60.6434C252.509 60.1005 252.914 59.8779 252.938 60.2552C252.965 60.7629 253.346 61.8841 253.818 63.0732C253.831 63.1112 253.845 63.1465 253.861 63.1845C254.176 63.999 254.532 64.8351 254.844 65.5573C255.322 66.6649 255.702 67.4902 255.702 67.4902Z" fill="#FFB0B1"/>
<path opacity="0.1" d="M253.861 63.1847C253.598 64.6036 252.957 65.9256 252.008 67.0126C251.059 68.0995 249.835 68.9115 248.464 69.3637C248.248 68.1244 247.95 66.9009 247.571 65.7014C247.571 65.7014 252.857 58.8736 252.938 60.2554C252.957 60.7794 253.37 61.9413 253.861 63.1847Z" fill="black"/>
<path opacity="0.1" d="M247.938 71.1879L248.622 70.2241C248.622 70.2241 249.075 72.9878 250.742 71.7689C252.409 70.5499 252.49 80.9423 252.49 80.9423L250.701 107.692L237.773 106.918L238.14 93.9925L239.603 87.4769L243.222 78.0048L245.375 74.8746L247.938 71.1879Z" fill="black"/>
<path d="M252.49 81.1082L250.862 105.295L250.691 107.857L243.483 107.426L243.211 107.41L237.781 107.084L238.148 94.1557L239.611 87.6401L243.23 78.168L245.383 75.0378L247.946 71.3375L248.63 70.3765C248.63 70.3765 249.083 73.1402 250.75 71.9212L250.786 71.8968C252.414 70.8651 252.49 81.1082 252.49 81.1082Z" fill="#1D2366"/>
<path d="M239.793 85.376C239.793 85.376 239.144 86.7334 237.841 86.5135C236.538 86.2936 236.541 91.4002 236.541 91.4002C236.541 91.4002 235.675 92.2146 235.077 91.5088C234.48 90.8029 232.906 93.1893 232.906 93.1893L223.04 93.6236C223.04 93.6236 227.43 95.6299 226.569 101.7C226.569 101.7 241.474 100.777 241.962 99.3682C242.451 97.9592 239.793 85.376 239.793 85.376Z" fill="white"/>
<path opacity="0.03" d="M239.793 85.376C239.793 85.376 239.144 86.7334 237.841 86.5135C236.538 86.2936 236.541 91.4002 236.541 91.4002C236.541 91.4002 235.675 92.2146 235.077 91.5088C234.48 90.8029 232.906 93.1893 232.906 93.1893L223.04 93.6236C223.04 93.6236 227.43 95.6299 226.569 101.7C226.569 101.7 241.474 100.777 241.962 99.3682C242.451 97.9592 239.793 85.376 239.793 85.376Z" fill="black"/>
<path d="M211.122 96.8135L213.723 99.0342L235.132 103.533L232.477 100.823L211.122 96.8135Z" fill="white"/>
<path d="M247.978 72.0433C247.623 72.5862 246.604 75.3662 245.755 77.7933C245.046 79.8158 244.454 81.594 244.454 81.594C244.454 81.594 243.073 90.591 242.367 92.2172C241.661 93.8434 242.044 100.185 242.044 100.185L239.413 115.847C239.413 115.847 238.221 123.924 236.38 128.748C234.564 133.496 232.542 135.722 232.479 135.793C233.294 134.691 237.732 112.988 237.732 112.988L239.198 85.6174C239.198 85.6174 239.413 83.0166 239.63 80.7932C239.847 78.5697 244.245 75.5345 244.245 75.5345L248.486 69.5049C248.912 70.075 248.627 71.0686 247.978 72.0433Z" fill="white"/>
<path d="M236.921 107.219C236.921 107.219 230.677 106.948 227.652 103.315C224.628 99.6829 234.643 101.866 234.643 101.866L237.247 102.463L236.921 107.219Z" fill="#FFB0B1"/>
<path opacity="0.1" d="M266.081 148.791C265.747 149.974 265.693 151.219 265.923 152.426C259.112 152.91 251.825 151.069 251.825 151.069C250.468 152.318 246.893 154.159 246.893 154.159L244.943 129.997C243.697 126.739 243.208 109.671 243.208 109.671C243.208 109.671 243.32 108.777 243.48 107.439C243.48 107.406 243.48 107.371 243.494 107.339C243.98 103.6 244.943 96.5823 245.416 95.6349C246.067 94.3317 243.412 90.8649 243.412 90.8649L244.62 80.5621L244.767 79.3187C247.313 78.1812 249.265 74.5488 249.265 74.5488L250.764 71.9235C252.393 70.8783 252.477 81.1214 252.477 81.1214L250.848 105.308L256.245 103.817C256.245 103.817 267.001 145.702 266.081 148.791Z" fill="black"/>
<path d="M273.072 150.461C265.647 154.148 252.151 150.733 252.151 150.733C250.794 151.982 247.218 153.822 247.218 153.822L245.266 129.66C244.023 126.402 243.534 109.334 243.534 109.334C243.534 109.334 245.103 96.599 245.755 95.2986C245.945 94.9185 245.853 94.3538 245.627 93.7457C244.52 90.8512 244.112 87.7358 244.438 84.6537L244.959 80.2258L245.103 78.9852C247.653 77.8449 249.605 74.2125 249.605 74.2125L250.962 71.8343L253.46 67.4525L254.643 65.3784L254.844 65.5603L256.378 66.9503C256.378 66.9503 257.03 67.4933 258.007 68.3077C260.133 70.0995 263.806 73.2541 265.701 75.1844C267.368 76.8839 267.894 83.4945 268.046 88.4708C268.147 91.7476 268.087 94.3158 268.087 94.3158C266.407 97.0822 270.802 119.292 270.802 119.292C271.825 123.584 273.072 150.461 273.072 150.461Z" fill="white"/>
<path opacity="0.03" d="M258.819 74.1583C258.819 74.1583 253.723 83.8584 254.315 87.5452C254.907 91.2319 256.59 95.4046 255.778 96.3792C255.499 96.7485 255.139 97.0482 254.725 97.2549C254.311 97.4617 253.855 97.5699 253.392 97.571C252.577 97.6253 250.405 99.1429 250.405 99.3058C250.405 99.4687 248.399 99.4687 246.605 100.229C244.81 100.989 242.161 101.421 242.161 101.421C242.161 101.421 237.002 101.258 236.522 101.746C236.041 102.235 235.547 105.159 236.576 107.491C237.605 109.823 238.748 111.563 239.611 111.881C240.475 112.199 245.953 110.363 250.397 109.929C254.841 109.495 259.666 105.973 259.666 105.973C259.666 105.973 264.979 104.073 265.91 100.878C266.841 97.6823 264.772 80.1201 264.772 80.1201C264.772 80.1201 263.209 71.9349 258.819 74.1583Z" fill="black"/>
<path opacity="0.03" d="M258.167 73.3436C258.167 73.3436 253.071 83.0464 253.669 86.7304C254.266 90.4145 255.944 94.5899 255.129 95.5672C254.851 95.9369 254.491 96.2369 254.078 96.4438C253.664 96.6506 253.208 96.7585 252.746 96.759C251.931 96.8133 249.759 98.3309 249.759 98.4938C249.759 98.6567 247.753 98.6567 245.958 99.4141C244.164 100.172 241.514 100.606 241.514 100.606C241.514 100.606 236.356 100.443 235.878 100.932C235.4 101.42 234.901 104.347 235.933 106.676C236.964 109.006 238.104 110.749 238.968 111.066C239.831 111.384 245.31 109.549 249.754 109.117C254.198 108.685 259.022 105.159 259.022 105.159C259.022 105.159 264.332 103.258 265.253 100.066C266.173 96.8731 264.115 79.3054 264.115 79.3054C264.115 79.3054 262.557 71.1229 258.167 73.3436Z" fill="black"/>
<path d="M258.659 73.6692C258.659 73.6692 253.563 83.372 254.16 87.056C254.757 90.7401 256.435 94.9155 255.623 95.8901C255.345 96.2606 254.985 96.5614 254.571 96.7688C254.157 96.9761 253.7 97.0842 253.237 97.0846C252.423 97.1389 250.251 98.6565 250.251 98.8167C250.251 98.9769 248.247 98.9796 246.45 99.7397C244.653 100.5 242.006 100.932 242.006 100.932C242.006 100.932 236.848 100.769 236.367 101.257C235.886 101.746 235.392 104.673 236.421 107.002C237.45 109.331 238.593 111.074 239.457 111.392C240.32 111.709 245.798 109.874 250.243 109.44C254.687 109.005 259.511 105.484 259.511 105.484C259.511 105.484 264.824 103.584 265.755 100.389C266.686 97.1932 264.631 79.631 264.631 79.631C264.631 79.631 263.046 71.4593 258.659 73.6692Z" fill="white"/>
<path opacity="0.1" d="M258.547 99.694C258.547 99.694 254.475 98.8795 255.892 100.237C257.309 101.594 257.301 102.783 259.036 102.729C260.771 102.675 258.547 99.694 258.547 99.694Z" fill="black"/>
<path opacity="0.1" d="M265.429 128.9C265.429 128.9 263.589 130.146 267.11 133.018C270.631 135.891 265.429 128.9 265.429 128.9Z" fill="black"/>
<path opacity="0.1" d="M261.916 139.143C261.916 139.306 261.265 145.116 263.703 146.568C266.14 148.021 261.916 139.143 261.916 139.143Z" fill="black"/>
<path d="M223.208 93.6099C221.243 93.6777 216.997 94.2777 219.198 98.3853C221.145 102.02 224.416 99.5906 226.257 97.7473C225.808 96.0286 224.717 94.5478 223.208 93.6099Z" fill="#FFB0B1"/>
<path d="M226.281 97.7145L226.363 97.6304L226.281 97.7145Z" fill="#FFB0B1"/>
<path opacity="0.1" d="M258.007 68.4733C255.922 69.8986 254.174 71.1013 253.832 71.351C252.898 72.0433 251.117 76.1074 249.968 78.1816C249.053 79.8512 246.081 80.2801 244.959 80.386L245.103 79.1453C247.653 78.0051 249.605 74.3726 249.605 74.3726L254.643 65.5386L256.378 67.1159C256.378 67.1159 257.03 67.6589 258.007 68.4733Z" fill="black"/>
<path d="M258.007 68.3102C255.922 69.7355 254.174 70.9382 253.832 71.1907C252.898 71.8802 251.117 75.9443 249.968 78.0185C249.053 79.6881 246.081 80.117 244.959 80.2229L245.103 78.9822C247.653 77.842 249.605 74.2096 249.605 74.2096L254.643 65.3755L256.378 66.9474C256.378 66.9474 257.03 67.4849 258.007 68.3102Z" fill="#DCE7FF"/>
<path d="M253.995 61.3926C253.996 63.0223 253.501 64.6139 252.577 65.9563C251.486 67.5434 249.862 68.6868 248 69.179C246.137 69.6711 244.16 69.4794 242.427 68.6386C240.694 67.7978 239.32 66.3636 238.554 64.5963C237.788 62.829 237.681 60.8456 238.252 59.0061C238.824 57.1665 240.035 55.5927 241.668 54.5702C243.3 53.5476 245.245 53.1441 247.149 53.4328C249.054 53.7215 250.792 54.6833 252.047 56.1437C253.303 57.6042 253.994 59.4664 253.995 61.3926Z" fill="#FFB0B1"/>
<path opacity="0.1" d="M268.046 88.4731C266.944 87.7949 266.046 86.8304 265.448 85.6823C264.995 84.7864 264.693 83.752 263.92 83.1167C263.222 82.5466 262.291 82.4082 261.422 82.153C258.566 81.3087 256.172 78.7024 256.082 75.727C256.039 74.3261 256.476 72.928 256.277 71.5407C256.165 70.7555 255.853 70.0124 255.371 69.3824C255.131 69.0811 254.869 68.7988 254.586 68.5381C254.206 68.1797 253.807 67.8322 253.459 67.4521C253.241 67.2168 253.049 66.9572 252.889 66.6784C252.76 66.4503 252.656 66.2091 252.577 65.959C252.034 64.2975 252.528 62.3265 251.931 60.6461L251.898 60.5538C251.673 59.9565 251.214 59.3592 250.576 59.3131C249.938 59.2669 249.393 59.7963 248.785 60.0325C247.511 60.5266 246.138 59.685 245.076 58.8271C244.015 57.9692 242.817 56.9892 241.468 57.1792C240.575 57.3068 239.869 57.9149 239.046 58.2299C238.861 58.3018 238.669 58.3572 238.474 58.3955C239.17 56.6594 240.449 55.2199 242.091 54.3243C243.733 53.4288 245.636 53.1331 247.472 53.4881C249.309 53.843 250.964 54.8265 252.155 56.2695C253.345 57.7125 253.995 59.5249 253.994 61.3954C253.995 61.9602 253.936 62.5235 253.818 63.0758C253.831 63.1138 253.845 63.1491 253.861 63.1871C254.176 64.0016 254.532 64.8378 254.844 65.5599L256.378 66.9499C256.378 66.9499 257.03 67.4929 258.007 68.3073C260.133 70.0991 263.806 73.2537 265.701 75.184C267.368 76.8889 267.889 83.4968 268.046 88.4731Z" fill="black"/>
<path d="M238.952 53.2702C239.34 52.4802 239.533 51.5951 239.997 50.8458C240.678 49.7599 241.867 49.0649 243.089 48.6441C246.279 47.5446 253.02 45.9483 255.034 48.6441C255.431 49.1871 255.759 49.7898 256.308 50.1644C256.726 50.4495 257.231 50.5716 257.689 50.7861C258.974 51.3888 259.793 52.7028 260.23 54.0439C260.668 55.385 260.798 56.8239 261.118 58.2058C261.528 59.9785 262.248 61.659 262.964 63.3286C263.809 65.2996 264.705 67.3439 266.333 68.7366C268.557 70.637 269.048 73.3274 271.112 75.4124C273.555 77.8883 273.476 81.9741 272.216 85.2183C272.051 85.6446 271.864 86.0898 271.929 86.5432C271.994 86.9966 272.331 87.4092 272.648 87.7703L273.984 89.277C270.824 90.0399 267.248 88.3893 265.777 85.4925C265.324 84.5966 265.022 83.565 264.246 82.927C263.551 82.3569 262.617 82.2212 261.751 81.966C258.895 81.1189 256.5 78.51 256.411 75.5345C256.367 74.1364 256.804 72.7383 256.606 71.3537C256.496 70.5633 256.183 69.815 255.697 69.1818C254.95 68.2072 253.824 67.5529 253.215 66.467C252.186 64.6508 252.968 62.2916 252.227 60.3423C251.999 59.7451 251.543 59.1478 250.905 59.1017C250.267 59.0555 249.721 59.5849 249.111 59.8211C247.84 60.3152 246.466 59.4763 245.405 58.6157C244.343 57.7551 243.146 56.7778 241.794 56.9705C240.901 57.0954 240.198 57.7035 239.375 58.0211C238.767 58.2546 237.535 58.4637 237.002 57.9506C235.878 56.9162 238.482 54.2367 238.952 53.2702Z" fill="#591D4B"/>
<path opacity="0.1" d="M266.532 84.5965C266.075 83.7006 265.777 82.669 265 82.0337C264.305 81.4636 263.371 81.3252 262.503 81.07C259.649 80.2257 257.255 77.6167 257.163 74.6412C257.119 73.2431 257.556 71.8422 257.361 70.4577C257.247 69.6723 256.934 68.9293 256.451 68.2994C255.702 67.3248 254.575 66.6705 253.97 65.5845C252.941 63.771 253.723 61.4118 252.979 59.4599C252.754 58.8653 252.295 58.2681 251.66 58.2192C251.024 58.1703 250.473 58.7052 249.865 58.9414C248.595 59.4355 247.218 58.5939 246.159 57.736C245.101 56.8781 243.898 55.898 242.549 56.0881C241.656 56.2157 240.95 56.8238 240.13 57.1387C239.522 57.3722 238.286 57.5839 237.754 57.0708C236.636 55.9849 239.239 53.3108 239.706 52.3497C240.095 51.557 240.287 50.6747 240.754 49.9254C240.779 49.8847 240.806 49.8439 240.833 49.8032C240.484 50.0926 240.182 50.4352 239.94 50.8186C239.476 51.5679 239.283 52.4475 238.895 53.2429C238.425 54.204 235.821 56.8862 236.943 57.964C237.486 58.4798 238.707 58.2681 239.315 58.0346C240.13 57.717 240.841 57.1088 241.734 56.984C243.092 56.7912 244.286 57.7713 245.345 58.6291C246.404 59.487 247.788 60.3286 249.053 59.8345C249.662 59.5983 250.194 59.0662 250.845 59.1151C251.497 59.164 251.931 59.7585 252.167 60.3558C252.909 62.305 252.127 64.6642 253.156 66.4804C253.764 67.5474 254.89 68.2152 255.637 69.1953C256.123 69.8284 256.436 70.5767 256.546 71.3672C256.745 72.7517 256.308 74.1499 256.351 75.548C256.441 78.5343 258.835 81.1324 261.691 81.9794C262.552 82.2346 263.491 82.3704 264.186 82.9405C264.965 83.5785 265.272 84.6101 265.717 85.506C267.189 88.4027 270.764 90.0534 273.924 89.2905L273.294 88.5792C270.555 88.6199 267.783 87.0616 266.532 84.5965Z" fill="black"/>
<path opacity="0.1" d="M247.815 72.2061C247.46 72.7491 246.442 75.5291 245.592 77.9562C244.797 77.6467 244.074 75.673 244.074 75.673L248.315 69.6406C248.749 70.2379 248.464 71.2288 247.815 72.2061Z" fill="black"/>
<path d="M247.978 72.0433C247.623 72.5862 246.605 75.3662 245.755 77.7933C244.959 77.4865 244.237 75.5101 244.237 75.5101L248.478 69.4805C248.912 70.075 248.627 71.0686 247.978 72.0433Z" fill="#DCE7FF"/>
<path d="M223.322 99.7782L220.971 92.364C220.943 92.2772 220.933 92.1857 220.94 92.0949C220.948 92.004 220.973 91.9156 221.015 91.8346C221.057 91.7537 221.115 91.6818 221.184 91.623C221.254 91.5643 221.335 91.52 221.422 91.4925C221.597 91.4379 221.786 91.4546 221.949 91.539C222.112 91.6234 222.234 91.7687 222.29 91.9432L224.641 99.3492L224.408 100.899L223.322 99.7782Z" fill="#BE8B87"/>
<path opacity="0.1" d="M221.194 91.7123C221.369 91.6569 221.559 91.6731 221.723 91.7576C221.886 91.8421 222.009 91.9878 222.065 92.163L224.416 99.569L224.24 100.731L224.411 100.91L224.644 99.36L222.28 91.9539C222.224 91.7794 222.101 91.6342 221.938 91.5498C221.775 91.4653 221.586 91.4486 221.411 91.5033C221.264 91.551 221.137 91.6466 221.05 91.7747C221.096 91.75 221.144 91.7291 221.194 91.7123Z" fill="white"/>
<path d="M223.322 99.7779L224.642 99.3599L224.449 100.63L224.408 100.91L224.023 100.508L223.322 99.7779Z" fill="#EFC8C4"/>
<path d="M224.023 100.508C224.046 100.479 224.074 100.455 224.107 100.437C224.126 100.425 224.148 100.419 224.171 100.419C224.193 100.419 224.215 100.425 224.234 100.437C224.253 100.46 224.268 100.484 224.281 100.511C224.299 100.541 224.323 100.566 224.352 100.585C224.381 100.605 224.414 100.617 224.449 100.622L224.408 100.894L224.023 100.508Z" fill="#727A9C"/>
<path d="M220.958 94.9971C220.958 94.9971 225.673 94.9699 224.563 96.9762C223.452 98.9824 221.718 99.2241 221.718 99.2241L220.958 94.9971Z" fill="#FFB0B1"/>
<path d="M191.629 4.95996H191.426C183.325 4.95996 176.16 9.24668 172.039 15.5722C167.918 9.24668 160.753 4.95996 152.652 4.95996H152.449C146.369 5.0179 140.558 7.47281 136.278 11.7912C131.998 16.1096 129.596 21.9426 129.593 28.0225C129.593 35.5724 132.899 46.2852 139.347 55.1002C151.632 71.8969 172.039 86.5923 172.039 86.5923C172.039 86.5923 192.446 71.8996 204.728 55.1002C211.179 46.2852 214.483 35.5724 214.483 28.0225C214.479 21.943 212.077 16.1105 207.798 11.7922C203.519 7.47384 197.708 5.01861 191.629 4.95996ZM188.716 56.3925C187.794 56.389 186.894 56.1066 186.134 55.5823C185.375 55.0581 184.792 54.3166 184.462 53.455H179.619C179.3 53.4531 178.989 53.3515 178.731 53.1646C178.473 52.9777 178.279 52.7148 178.177 52.4125L176.689 47.9303L171.982 64.3795C171.89 64.6962 171.698 64.9745 171.435 65.1728C171.172 65.3711 170.851 65.4785 170.521 65.479H170.426C170.082 65.4624 169.755 65.3283 169.498 65.099C169.241 64.8697 169.07 64.5592 169.015 64.2194L164.163 35.0403L160.618 52.3067C160.536 52.6347 160.348 52.926 160.081 53.1341C159.815 53.3423 159.487 53.4553 159.149 53.455H152.327C152.122 53.4637 151.918 53.4309 151.726 53.3586C151.535 53.2863 151.36 53.176 151.212 53.0344C151.064 52.8927 150.947 52.7226 150.867 52.5344C150.786 52.3461 150.745 52.1435 150.745 51.9388C150.745 51.7341 150.786 51.5315 150.867 51.3433C150.947 51.155 151.064 50.9849 151.212 50.8433C151.36 50.7016 151.535 50.5913 151.726 50.519C151.918 50.4467 152.122 50.4139 152.327 50.4226H157.954L162.977 27.208C163.059 26.8648 163.258 26.5609 163.54 26.3482C163.822 26.1355 164.169 26.0273 164.521 26.0421C164.874 26.0568 165.211 26.1936 165.474 26.4291C165.737 26.6645 165.91 26.984 165.963 27.3329L170.918 57.0983L175.137 42.3812C175.224 42.0713 175.41 41.798 175.666 41.6023C175.922 41.4066 176.234 41.2989 176.556 41.2953H176.586C176.905 41.2954 177.216 41.3962 177.475 41.5834C177.733 41.7706 177.926 42.0346 178.025 42.3378L180.716 50.4307H184.402C184.664 49.6344 185.141 48.9259 185.781 48.3835C186.42 47.8412 187.197 47.486 188.025 47.3572C188.854 47.2284 189.702 47.3311 190.476 47.6537C191.249 47.9764 191.919 48.5066 192.41 49.1858C192.902 49.8651 193.196 50.6669 193.261 51.5028C193.325 52.3387 193.158 53.1762 192.776 53.9228C192.395 54.6695 191.815 55.2962 191.1 55.734C190.385 56.1717 189.563 56.4033 188.724 56.4034L188.716 56.3925Z" fill="#8BC34B"/>
</g>
<defs>
<linearGradient id="paint0_linear" x1="96.7378" y1="201.364" x2="96.7378" y2="34.3099" gradientUnits="userSpaceOnUse">
<stop stop-color="#808080" stop-opacity="0.25"/>
<stop offset="0.54" stop-color="#808080" stop-opacity="0.12"/>
<stop offset="1" stop-color="#808080" stop-opacity="0.1"/>
</linearGradient>
<linearGradient id="paint1_linear" x1="60599.3" y1="126036" x2="60599.3" y2="40285.3" gradientUnits="userSpaceOnUse">
<stop stop-color="#808080" stop-opacity="0.25"/>
<stop offset="0.54" stop-color="#808080" stop-opacity="0.12"/>
<stop offset="1" stop-color="#808080" stop-opacity="0.1"/>
</linearGradient>
<clipPath id="clip0">
<rect width="300" height="212.501" fill="white"/>
</clipPath>
</defs>
</svg>
