<svg viewBox="0 0 300 211" fill="none" xmlns="http://www.w3.org/2000/svg">
<g clip-path="url(#clip0)">
<path d="M180.595 210.098H0V1.28906L180.595 57.3581V210.098Z" fill="#F2F2F2"/>
<path d="M158.707 136.306H16.811V202.364H158.707V136.306Z" fill="#3F3D56"/>
<path d="M127.977 123.948C138.875 123.948 147.709 115.12 147.709 104.231C147.709 93.3424 138.875 84.5151 127.977 84.5151C117.079 84.5151 108.245 93.3424 108.245 104.231C108.245 115.12 117.079 123.948 127.977 123.948Z" fill="#8BC34B"/>
<path d="M127.798 139.887L127.96 104.123" stroke="#3F3D56" stroke-width="2" stroke-miterlimit="10"/>
<path d="M127.96 109.181C130.756 109.181 133.022 106.916 133.022 104.123C133.022 101.33 130.756 99.0654 127.96 99.0654C125.165 99.0654 122.898 101.33 122.898 104.123C122.898 106.916 125.165 109.181 127.96 109.181Z" fill="#3F3D56"/>
<path d="M127.86 126.165C127.86 126.165 127.207 110.622 112.376 112.361L127.86 126.165Z" fill="#3F3D56"/>
<path d="M45.3178 84.3631C56.2154 84.3631 65.0496 75.5359 65.0496 64.6469C65.0496 53.7579 56.2154 44.9307 45.3178 44.9307C34.4202 44.9307 25.5859 53.7579 25.5859 64.6469C25.5859 75.5359 34.4202 84.3631 45.3178 84.3631Z" fill="#8BC34B"/>
<path d="M44.2002 137.435L45.3358 64.6255" stroke="#3F3D56" stroke-width="2" stroke-miterlimit="10"/>
<path d="M45.336 69.6831C48.1315 69.6831 50.3976 67.4187 50.3976 64.6255C50.3976 61.8322 48.1315 59.5679 45.336 59.5679C42.5406 59.5679 40.2744 61.8322 40.2744 64.6255C40.2744 67.4187 42.5406 69.6831 45.336 69.6831Z" fill="#3F3D56"/>
<path d="M45.0149 85.2202C45.0149 85.2202 44.5342 69.6711 29.6846 71.2464L45.0149 85.2202Z" fill="#3F3D56"/>
<path d="M44.2219 136.044C44.2219 136.044 47.9415 106.216 29.166 104.478" stroke="#3F3D56" stroke-width="2" stroke-miterlimit="10"/>
<path d="M29.1661 109.536C31.9615 109.536 34.2277 107.271 34.2277 104.478C34.2277 101.685 31.9615 99.4204 29.1661 99.4204C26.3707 99.4204 24.1045 101.685 24.1045 104.478C24.1045 107.271 26.3707 109.536 29.1661 109.536Z" fill="#3F3D56"/>
<path d="M87.7509 40.5921C98.6485 40.5921 107.483 31.7649 107.483 20.8759C107.483 9.98693 98.6485 1.15967 87.7509 1.15967C76.8533 1.15967 68.019 9.98693 68.019 20.8759C68.019 31.7649 76.8533 40.5921 87.7509 40.5921Z" fill="#8BC34B"/>
<path d="M87.7632 140.242V20.9487" stroke="#3F3D56" stroke-width="2" stroke-miterlimit="10"/>
<path d="M87.7633 25.9497C90.5587 25.9497 92.8249 23.6853 92.8249 20.8921C92.8249 18.0988 90.5587 15.8345 87.7633 15.8345C84.9678 15.8345 82.7017 18.0988 82.7017 20.8921C82.7017 23.6853 84.9678 25.9497 87.7633 25.9497Z" fill="#3F3D56"/>
<path d="M72.2169 112.259C75.0123 112.259 77.2785 109.995 77.2785 107.202C77.2785 104.408 75.0123 102.144 72.2169 102.144C69.4214 102.144 67.1553 104.408 67.1553 107.202C67.1553 109.995 69.4214 112.259 72.2169 112.259Z" fill="#3F3D56"/>
<path d="M87.7632 46.7267C87.7632 46.7267 87.0401 31.187 72.2168 32.9933L87.7632 46.7267Z" fill="#3F3D56"/>
<path d="M87.7632 90.78C87.7632 90.78 87.0401 75.2402 72.2168 77.0465L87.7632 90.78Z" fill="#3F3D56"/>
<path d="M87.7632 138.852C87.7632 138.852 91.0171 108.647 72.2168 107.202" stroke="#3F3D56" stroke-width="2" stroke-miterlimit="10"/>
<path d="M103.62 64.8169C106.416 64.8169 108.682 62.5525 108.682 59.7593C108.682 56.966 106.416 54.7017 103.62 54.7017C100.825 54.7017 98.5586 56.966 98.5586 59.7593C98.5586 62.5525 100.825 64.8169 103.62 64.8169Z" fill="#3F3D56"/>
<path d="M88.0736 89.7984C88.0736 89.7984 84.8197 61.2043 103.62 59.7593" stroke="#3F3D56" stroke-width="2" stroke-miterlimit="10"/>
<path d="M129.964 48.3356C128.561 48.3356 127.189 47.9198 126.022 47.1409C124.856 46.3619 123.946 45.2547 123.409 43.9593C122.872 42.6639 122.732 41.2385 123.005 39.8634C123.279 38.4882 123.955 37.225 124.947 36.2336C125.939 35.2422 127.204 34.567 128.58 34.2934C129.956 34.0199 131.383 34.1603 132.679 34.6969C133.975 35.2334 135.083 36.1421 135.863 37.3079C136.643 38.4737 137.059 39.8443 137.059 41.2464C137.057 43.1259 136.308 44.9279 134.978 46.2569C133.648 47.5859 131.845 48.3335 129.964 48.3356ZM129.964 34.8017C128.688 34.8017 127.441 35.1797 126.381 35.8878C125.32 36.596 124.493 37.6025 124.005 38.7801C123.517 39.9577 123.389 41.2536 123.638 42.5037C123.887 43.7539 124.501 44.9022 125.403 45.8035C126.305 46.7048 127.455 47.3186 128.706 47.5673C129.957 47.816 131.254 47.6883 132.432 47.2006C133.611 46.7128 134.618 45.8867 135.327 44.8269C136.035 43.7671 136.414 42.5211 136.414 41.2464C136.412 39.5378 135.732 37.8997 134.522 36.6915C133.313 35.4833 131.674 34.8037 129.964 34.8017Z" fill="#3F3D56"/>
<path d="M18.3819 14.1784C16.9787 14.1784 15.607 13.7626 14.4403 12.9836C13.2735 12.2047 12.3642 11.0975 11.8272 9.80211C11.2902 8.50673 11.1497 7.08133 11.4234 5.70616C11.6972 4.33099 12.3729 3.06782 13.3651 2.07638C14.3574 1.08494 15.6215 0.409757 16.9978 0.13622C18.374 -0.137318 19.8006 0.00307254 21.097 0.539636C22.3934 1.0762 23.5014 1.98484 24.281 3.15065C25.0606 4.31646 25.4767 5.68708 25.4767 7.08919C25.4746 8.96871 24.7264 10.7706 23.3963 12.0997C22.0663 13.4287 20.2629 14.1763 18.3819 14.1784ZM18.3819 0.644475C17.1063 0.644475 15.8593 1.02245 14.7986 1.7306C13.7379 2.43876 12.9112 3.44529 12.4231 4.6229C11.9349 5.80052 11.8072 7.09634 12.056 8.34649C12.3049 9.59665 12.9192 10.745 13.8212 11.6463C14.7232 12.5476 15.8725 13.1614 17.1236 13.4101C18.3748 13.6587 19.6716 13.5311 20.8501 13.0433C22.0287 12.5555 23.036 11.7295 23.7447 10.6697C24.4535 9.60986 24.8317 8.36384 24.8317 7.08919C24.8298 5.38055 24.1496 3.74244 22.9405 2.53425C21.7313 1.32605 20.0919 0.646429 18.3819 0.644475Z" fill="#3F3D56"/>
<path d="M180.595 119.227C179.192 119.227 177.82 118.811 176.653 118.032C175.486 117.253 174.577 116.146 174.04 114.851C173.503 113.556 173.363 112.13 173.636 110.755C173.91 109.38 174.586 108.117 175.578 107.125C176.57 106.134 177.834 105.459 179.211 105.185C180.587 104.912 182.013 105.052 183.31 105.588C184.606 106.125 185.714 107.034 186.494 108.199C187.274 109.365 187.69 110.736 187.69 112.138C187.687 114.018 186.939 115.819 185.609 117.148C184.279 118.478 182.476 119.225 180.595 119.227ZM180.595 105.693C179.319 105.693 178.072 106.071 177.011 106.779C175.951 107.488 175.124 108.494 174.636 109.672C174.148 110.849 174.02 112.145 174.269 113.395C174.518 114.645 175.132 115.794 176.034 116.695C176.936 117.596 178.085 118.21 179.337 118.459C180.588 118.708 181.885 118.58 183.063 118.092C184.242 117.604 185.249 116.778 185.958 115.719C186.666 114.659 187.045 113.413 187.045 112.138C187.043 110.429 186.363 108.791 185.153 107.583C183.944 106.375 182.305 105.695 180.595 105.693Z" fill="#3F3D56"/>
<path d="M150.604 63.8024C152.919 63.8024 154.796 61.9269 154.796 59.6134C154.796 57.2998 152.919 55.4243 150.604 55.4243C148.288 55.4243 146.411 57.2998 146.411 59.6134C146.411 61.9269 148.288 63.8024 150.604 63.8024Z" fill="#3F3D56"/>
<path d="M183.497 140.173C185.812 140.173 187.689 138.297 187.689 135.983C187.689 133.67 185.812 131.794 183.497 131.794C181.182 131.794 179.305 133.67 179.305 135.983C179.305 138.297 181.182 140.173 183.497 140.173Z" fill="#3F3D56"/>
<path d="M180.595 210.098V136.306H150.603C150.603 170.831 122.593 198.819 88.04 198.819C53.4873 198.819 25.4768 170.831 25.4768 136.306H0V210.098H180.595Z" fill="#3F3D56"/>
<path d="M88.0398 198.819C122.593 198.819 150.603 170.831 150.603 136.306H25.4766C25.4766 170.831 53.4871 198.819 88.0398 198.819Z" fill="#8BC34B"/>
<path d="M265.662 162.586C296.495 147.002 308.847 109.394 293.251 78.5859L181.596 135.02C197.192 165.828 234.83 178.17 265.662 162.586Z" fill="#3F3D56"/>
<path d="M267.924 46.2419C268.132 46.1009 268.333 45.9503 268.528 45.793C268.121 47.0102 267.465 48.1295 266.602 49.0799C266.4 49.3021 266.185 49.51 265.964 49.7112C265.959 49.6602 265.954 49.6092 265.952 49.5583C265.926 49.0654 265.962 48.5466 265.969 48.0389C266.737 47.5811 267.403 46.9693 267.924 46.2419Z" fill="url(#paint0_linear)"/>
<path d="M270.95 28.2634C271.42 27.473 271.69 26.5807 271.739 25.663C271.788 24.7452 271.613 23.8293 271.23 22.9937C270.847 22.1581 270.267 21.4277 269.54 20.8649C268.813 20.3022 267.96 19.924 267.055 19.7627C266.149 19.6013 265.218 19.6616 264.341 19.9384C263.464 20.2153 262.667 20.7004 262.018 21.3522C261.37 22.004 260.889 22.8032 260.618 23.6812C260.346 24.5592 260.291 25.49 260.458 26.3937C258.831 27.1681 257.469 28.4061 256.544 29.9519C255.619 31.4977 255.172 33.2823 255.26 35.0812C254.482 36.2736 253.994 37.631 253.834 39.0451C253.674 40.4593 253.847 41.8912 254.339 43.2269C254.83 44.5627 255.627 45.7653 256.666 46.739C257.704 47.7128 258.956 48.4308 260.322 48.8359C261.687 49.2411 263.128 49.3221 264.53 49.0726C265.933 48.8231 267.257 48.25 268.399 47.3988C269.54 46.5477 270.467 45.442 271.105 44.1698C271.744 42.8977 272.076 41.4941 272.076 40.071C272.076 39.9252 272.072 39.7804 272.065 39.6363C273.2 37.8961 273.708 35.8216 273.505 33.7543C273.303 31.6871 272.401 29.7505 270.95 28.2634Z" fill="#2F2E41"/>
<g opacity="0.1">
<path opacity="0.1" d="M260.382 24.9503C260.407 24.9379 260.432 24.9236 260.457 24.9113C260.439 24.8128 260.427 24.7127 260.414 24.6128C260.411 24.6337 260.407 24.6542 260.404 24.6751C260.393 24.7673 260.388 24.8587 260.382 24.9503Z" fill="black"/>
<path opacity="0.1" d="M273.482 34.258C273.316 35.6482 272.83 36.9813 272.064 38.1535C272.071 38.2976 272.075 38.4424 272.075 38.5882C272.076 40.9491 271.162 43.2187 269.525 44.9216C267.889 46.6245 265.656 47.6287 263.295 47.724C260.934 47.8192 258.628 46.9981 256.859 45.4325C255.091 43.867 253.997 41.6784 253.807 39.3251C253.787 39.5712 253.774 39.8196 253.774 40.0709C253.774 42.4958 254.738 44.8214 256.455 46.5361C258.171 48.2508 260.498 49.2141 262.925 49.2141C265.352 49.2141 267.679 48.2508 269.395 46.5361C271.111 44.8214 272.075 42.4958 272.075 40.0709C272.075 39.9251 272.071 39.7803 272.064 39.6362C273.174 37.9373 273.685 35.9171 273.515 33.8955C273.506 34.0162 273.497 34.1367 273.482 34.258Z" fill="black"/>
<path opacity="0.1" d="M271.7 24.6064C271.601 25.3749 271.346 26.115 270.949 26.7808C271.109 26.945 271.26 27.1171 271.408 27.2926C271.72 26.4337 271.82 25.5123 271.7 24.6064H271.7Z" fill="black"/>
</g>
<path d="M234.076 126.36C234.12 126.88 234.261 127.388 234.492 127.856C234.61 128.089 234.781 128.291 234.992 128.445C235.203 128.599 235.447 128.701 235.705 128.743C236.179 128.746 236.644 128.612 237.044 128.356C237.858 127.93 238.704 127.436 239.129 126.622C239.541 125.834 239.481 124.893 239.412 124.007L238.865 117.035C237.547 116.999 236.223 116.999 234.906 117.071C233.602 117.142 233.373 117.449 233.554 118.721C233.916 121.253 233.74 123.826 234.076 126.36Z" fill="#FBBEBE"/>
<path d="M272.74 131.072L275.876 136.134C276.011 136.429 276.255 136.659 276.558 136.775C276.783 136.808 277.012 136.768 277.213 136.661C278.259 136.205 279.059 135.338 279.827 134.494C280.348 133.922 280.887 133.318 281.083 132.569C281.184 132.163 281.18 131.738 281.07 131.334C280.96 130.931 280.749 130.561 280.456 130.262C280.09 129.944 279.694 129.661 279.274 129.418C276.795 127.747 275.676 124.573 273.229 122.857C273.088 122.739 272.916 122.665 272.734 122.644C272.552 122.654 272.376 122.713 272.224 122.814C271.109 123.425 269.994 124.036 268.879 124.647C267.43 125.438 267.89 125.531 268.99 126.384C270.61 127.641 271.622 129.397 272.74 131.072Z" fill="#FBBEBE"/>
<path d="M240.882 122.328C240.423 122.183 239.908 122.053 239.475 122.263C239.273 122.387 239.101 122.555 238.974 122.756C238.847 122.956 238.768 123.183 238.742 123.418C238.655 123.884 238.665 124.367 238.536 124.822C238.318 125.59 237.732 126.19 237.168 126.755C236.94 127.026 236.644 127.233 236.309 127.352C235.857 127.467 235.376 127.256 234.916 127.336C234.649 127.405 234.405 127.545 234.211 127.743C234.017 127.94 233.881 128.186 233.818 128.455C233.698 128.995 233.68 129.551 233.764 130.097L234.12 133.983C234.183 134.457 234.188 134.936 234.134 135.411C234.003 136.265 233.506 137.015 233.231 137.834C232.955 138.653 232.97 139.699 233.66 140.22C233.901 140.38 234.179 140.478 234.467 140.503C234.755 140.529 235.046 140.481 235.311 140.365C235.839 140.127 236.307 139.772 236.678 139.328C238.79 137.027 239.733 133.909 241.376 131.253C241.795 130.639 242.17 129.995 242.499 129.328C242.724 128.812 242.867 128.264 243.05 127.732C243.302 127.02 243.604 126.327 243.954 125.658C244.15 125.276 244.898 124.354 244.741 123.927C244.472 123.198 241.594 122.552 240.882 122.328Z" fill="#2F2E41"/>
<path d="M278.966 133.046C278.491 133.936 277.698 134.616 276.744 134.949C276.468 135.023 276.21 135.156 275.989 135.339C275.844 135.516 275.754 135.732 275.731 135.959C275.707 136.187 275.751 136.416 275.857 136.619C276.075 137.02 276.359 137.383 276.697 137.691C278.593 139.695 279.847 142.22 280.298 144.942C280.41 145.628 280.484 146.358 280.895 146.919C281.698 148.016 283.408 147.944 284.616 147.319C284.985 147.15 285.305 146.891 285.547 146.565C285.748 146.212 285.876 145.822 285.923 145.418C286.141 144.418 286.262 143.399 286.282 142.375C286.259 140.443 285.533 138.597 285.186 136.696C284.694 133.998 284.94 131.093 283.683 128.655C283.558 128.369 283.36 128.121 283.109 127.934C282.794 127.769 282.442 127.69 282.087 127.705C280.951 127.659 279.814 127.649 278.677 127.675C278.358 127.682 277.986 127.723 277.821 127.995C277.652 128.274 277.8 128.629 277.948 128.919C278.652 130.295 279.792 131.395 278.966 133.046Z" fill="#2F2E41"/>
<path d="M251.985 84.6949C251.667 84.9568 251.452 85.3221 251.376 85.7267C251.301 86.1313 251.371 86.5495 251.573 86.908C251.825 87.3249 252.277 87.7131 252.178 88.1899C252.075 88.6849 251.466 88.853 250.966 88.9324C246.563 89.6323 242.277 90.9205 238.007 92.2051L233.529 93.5525C232.237 93.941 230.923 94.34 229.808 95.0968C228.784 95.7939 227.973 96.7611 227.467 97.8909C226.955 99.038 226.779 100.302 226.596 101.544C225.923 106.117 225.065 110.736 223.022 114.883L233.885 118.442C234.938 118.828 236.029 119.103 237.14 119.26C238.198 119.348 239.264 119.297 240.31 119.107C240.242 116.684 240.201 114.187 240.134 111.763C240.127 110.998 240.077 110.233 239.985 109.473C239.822 108.312 239.461 107.182 239.349 106.015C239.85 105.602 240.578 105.704 241.227 105.723C242.709 105.766 244.156 105.252 245.474 104.573C246.792 103.895 248.017 103.049 249.328 102.357C251.511 101.203 253.994 100.427 255.661 98.6056C254.812 101.839 252.806 104.656 252.418 107.976C252.026 111.331 253.393 114.613 254.73 117.715L259.003 127.625C259.475 128.719 260.104 129.949 261.267 130.21C261.992 130.372 262.74 130.1 263.412 129.786C267.345 127.945 270.492 124.485 274.692 123.378C274.379 121.3 272.735 119.582 271.805 117.698C271.02 116.109 270.764 114.319 270.241 112.625C269.718 110.932 268.819 109.216 267.239 108.411C266.489 108.029 265.478 107.696 265.408 106.857C265.403 106.588 265.46 106.321 265.575 106.078C266.137 104.663 267.011 103.392 268.131 102.36C268.275 102.249 268.39 102.104 268.467 101.939C268.508 101.776 268.517 101.606 268.492 101.439C268.413 100.09 269.136 98.8278 269.942 97.7428C270.749 96.6579 271.681 95.6252 272.136 94.3523C272.918 92.1636 272.142 89.7583 271.369 87.5665C271.056 86.6806 270.727 85.7673 270.086 85.0811C269.079 84.005 267.512 83.6949 266.046 83.5344C261.309 83.0154 255.749 81.7745 251.985 84.6949Z" fill="#2F2E41"/>
<g opacity="0.1">
<path opacity="0.1" d="M251.492 85.3495C251.652 85.3171 251.799 85.2426 251.92 85.1337C252.041 85.0249 252.13 84.8856 252.179 84.7305C252.191 84.6698 252.195 84.6077 252.19 84.5459C252.121 84.5953 252.053 84.6431 251.986 84.6951C251.768 84.8675 251.598 85.0929 251.492 85.3495Z" fill="black"/>
</g>
<path d="M259.471 50.3928C259.528 51.4739 259.201 52.631 258.369 53.3248C258.102 53.5473 257.793 53.7159 257.536 53.9501C257.308 54.1843 257.133 54.4653 257.025 54.7736C256.916 55.0819 256.876 55.4101 256.908 55.7354C256.939 56.0607 257.041 56.3753 257.206 56.6573C257.372 56.9393 257.597 57.1819 257.865 57.3682C258.729 57.8948 259.827 57.7527 260.824 57.5799C262.154 57.3942 263.457 57.0544 264.708 56.5673C265.966 56.0736 267.037 55.1972 267.769 54.0622C266.683 53.4574 266.092 52.1872 266.026 50.9471C265.96 49.7054 266.301 48.2963 265.514 47.333C264.756 46.4053 263.33 46.4121 262.175 46.7305C261.595 46.8904 261.033 47.1114 260.453 47.2678C260.158 47.3471 259.186 47.3492 258.994 47.5657C258.644 47.9593 259.439 49.7672 259.471 50.3928Z" fill="#FBBEBE"/>
<path opacity="0.1" d="M259.471 50.3928C259.528 51.4739 259.201 52.631 258.369 53.3248C258.102 53.5473 257.793 53.7159 257.536 53.9501C257.308 54.1843 257.133 54.4653 257.025 54.7736C256.916 55.0819 256.876 55.4101 256.908 55.7354C256.939 56.0607 257.041 56.3753 257.206 56.6573C257.372 56.9393 257.597 57.1819 257.865 57.3682C258.729 57.8948 259.827 57.7527 260.824 57.5799C262.154 57.3942 263.457 57.0544 264.708 56.5673C265.966 56.0736 267.037 55.1972 267.769 54.0622C266.683 53.4574 266.092 52.1872 266.026 50.9471C265.96 49.7054 266.301 48.2963 265.514 47.333C264.756 46.4053 263.33 46.4121 262.175 46.7305C261.595 46.8904 261.033 47.1114 260.453 47.2678C260.158 47.3471 259.186 47.3492 258.994 47.5657C258.644 47.9593 259.439 49.7672 259.471 50.3928Z" fill="black"/>
<path d="M262.802 50.3265C266.353 50.3265 269.232 47.4499 269.232 43.9015C269.232 40.3531 266.353 37.4766 262.802 37.4766C259.251 37.4766 256.372 40.3531 256.372 43.9015C256.372 47.4499 259.251 50.3265 262.802 50.3265Z" fill="#FBBEBE"/>
<path d="M242.497 93.1948C242.382 93.7024 242.177 94.1854 241.892 94.6213C241.142 95.9523 240.871 97.4997 241.125 99.0059C241.26 99.7529 241.578 100.455 242.049 101.05C242.52 101.646 243.131 102.116 243.827 102.42C244.429 102.657 245.175 102.719 245.671 102.305C244.812 101.188 244.767 99.6635 244.818 98.256C244.803 97.9933 244.866 97.7319 244.998 97.5045C245.034 97.4504 245.08 97.404 245.134 97.3684C245.188 97.3327 245.248 97.3085 245.312 97.2972C245.375 97.2859 245.441 97.2878 245.504 97.3027C245.567 97.3176 245.626 97.3453 245.677 97.384C245.656 98.2702 245.827 99.1506 246.18 99.964C246.316 100.277 246.548 100.622 246.889 100.613C247.379 100.601 247.511 99.9381 247.493 99.449C247.417 97.4564 247.319 95.3809 246.358 93.6334C246.006 92.9938 245.537 92.3931 245.403 91.6755C245.397 91.4267 245.311 91.1865 245.157 90.9902C245.051 90.9071 244.928 90.8494 244.796 90.8218C244.242 90.6655 242.932 90.1789 242.475 90.697C241.985 91.2526 242.586 92.5306 242.497 93.1948Z" fill="#FBBEBE"/>
<path d="M252.047 59.0577C251.31 58.9748 250.727 59.6492 250.323 60.2712C248.818 62.5903 247.735 65.1569 247.123 67.8526C246.812 69.2285 246.616 70.6576 245.962 71.9079C245.805 72.1675 245.678 72.4443 245.585 72.7331C245.529 73.174 245.509 73.6187 245.526 74.0628C245.457 74.8656 244.983 75.5788 244.823 76.3686C244.728 76.8393 244.748 77.3266 244.663 77.7993C244.515 78.6273 244.06 79.3636 243.769 80.1527C243.256 81.5419 243.26 83.0673 242.883 84.4992C242.837 84.7353 242.735 84.9568 242.585 85.1452C242.329 85.4259 241.92 85.4945 241.586 85.6744C241.322 85.8355 241.096 86.0509 240.923 86.3064C240.75 86.5618 240.634 86.8512 240.582 87.1553C240.482 87.7635 240.47 88.3829 240.547 88.9944L240.843 92.7949C241.148 92.6672 241.347 92.3227 241.601 92.1117C242.065 91.7254 242.748 91.812 243.343 91.9198L244.21 92.0768C245.096 92.2373 246.06 92.4419 246.629 93.1401C247.081 92.4341 246.822 91.3934 247.517 90.9236C247.743 90.7708 248.022 90.7192 248.261 90.5863C248.485 90.4413 248.671 90.2443 248.803 90.0122C248.934 89.78 249.008 89.5195 249.017 89.2528C249.031 88.7198 248.958 88.1881 248.8 87.6787C249.913 87.209 250.603 86.0828 251.039 84.9566C251.518 83.5934 251.865 82.1873 252.074 80.7578C253.08 75.1099 253.999 69.4216 254.09 63.6858C254.154 62.7263 254.048 61.7632 253.777 60.8404C253.46 59.9348 253.001 59.165 252.047 59.0577Z" fill="#D0CDE1"/>
<path d="M268.257 52.9067C267.196 54.0191 265.839 54.8063 264.346 55.1763C262.861 55.5413 261.345 55.7645 259.818 55.8429C259.348 55.9215 258.866 55.8799 258.417 55.7221C257.985 55.5266 257.657 55.0157 257.833 54.5758C257.918 54.4398 257.976 54.2883 258.002 54.1301C257.995 53.7387 257.418 53.7063 257.044 53.8219C254.569 54.5869 252.195 56.1018 251.052 58.4255C250.407 59.7381 250.194 61.2141 249.99 62.6622C249.452 66.4709 248.915 70.3624 249.636 74.1407C250.021 76.1555 250.761 78.1194 250.807 80.1699C250.833 81.319 250.639 82.4636 250.648 83.6129C250.613 84.0155 250.721 84.4174 250.952 84.7488C251.13 84.9555 251.399 85.0859 251.523 85.3287C251.731 85.7348 251.453 86.2923 251.727 86.6575C252.063 87.1072 252.767 86.7843 253.231 86.4671C255.564 84.8839 258.382 84.1751 261.187 84.4656C264.557 84.827 267.906 86.6217 271.174 85.7248C271.006 85.4796 270.861 85.2194 270.74 84.9475C269.111 79.5963 269.221 73.6148 271.66 68.5802C272.493 66.8603 273.599 65.2211 273.918 63.337C274.047 62.4557 274.057 61.5612 273.949 60.6772C273.777 58.9668 273.369 57.2422 272.439 55.7962C271.509 54.3502 269.969 53.0761 268.257 52.9067Z" fill="#D0CDE1"/>
<path d="M252.702 94.8481C252.44 95.5469 252.314 96.2891 252.332 97.035C252.307 97.7485 252.343 98.4627 252.438 99.1703C252.493 99.775 252.708 100.354 253.063 100.847C253.244 101.09 253.493 101.274 253.779 101.375C254.065 101.477 254.374 101.492 254.668 101.418C254.899 101.322 255.106 101.175 255.274 100.989C255.441 100.803 255.565 100.582 255.636 100.342C255.775 99.8618 255.876 99.372 255.94 98.8766C256.222 97.4182 256.989 96.0494 257.002 94.5642C257.013 94.388 256.985 94.2116 256.92 94.0474C256.641 93.4369 255.276 92.7518 254.608 92.8545C253.773 92.9831 253.005 94.143 252.702 94.8481Z" fill="#FBBEBE"/>
<path opacity="0.1" d="M271.258 58.3311C271.13 59.6085 272.367 60.5713 272.856 61.7585C273.056 62.3127 273.17 62.8943 273.193 63.4829C273.537 67.5675 273.27 71.676 273.003 75.7663C272.955 77.1281 272.786 78.4828 272.498 79.8148C271.808 82.61 270.11 85.0329 268.446 87.3833C267.874 88.3256 267 89.0464 265.965 89.4279L260.256 92.1914C259.541 92.5071 258.861 92.8977 258.228 93.3567C257.493 93.932 256.916 94.6832 256.549 95.5407C255.442 94.9751 254.291 94.4674 253.184 93.9018C252.925 93.7694 252.635 93.5967 252.59 93.3092C252.53 92.9236 252.933 92.6512 253.211 92.3767C253.73 91.8631 253.891 91.1019 254.172 90.428C255.091 88.2263 257.402 86.8171 258.235 84.5818C258.556 83.7227 258.653 82.7519 259.222 82.032C259.546 81.6711 259.912 81.3488 260.311 81.0714C261.191 80.325 261.999 79.498 262.726 78.6012C263.052 78.263 263.319 77.8724 263.515 77.4456C263.765 76.8112 263.69 76.1039 263.703 75.4224C263.746 73.1913 264.755 71.1105 265.373 68.9662C265.956 66.9468 266.198 64.8285 266.962 62.8704C267.726 60.9124 269.222 58.8575 271.258 58.3311Z" fill="black"/>
<path d="M271.999 58.3311C271.872 59.6085 273.108 60.5713 273.597 61.7585C273.797 62.3127 273.911 62.8943 273.935 63.4829C274.278 67.5675 274.011 71.676 273.744 75.7663C273.696 77.1281 273.527 78.4828 273.239 79.8148C272.549 82.61 270.851 85.0329 269.187 87.3833C268.616 88.3256 267.741 89.0464 266.706 89.4279L260.997 92.1914C260.282 92.5071 259.602 92.8977 258.969 93.3567C258.235 93.932 257.657 94.6832 257.29 95.5407C256.183 94.9751 255.033 94.4674 253.925 93.9018C253.666 93.7694 253.376 93.5967 253.331 93.3092C253.271 92.9236 253.675 92.6512 253.952 92.3767C254.472 91.8631 254.632 91.1019 254.913 90.428C255.832 88.2263 258.143 86.8171 258.976 84.5818C259.297 83.7227 259.395 82.7519 259.963 82.032C260.288 81.6711 260.653 81.3488 261.052 81.0714C261.932 80.325 262.741 79.498 263.467 78.6012C263.793 78.263 264.06 77.8724 264.257 77.4456C264.506 76.8112 264.432 76.1039 264.445 75.4224C264.487 73.1913 265.497 71.1105 266.115 68.9662C266.697 66.9468 266.94 64.8285 267.703 62.8704C268.467 60.9124 269.963 58.8575 271.999 58.3311Z" fill="#D0CDE1"/>
<path d="M265.99 33.9691C264.009 33.7271 262.003 34.1421 260.281 35.1502C260.535 35.1596 260.79 35.1769 261.047 35.2079C262.949 35.4375 264.732 36.2583 266.143 37.5546C267.554 38.8508 268.521 40.557 268.91 42.4324C269.298 44.3078 269.087 46.2577 268.307 48.0068C267.526 49.756 266.216 51.2162 264.561 52.1813C266.919 52.2672 269.22 51.4391 270.982 49.8698C272.744 48.3005 273.831 46.1115 274.015 43.7603C274.2 41.4091 273.468 39.0775 271.973 37.2529C270.477 35.4283 268.334 34.2517 265.99 33.9691Z" fill="#2F2E41"/>
<path d="M268.806 39.052C269.028 39.5548 269.149 40.0965 269.161 40.646C269.173 41.1955 269.077 41.7421 268.878 42.2544C268.835 42.122 268.784 41.9918 268.728 41.8645C267.597 39.3499 264.113 38.309 260.946 39.5396C259.08 40.2646 257.742 41.6164 257.187 43.1188C256.381 40.6879 258.018 37.8949 261.023 36.7271C264.19 35.4965 267.674 36.5374 268.806 39.052Z" fill="#2F2E41"/>
<g opacity="0.1">
<path opacity="0.1" d="M268.823 42.0548C268.677 40.2899 268.021 38.6053 266.936 37.2052C265.85 35.8051 264.382 34.7497 262.708 34.167C261.856 34.3766 261.039 34.7077 260.281 35.1501C260.535 35.1596 260.79 35.1769 261.047 35.2079C262.883 35.4299 264.61 36.203 265.998 37.4253C267.387 38.6477 268.371 40.2618 268.823 42.0548Z" fill="black"/>
<path opacity="0.1" d="M270.306 35.3829C270.16 33.618 269.505 31.9334 268.419 30.5333C267.334 29.1333 265.865 28.0779 264.192 27.4951C263.34 27.7048 262.522 28.0359 261.765 28.4783C262.018 28.4877 262.273 28.505 262.53 28.536C264.367 28.758 266.093 29.5311 267.482 30.7535C268.87 31.9758 269.855 33.5899 270.306 35.3829Z" fill="black"/>
<path opacity="0.1" d="M270.345 25.4171C270.256 24.352 269.861 23.3353 269.206 22.4903C268.551 21.6454 267.664 21.0084 266.654 20.6567C266.14 20.7833 265.647 20.9831 265.189 21.2501C265.343 21.2558 265.496 21.2662 265.651 21.2849C266.76 21.4189 267.802 21.8855 268.64 22.6232C269.478 23.3609 270.072 24.335 270.345 25.4171Z" fill="black"/>
<path opacity="0.1" d="M273.767 40.8159C273.945 43.0086 273.326 45.1918 272.024 46.9658C270.723 48.7398 268.825 49.9858 266.678 50.4756C266.061 51.1458 265.347 51.7206 264.561 52.1812C265.979 52.233 267.391 51.9542 268.683 51.3668C269.975 50.7795 271.113 49.8997 272.006 48.7971C272.899 47.6945 273.523 46.3994 273.829 45.0141C274.134 43.6289 274.113 42.1916 273.767 40.8159V40.8159Z" fill="black"/>
</g>
<path d="M245.304 99.3997L244.121 63.6548" stroke="#8BC34B" stroke-width="2" stroke-miterlimit="10"/>
<path d="M244.121 68.7124C246.917 68.7124 249.183 66.448 249.183 63.6548C249.183 60.8615 246.917 58.5972 244.121 58.5972C241.326 58.5972 239.06 60.8615 239.06 63.6548C239.06 66.448 241.326 68.7124 244.121 68.7124Z" fill="#8BC34B"/>
<path d="M244.851 85.6849C244.851 85.6849 243.614 70.1775 228.858 72.4724L244.851 85.6849Z" fill="#8BC34B"/>
</g>
<defs>
<linearGradient id="paint0_linear" x1="267.235" y1="49.7112" x2="267.235" y2="45.793" gradientUnits="userSpaceOnUse">
<stop stop-color="#808080" stop-opacity="0.25"/>
<stop offset="0.53514" stop-color="#808080" stop-opacity="0.12"/>
<stop offset="1" stop-color="#808080" stop-opacity="0.1"/>
</linearGradient>
<clipPath id="clip0">
<rect width="300" height="210.098" fill="white"/>
</clipPath>
</defs>
</svg>
