<svg viewBox="0 0 300 162" fill="none" xmlns="http://www.w3.org/2000/svg">
<g clip-path="url(#clip0)">
<path d="M64.847 161.104H64.1715C64.1715 152.684 60.8267 144.609 54.8728 138.655C48.9189 132.701 40.8436 129.356 32.4235 129.356C24.0034 129.356 15.9282 132.701 9.97427 138.655C4.02036 144.609 0.67549 152.684 0.67549 161.104H0C1.28139e-07 152.505 3.41604 144.258 9.49662 138.177C15.5772 132.097 23.8243 128.681 32.4235 128.681C41.0228 128.681 49.2698 132.097 55.3504 138.177C61.431 144.258 64.847 152.505 64.847 161.104Z" fill="#3F3D56"/>
<path d="M299.918 161.104H299.242C299.242 152.684 295.897 144.609 289.943 138.655C283.989 132.701 275.914 129.356 267.494 129.356C259.074 129.356 250.999 132.701 245.045 138.655C239.091 144.609 235.746 152.684 235.746 161.104H235.071C235.071 152.505 238.487 144.258 244.567 138.177C250.648 132.097 258.895 128.681 267.494 128.681C276.093 128.681 284.34 132.097 290.421 138.177C296.502 144.258 299.918 152.505 299.918 161.104Z" fill="#3F3D56"/>
<path d="M220.548 83.7608H219.872C219.872 51.7286 193.812 25.6687 161.78 25.6687C129.748 25.6687 103.688 51.7286 103.688 83.7608H103.012C103.012 51.3562 129.375 24.9932 161.78 24.9932C194.185 24.9932 220.548 51.3562 220.548 83.7608Z" fill="#3F3D56"/>
<path d="M49.142 26.6819C56.5099 26.6819 62.4829 20.7089 62.4829 13.3409C62.4829 5.97294 56.5099 0 49.142 0C41.774 0 35.801 5.97294 35.801 13.3409C35.801 20.7089 41.774 26.6819 49.142 26.6819Z" fill="#FF6584"/>
<path d="M51.9758 105.169L74.8955 77.873H119.957L147.495 104.695L146.939 105.053H147.137V160.843H52.0072V105.053L51.9758 105.169Z" fill="#3F3D56"/>
<path d="M65.7654 93.3018H70.9609V75.3173H65.7654V93.3018Z" fill="#3F3D56"/>
<path d="M74.5383 77.5151L102.791 110.639V160.843H52.0073V104.337L74.5383 77.5151Z" fill="#8BC34B"/>
<path d="M96.2619 117.212H85.8906V127.817H96.2619V117.212Z" fill="#3F3D56"/>
<path d="M96.2619 131.642H85.8906V142.247H96.2619V131.642Z" fill="#3F3D56"/>
<path d="M96.2619 117.212H85.8906V127.817H96.2619V117.212Z" fill="white"/>
<path d="M96.2619 131.642H85.8906V142.247H96.2619V131.642Z" fill="white"/>
<path d="M81.9184 117.212H71.5471V127.817H81.9184V117.212Z" fill="#3F3D56"/>
<path d="M81.9184 131.642H71.5471V142.247H81.9184V131.642Z" fill="#3F3D56"/>
<path d="M81.9184 117.212H71.5471V127.817H81.9184V117.212Z" fill="white"/>
<path d="M81.9184 131.642H71.5471V142.247H81.9184V131.642Z" fill="white"/>
<path d="M67.5749 117.212H57.2036V127.817H67.5749V117.212Z" fill="#3F3D56"/>
<path d="M67.5749 131.642H57.2036V142.247H67.5749V131.642Z" fill="#3F3D56"/>
<path d="M67.5749 117.212H57.2036V127.817H67.5749V117.212Z" fill="white"/>
<path d="M67.5749 131.642H57.2036V142.247H67.5749V131.642Z" fill="white"/>
<path d="M168.535 13.5098H163.806V25.3308H168.535V13.5098Z" fill="#8BC34B"/>
<path d="M168.197 24.3179H128.005V161.105H168.197V24.3179Z" fill="#8BC34B"/>
<path d="M184.409 24.3179H168.197V161.105H184.409V24.3179Z" fill="#3F3D56"/>
<path d="M141.346 36.1387H135.267V42.2181H141.346V36.1387Z" fill="white"/>
<path d="M151.141 36.1387H145.062V42.2181H151.141V36.1387Z" fill="white"/>
<path d="M160.935 36.1387H154.856V42.2181H160.935V36.1387Z" fill="white"/>
<path d="M141.515 49.9863H135.436V56.0657H141.515V49.9863Z" fill="white"/>
<path d="M151.31 49.9863H145.23V56.0657H151.31V49.9863Z" fill="white"/>
<path d="M161.104 49.9863H155.025V56.0657H161.104V49.9863Z" fill="white"/>
<path d="M141.684 63.834H135.604V69.9134H141.684V63.834Z" fill="white"/>
<path d="M151.479 63.834H145.399V69.9134H151.479V63.834Z" fill="white"/>
<path d="M161.273 63.834H155.194V69.9134H161.273V63.834Z" fill="white"/>
<path d="M141.853 77.6812H135.773V83.7606H141.853V77.6812Z" fill="white"/>
<path d="M151.648 77.6812H145.568V83.7606H151.648V77.6812Z" fill="white"/>
<path d="M161.442 77.6812H155.363V83.7606H161.442V77.6812Z" fill="white"/>
<path d="M142.022 91.5288H135.942V97.6082H142.022V91.5288Z" fill="white"/>
<path d="M151.816 91.5288H145.737V97.6082H151.816V91.5288Z" fill="white"/>
<path d="M161.611 91.5288H155.531V97.6082H161.611V91.5288Z" fill="white"/>
<path d="M142.191 105.376H136.111V111.456H142.191V105.376Z" fill="white"/>
<path d="M151.985 105.376H145.906V111.456H151.985V105.376Z" fill="white"/>
<path d="M161.78 105.376H155.7V111.456H161.78V105.376Z" fill="white"/>
<path d="M142.359 119.224H136.28V125.304H142.359V119.224Z" fill="white"/>
<path d="M152.154 119.224H146.075V125.304H152.154V119.224Z" fill="white"/>
<path d="M161.949 119.224H155.869V125.304H161.949V119.224Z" fill="white"/>
<path d="M142.528 133.071H136.449V139.151H142.528V133.071Z" fill="white"/>
<path d="M152.323 133.071H146.244V139.151H152.323V133.071Z" fill="white"/>
<path d="M152.323 149.283H146.244V160.767H152.323V149.283Z" fill="white"/>
<path d="M162.118 133.071H156.038V139.151H162.118V133.071Z" fill="white"/>
<path d="M170.899 13.5098H168.197V24.9931H170.899V13.5098Z" fill="#3F3D56"/>
<path d="M219.196 73.6284H214.468V80.6345H219.196V73.6284Z" fill="#8BC34B"/>
<path d="M218.859 80.0342H178.667V161.105H218.859V80.0342Z" fill="#8BC34B"/>
<path d="M235.071 80.0342H218.859V161.105H235.071V80.0342Z" fill="#3F3D56"/>
<path d="M192.683 91.5288H186.604V97.6082H192.683V91.5288Z" fill="white"/>
<path d="M202.478 91.5288H196.399V97.6082H202.478V91.5288Z" fill="white"/>
<path d="M212.273 91.5288H206.193V97.6082H212.273V91.5288Z" fill="white"/>
<path d="M192.852 105.376H186.773V111.456H192.852V105.376Z" fill="white"/>
<path d="M202.647 105.376H196.568V111.456H202.647V105.376Z" fill="white"/>
<path d="M212.442 105.376H206.362V111.456H212.442V105.376Z" fill="white"/>
<path d="M193.021 119.224H186.942V125.304H193.021V119.224Z" fill="white"/>
<path d="M202.816 119.224H196.737V125.304H202.816V119.224Z" fill="white"/>
<path d="M212.61 119.224H206.531V125.304H212.61V119.224Z" fill="white"/>
<path d="M193.19 133.071H187.111V139.151H193.19V133.071Z" fill="white"/>
<path d="M202.985 133.071H196.905V139.151H202.985V133.071Z" fill="white"/>
<path d="M202.985 149.283H196.905V160.767H202.985V149.283Z" fill="white"/>
<path d="M212.779 133.071H206.7V139.151H212.779V133.071Z" fill="white"/>
<path d="M221.561 73.6284H218.859V80.4343H221.561V73.6284Z" fill="#3F3D56"/>
<path d="M300 160.696H0.0825195V161.453H300V160.696Z" fill="#3F3D56"/>
<path d="M247.452 145.258C252.309 145.258 256.247 141.32 256.247 136.463C256.247 131.605 252.309 127.667 247.452 127.667C242.595 127.667 238.657 131.605 238.657 136.463C238.657 141.32 242.595 145.258 247.452 145.258Z" fill="#8BC34B"/>
<path opacity="0.2" d="M253.995 130.588C254.815 132.507 254.926 134.656 254.308 136.649C253.691 138.643 252.384 140.352 250.623 141.471C248.861 142.59 246.759 143.046 244.692 142.757C242.625 142.469 240.728 141.455 239.339 139.897C239.841 141.069 240.591 142.119 241.538 142.973C242.485 143.826 243.606 144.464 244.824 144.841C246.042 145.219 247.327 145.327 248.591 145.158C249.855 144.99 251.067 144.548 252.143 143.864C253.22 143.181 254.134 142.271 254.824 141.199C255.514 140.127 255.963 138.917 256.139 137.655C256.315 136.392 256.214 135.106 255.844 133.886C255.474 132.665 254.843 131.54 253.995 130.588Z" fill="black"/>
<path d="M247.476 136.463H247.501L247.935 161.398H247.017L247.476 136.463Z" fill="#3F3D56"/>
<path d="M249.078 150.045L248.875 149.66L247.421 150.426L247.624 150.81L249.078 150.045Z" fill="#3F3D56"/>
<path d="M273.31 136.854C280.696 136.854 286.684 130.866 286.684 123.479C286.684 116.093 280.696 110.105 273.31 110.105C265.923 110.105 259.935 116.093 259.935 123.479C259.935 130.866 265.923 136.854 273.31 136.854Z" fill="#8BC34B"/>
<path opacity="0.2" d="M283.258 114.546C284.506 117.465 284.675 120.731 283.736 123.763C282.796 126.794 280.81 129.393 278.131 131.095C275.452 132.796 272.255 133.49 269.112 133.051C265.969 132.613 263.084 131.071 260.972 128.702C261.734 130.484 262.875 132.08 264.315 133.379C265.755 134.677 267.46 135.647 269.312 136.221C271.165 136.795 273.119 136.959 275.041 136.702C276.963 136.446 278.806 135.775 280.443 134.735C282.08 133.695 283.471 132.312 284.52 130.682C285.569 129.051 286.251 127.212 286.519 125.292C286.787 123.371 286.634 121.416 286.071 119.56C285.508 117.705 284.548 115.994 283.258 114.546Z" fill="black"/>
<path d="M273.346 123.479H273.383L274.044 161.398H272.648L273.346 123.479Z" fill="#3F3D56"/>
<path d="M275.781 144.134L275.473 143.548L273.263 144.712L273.571 145.298L275.781 144.134Z" fill="#3F3D56"/>
<path d="M9.00406 144.92C13.8614 144.92 17.7991 140.983 17.7991 136.125C17.7991 131.268 13.8614 127.33 9.00406 127.33C4.14667 127.33 0.208984 131.268 0.208984 136.125C0.208984 140.983 4.14667 144.92 9.00406 144.92Z" fill="#8BC34B"/>
<path opacity="0.2" d="M15.5465 130.25C16.3669 132.17 16.4782 134.318 15.8605 136.311C15.2428 138.305 13.9364 140.014 12.1747 141.133C10.413 142.252 8.31083 142.708 6.24382 142.419C4.17681 142.131 2.27965 141.117 0.891357 139.559C1.39251 140.731 2.14257 141.781 3.08958 142.635C4.03659 143.488 5.1579 144.126 6.37582 144.504C7.59375 144.881 8.87917 144.989 10.143 144.82C11.4069 144.652 12.6189 144.21 13.6952 143.527C14.7715 142.843 15.6863 141.933 16.3763 140.861C17.0662 139.789 17.5148 138.579 17.6909 137.317C17.867 136.054 17.7664 134.768 17.3961 133.548C17.0259 132.328 16.3948 131.202 15.5466 130.25H15.5465Z" fill="black"/>
<path d="M9.02833 136.125H9.05265L9.48733 161.06H8.56934L9.02833 136.125Z" fill="#3F3D56"/>
<path d="M10.6299 149.707L10.4272 149.322L8.97338 150.088L9.176 150.473L10.6299 149.707Z" fill="#3F3D56"/>
<path d="M204.813 12.61L207.922 10.1232C205.507 9.85672 204.514 11.174 204.108 12.2167C202.221 11.4331 200.167 12.46 200.167 12.46L206.388 14.7184C206.074 13.8802 205.528 13.1488 204.813 12.61Z" fill="#3F3D56"/>
<path d="M48.7749 25.1065L51.8841 22.6198C49.4687 22.3533 48.4763 23.6706 48.0701 24.7133C46.1831 23.9297 44.1289 24.9566 44.1289 24.9566L50.3498 27.215C50.036 26.3767 49.4897 25.6453 48.7749 25.1065Z" fill="#3F3D56"/>
<path d="M252.097 37.941L255.207 35.4543C252.791 35.1878 251.799 36.5051 251.393 37.5477C249.506 36.7642 247.451 37.7911 247.451 37.7911L253.672 40.0495C253.358 39.2112 252.812 38.4798 252.097 37.941Z" fill="#3F3D56"/>
<path d="M74.4436 18.3516L77.5528 15.8649C75.1374 15.5984 74.145 16.9157 73.7388 17.9584C71.8518 17.1748 69.7976 18.2017 69.7976 18.2017L76.0185 20.4601C75.7047 19.6219 75.1584 18.8905 74.4436 18.3516Z" fill="#3F3D56"/>
<path d="M80.1851 45.3712L83.2943 42.8844C80.8789 42.618 79.8864 43.9353 79.4803 44.9779C77.5933 44.1943 75.5391 45.2212 75.5391 45.2212L81.76 47.4796C81.4461 46.6414 80.8998 45.91 80.1851 45.3712Z" fill="#3F3D56"/>
<path d="M201.098 59.5567L204.207 57.07C201.792 56.8035 200.799 58.1208 200.393 59.1634C198.506 58.3799 196.452 59.4068 196.452 59.4068L202.673 61.6652C202.359 60.8269 201.813 60.0955 201.098 59.5567Z" fill="#3F3D56"/>
<path d="M35.801 154.012H14.8608V154.687H18.1265V161.104H18.802V154.687H31.5221V161.104H32.1976V154.687H35.801V154.012Z" fill="#3F3D56"/>
<path d="M57.0788 156.714C56.2523 156.713 55.4404 156.931 54.7249 157.345C53.9983 156.688 53.0965 156.256 52.1291 156.101C51.1617 155.947 50.1702 156.077 49.2751 156.475C48.3799 156.873 47.6196 157.522 47.0863 158.344C46.553 159.166 46.2698 160.125 46.271 161.104H61.7902C61.7056 159.912 61.1726 158.797 60.2984 157.982C59.4242 157.167 58.2738 156.714 57.0788 156.714Z" fill="#3F3D56"/>
<path d="M137.124 156.714C136.298 156.713 135.486 156.931 134.771 157.345C134.044 156.688 133.142 156.256 132.175 156.101C131.207 155.947 130.216 156.077 129.321 156.475C128.426 156.873 127.665 157.522 127.132 158.344C126.599 159.166 126.315 160.125 126.317 161.104H141.836C141.751 159.912 141.218 158.797 140.344 157.982C139.47 157.167 138.319 156.714 137.124 156.714Z" fill="#3F3D56"/>
<path d="M189.475 156.714C188.649 156.713 187.837 156.931 187.121 157.345C186.395 156.688 185.493 156.256 184.525 156.101C183.558 155.947 182.566 156.077 181.671 156.475C180.776 156.873 180.016 157.522 179.483 158.344C178.949 159.166 178.666 160.125 178.667 161.104H194.186C194.102 159.912 193.569 158.797 192.695 157.982C191.82 157.167 190.67 156.714 189.475 156.714Z" fill="#3F3D56"/>
<path d="M258.375 156.714C257.548 156.713 256.737 156.931 256.021 157.345C255.294 156.688 254.393 156.256 253.425 156.101C252.458 155.947 251.466 156.077 250.571 156.475C249.676 156.873 248.916 157.522 248.382 158.344C247.849 159.166 247.566 160.125 247.567 161.104H263.086C263.002 159.912 262.469 158.797 261.595 157.982C260.72 157.167 259.57 156.714 258.375 156.714Z" fill="#3F3D56"/>
<path d="M291.474 156.714C290.647 156.713 289.835 156.931 289.12 157.345C288.393 156.688 287.492 156.256 286.524 156.101C285.557 155.947 284.565 156.077 283.67 156.475C282.775 156.873 282.015 157.522 281.481 158.344C280.948 159.166 280.665 160.125 280.666 161.104H296.185C296.101 159.912 295.568 158.797 294.693 157.982C293.819 157.167 292.669 156.714 291.474 156.714Z" fill="#3F3D56"/>
<path d="M43.5692 137.462H38.1653V142.866H40.6703V161.075H41.3458V142.866H43.5692V137.462Z" fill="#3F3D56"/>
<path d="M35.8423 151.991H14.9021V152.666H35.8423V151.991Z" fill="#3F3D56"/>
<path d="M35.8423 150.302H14.9021V150.978H35.8423V150.302Z" fill="#3F3D56"/>
<path d="M35.8423 148.613H14.9021V149.289H35.8423V148.613Z" fill="#3F3D56"/>
</g>
<defs>
<clipPath id="clip0">
<rect width="300" height="161.453" fill="white"/>
</clipPath>
</defs>
</svg>
