<svg viewBox="0 0 300 239" fill="none" xmlns="http://www.w3.org/2000/svg">
<g clip-path="url(#clip0)">
<path opacity="0.1" d="M175.939 40.3057C156.957 39.6457 138.875 33.5187 121.611 26.8138C104.347 20.1089 87.2479 12.6796 68.7201 9.12776C56.8033 6.84294 43.1736 6.52031 33.5739 12.9084C24.332 19.0677 21.3461 29.6706 19.7418 39.5196C18.5334 46.9284 17.8236 54.7243 21.135 61.6609C23.4315 66.4769 27.5113 70.5245 30.33 75.1527C40.1467 91.2022 33.2102 110.994 22.5721 126.665C17.586 134.018 11.7933 141.037 7.94523 148.856C4.09712 156.676 2.31385 165.648 5.68094 173.631C9.02164 181.551 16.9789 187.487 25.5961 191.667C43.1032 200.158 63.7252 202.586 83.8486 203.962C128.38 207.009 173.147 205.689 217.796 204.369C234.321 203.88 250.916 203.384 267.17 200.829C276.198 199.41 285.516 197.16 292.072 191.722C300.39 184.821 302.452 173.133 296.879 164.481C287.526 149.965 261.683 146.36 255.136 130.78C251.54 122.207 255.236 112.657 260.463 104.703C271.678 87.6444 290.476 72.6773 291.468 53.1786C292.148 39.7836 283.108 26.3739 269.136 20.0356C254.491 13.3689 234.177 14.2136 223.378 25.2095C212.25 36.5397 192.698 40.8864 175.939 40.3057Z" fill="#8BC34B"/>
<path d="M127.718 202.524L27.3267 202.035L17.3516 178.638L52.6239 176.077L46.4764 150.425L116.241 141.383L49.4358 118.159L55.337 116.757L162.758 134.282L156.843 174.315L148.387 196.315L127.718 202.524Z" fill="#8BC34B"/>
<path d="M28.8662 192.235C28.8662 192.235 35.0255 191.25 38.7211 195.602C38.7211 195.602 36.011 197.738 30.1802 194.781L28.8662 192.235Z" fill="#8BC34B"/>
<path d="M28.2218 192.139C28.2218 192.139 24.2916 196.975 26.2274 202.36C26.2274 202.36 29.4302 201.078 29.7793 194.55L28.2218 192.139Z" fill="#8BC34B"/>
<path d="M24.6904 184.187C24.6904 184.187 27.1542 179.667 37.0091 185.994C37.0091 185.994 35.6951 189.033 31.3425 188.786C26.9899 188.54 25.8402 186.569 24.6904 184.187Z" fill="#8BC34B"/>
<path d="M24.0532 183.862C24.0532 183.862 18.941 183.275 18.4453 194.978C18.4453 194.978 21.6863 195.65 23.9887 191.948C26.2911 188.247 25.3467 186.17 24.0532 183.862Z" fill="#8BC34B"/>
<path d="M21.0762 174.526C21.0762 174.526 23.9505 166.56 34.3803 172.226C34.3803 172.226 31.9987 179.535 22.1438 177.236L21.0762 174.526Z" fill="#8BC34B"/>
<path d="M17.874 162.618C17.874 162.618 23.2942 154.569 32.9028 162.031C32.9028 162.031 29.5357 169.587 18.6953 165.48L17.874 162.618Z" fill="#8BC34B"/>
<path d="M16.7236 151.285C16.7236 151.285 23.0472 143.891 32.5619 151.285C32.5619 151.285 26.5668 157.773 16.7236 153.174V151.285Z" fill="#8BC34B"/>
<path d="M15.7383 140.277C15.7383 140.277 22.144 132.557 31.2598 139.867C31.2598 139.867 24.0328 146.683 15.7383 142.084V140.277Z" fill="#8BC34B"/>
<path d="M16.3135 130.504C16.3135 130.504 23.0594 120.567 31.5886 127.301C31.5886 127.301 24.3617 135.842 16.3135 132.393V130.504Z" fill="#8BC34B"/>
<path d="M17.874 119.089C17.874 119.089 25.0188 109.234 33.3134 116.789C33.3134 116.789 24.8546 125.33 17.874 120.896V119.089Z" fill="#8BC34B"/>
<path d="M20.2553 108.885C20.2553 108.885 28.7141 99.6225 36.0936 103.312C36.0936 103.312 27.2799 113.15 19.8857 111.343L20.2553 108.885Z" fill="#8BC34B"/>
<path d="M23.2117 99.2119C23.2117 99.2119 32.9728 87.867 38.6511 91.6565C38.6511 91.6565 31.4593 100.456 22.5195 101.335L23.2117 99.2119Z" fill="#8BC34B"/>
<path d="M27.4798 87.9934C27.4798 87.9934 36.0237 78.731 42.2651 81.0304C42.2651 81.0304 34.9561 90.639 26.333 90.8853L27.4798 87.9934Z" fill="#8BC34B"/>
<path d="M31.3423 77.4991C31.3423 77.4991 40.7866 68.6296 44.8928 70.19C44.8928 70.19 38.0765 80.0449 30.9316 79.47L31.3423 77.4991Z" fill="#8BC34B"/>
<path d="M35.1201 67.8084C35.1201 67.8084 43.2504 57.2114 47.6881 58.0327C47.6881 58.0327 42.7577 67.4799 35.1201 68.8848V67.8084Z" fill="#8BC34B"/>
<path d="M39.2201 54.7416C39.2201 54.7416 46.4059 46.6201 50.2892 46.6377C50.2892 46.6377 44.6168 57.4899 38.9238 57.3901L39.2201 54.7416Z" fill="#8BC34B"/>
<path d="M41.6485 46.0426L48.5909 29.125C48.5909 29.125 48.937 44.4177 40.7656 49.1809L41.6485 46.0426Z" fill="#8BC34B"/>
<path d="M44.4678 27.3855C44.4678 27.3855 45.6176 13.2572 44.8784 12.1074C44.8784 12.1074 49.8411 23.8541 44.4209 33.6269L44.4678 27.3855Z" fill="#8BC34B"/>
<path d="M20.8064 174.338C20.8064 174.338 13.6088 169.877 8.94824 180.791C8.94824 180.791 15.3539 185.044 21.654 177.122L20.8064 174.338Z" fill="#8BC34B"/>
<path d="M17.6418 162.163C17.6418 162.163 8.81345 158.136 4.53125 169.531C4.53125 169.531 11.3505 174.224 18.4455 165.043L17.6418 162.163Z" fill="#8BC34B"/>
<path d="M16.3138 151.962C16.3138 151.962 9.99027 144.568 0.475586 151.962C0.475586 151.962 6.47066 158.45 16.3138 153.851V151.962Z" fill="#8BC34B"/>
<path d="M15.5215 140.277C15.5215 140.277 9.1158 132.557 0 139.867C0 139.867 7.22694 146.683 15.5215 142.084V140.277Z" fill="#8BC34B"/>
<path d="M16.313 130.786C16.313 130.786 11.8197 119.655 2.05273 124.442C2.05273 124.442 7.33215 134.311 15.9141 132.634L16.313 130.786Z" fill="#8BC34B"/>
<path d="M18.4401 119.033C18.4401 119.033 13.9731 107.709 4.06836 112.959C4.06836 112.959 10.1338 123.339 18.0002 120.781L18.4401 119.033Z" fill="#8BC34B"/>
<path d="M21.2086 108.941C21.2086 108.941 19.4488 96.5252 11.2363 95.4136C11.2363 95.4136 12.9785 108.507 20.1028 111.179L21.2086 108.941Z" fill="#8BC34B"/>
<path d="M23.4206 99.2353C23.4206 99.2353 22.7343 84.277 15.9443 83.7549C15.9443 83.7549 16.1731 95.1086 22.6551 101.353L23.4206 99.2353Z" fill="#8BC34B"/>
<path d="M28.1835 87.5739C28.1835 87.5739 26.1597 75.135 19.6777 73.6157C19.6777 73.6157 20.4814 85.6616 27.5411 90.6272L28.1835 87.5739Z" fill="#8BC34B"/>
<path d="M32.1104 77.6018C32.1104 77.6018 32.0429 64.6438 28.0834 62.7402C28.0834 62.7402 25.6284 74.4723 30.9636 79.256L32.1104 77.6018Z" fill="#8BC34B"/>
<path d="M35.4222 67.6618C35.4222 67.6618 34.8679 54.3195 30.7675 52.4395C30.7675 52.4395 29.3655 62.9983 34.8092 68.5358L35.4222 67.6618Z" fill="#8BC34B"/>
<path d="M39.7925 55.8062C39.7925 55.8062 39.769 44.9541 36.8418 42.4082C36.8418 42.4082 33.9323 54.2957 38.2644 57.9884L39.7925 55.8062Z" fill="#8BC34B"/>
<path d="M41.3053 45.5087L38.4573 27.4473C38.4573 27.4473 34.5887 42.2472 41.4402 48.7702L41.3053 45.5087Z" fill="#8BC34B"/>
<path d="M41.86 27.5558C41.86 27.5558 34.5509 15.4131 34.7005 14.064C34.7005 14.064 35.4778 26.7903 44.6727 33.1285L41.86 27.5558Z" fill="#8BC34B"/>
<path d="M42.7164 23.9684C42.7164 23.9684 35.818 6.72228 32.6973 5.32617C32.6973 5.32617 42.5522 10.3358 43.2913 23.4756L42.7164 23.9684Z" fill="#8BC34B"/>
<path d="M38.8892 57.4928L38.417 57.3491C44.239 38.3637 45.6909 26.2592 42.5085 23.2236L42.8458 22.8657C46.2217 26.0686 44.852 38.0411 38.8892 57.4928Z" fill="#444053"/>
<path d="M22.8572 101.945L22.1592 101.696C22.778 99.9569 23.4438 98.1912 24.1419 96.452C30.2191 81.3059 35.3929 67.2157 38.7102 56.3988L39.3173 56.1055C35.9942 66.9429 30.9113 81.5728 24.8282 96.7394C24.1331 98.4464 23.4702 100.203 22.8572 101.945Z" fill="#444053"/>
<path d="M37.5453 206.443C37.4514 206.34 28.0159 195.714 21.4372 177.573C17.5824 166.953 15.4371 155.788 15.0813 144.495C14.6297 130.378 17.592 114.616 22.6661 100.297L23.2175 100.943C11.8257 133.08 16.3513 160.618 22.3552 177.201C28.8635 195.177 38.1934 205.686 38.2844 205.792L37.5453 206.443Z" fill="#444053"/>
<path d="M184.994 183.882C184.994 183.882 178.345 191.998 183.624 204.267L130.537 227.291L125.442 228.358L123.096 218.093L124.665 205.138V198.058L184.994 183.882Z" fill="#D5D6DB"/>
<path d="M17.3516 178.638L90.8293 165.243L188.191 180.752L127.718 202.524L17.3516 178.638Z" fill="#8BC34B"/>
<path d="M17.3516 178.638L90.8293 165.243L188.191 180.752L127.718 202.524L17.3516 178.638Z" fill="#8BC34B"/>
<path d="M17.3521 178.635C17.3521 178.635 10.48 191.654 18.3991 203.68L127.36 227.29C127.36 227.29 120.597 216.919 127.71 202.524L17.3521 178.635Z" fill="#8BC34B"/>
<path opacity="0.1" d="M17.3521 178.635C17.3521 178.635 10.48 191.654 18.3991 203.68L127.36 227.29C127.36 227.29 120.597 216.919 127.71 202.524L17.3521 178.635Z" fill="black"/>
<path opacity="0.1" d="M20.599 183.149C20.599 183.149 16.6717 192.675 20.599 198.841V183.149Z" fill="black"/>
<path d="M127.36 227.291L188.19 201.333C188.19 201.333 191.593 202.067 189.393 204.56C187.193 207.053 128.533 229.784 128.533 229.784L18.3984 203.68L127.36 227.291Z" fill="#8BC34B"/>
<path opacity="0.1" d="M127.36 227.291L188.19 201.333C188.19 201.333 191.593 202.067 189.393 204.56C187.193 207.053 128.533 229.784 128.533 229.784L18.3984 203.68L127.36 227.291Z" fill="black"/>
<path opacity="0.1" d="M122.374 205.146C122.374 205.146 116.508 212.186 122.374 222.745V205.146Z" fill="black"/>
<path opacity="0.1" d="M150.774 205.027L124.462 213.806L124.555 214.084L150.866 205.306L150.774 205.027Z" fill="black"/>
<path opacity="0.1" d="M156.043 204.154L124.453 216.167L124.557 216.441L156.148 204.428L156.043 204.154Z" fill="black"/>
<path opacity="0.1" d="M160.884 204.112L124.63 218.951L124.741 219.223L160.995 204.383L160.884 204.112Z" fill="black"/>
<path opacity="0.1" d="M166.147 202.841L125.053 221.404L125.173 221.672L166.267 203.108L166.147 202.841Z" fill="black"/>
<path opacity="0.1" d="M170.568 202.847L125.378 222.6L125.495 222.868L170.686 203.116L170.568 202.847Z" fill="black"/>
<path opacity="0.1" d="M180.24 201.204L126.06 224.605L126.176 224.875L180.356 201.474L180.24 201.204Z" fill="black"/>
<path opacity="0.3" d="M44.6494 180.069L96.2704 169.217L127.718 175.23L85.4183 188.868L44.6494 180.069Z" fill="white"/>
<path d="M188.191 180.752C188.191 180.752 190.86 181.829 189.293 183.492C187.727 185.155 127.709 202.524 127.709 202.524L188.191 180.752Z" fill="#8BC34B"/>
<path d="M214.116 155.672C214.116 155.672 207.47 163.785 212.749 176.057L159.662 199.081L154.567 200.154L152.221 189.889L153.813 176.937V169.848L214.116 155.672Z" fill="#D5D6DB"/>
<path d="M46.4766 150.425L119.951 137.033L217.316 152.543L156.843 174.315L46.4766 150.425Z" fill="#3A3768"/>
<path d="M46.4645 150.425C46.4645 150.425 39.5895 163.445 47.5086 175.47L156.47 199.081C156.47 199.081 149.709 188.701 156.831 174.312L46.4645 150.425Z" fill="#3A3768"/>
<path opacity="0.1" d="M46.4645 150.425C46.4645 150.425 39.5895 163.445 47.5086 175.47L156.47 199.081C156.47 199.081 149.709 188.701 156.831 174.312L122.374 166.853L46.4645 150.425Z" fill="black"/>
<path opacity="0.1" d="M49.7207 154.939C49.7207 154.939 45.7964 164.462 49.7207 170.631V154.939Z" fill="black"/>
<path d="M156.482 199.081L217.315 173.124C217.315 173.124 220.715 173.857 218.515 176.35C216.315 178.843 157.655 201.574 157.655 201.574L47.5205 175.47L156.482 199.081Z" fill="#3A3768"/>
<path opacity="0.1" d="M156.482 199.081L217.315 173.124C217.315 173.124 220.715 173.857 218.515 176.35C216.315 178.843 157.655 201.574 157.655 201.574L47.5205 175.47L156.482 199.081Z" fill="black"/>
<path opacity="0.1" d="M151.496 176.937C151.496 176.937 145.63 183.976 151.496 194.535V176.937Z" fill="black"/>
<path opacity="0.1" d="M179.898 176.821L153.586 185.599L153.679 185.877L179.991 177.099L179.898 176.821Z" fill="black"/>
<path opacity="0.1" d="M185.171 175.946L153.581 187.958L153.685 188.233L185.275 176.22L185.171 175.946Z" fill="black"/>
<path opacity="0.1" d="M190.007 175.9L153.753 190.739L153.864 191.01L190.118 176.171L190.007 175.9Z" fill="black"/>
<path opacity="0.1" d="M195.274 174.63L154.18 193.193L154.3 193.46L195.394 174.897L195.274 174.63Z" fill="black"/>
<path opacity="0.1" d="M199.691 174.632L154.501 194.384L154.618 194.653L199.809 174.9L199.691 174.632Z" fill="black"/>
<path opacity="0.1" d="M209.365 172.99L155.185 196.391L155.301 196.66L209.481 173.259L209.365 172.99Z" fill="black"/>
<path opacity="0.45" d="M73.7744 151.859L125.395 141.007L156.843 147.02L114.543 160.658L73.7744 151.859Z" fill="white"/>
<path d="M217.316 152.543C217.316 152.543 219.982 153.619 218.418 155.279C216.855 156.94 156.843 174.312 156.843 174.312L217.316 152.543Z" fill="#3A3768"/>
<path d="M216.873 123.4C216.873 123.4 210.224 137.969 215.503 150.237L162.416 166.809L157.333 167.885L154.986 157.62L156.555 144.665V137.576L216.873 123.4Z" fill="#D5D6DB"/>
<path d="M49.2422 118.156L122.72 104.761L220.084 120.271L159.608 142.043L49.2422 118.156Z" fill="#8BC34B"/>
<path d="M49.2421 118.153C49.2421 118.153 42.3583 131.173 50.2774 143.198L159.239 166.809C159.239 166.809 152.475 156.429 159.597 142.043L49.2421 118.153Z" fill="#8BC34B"/>
<path opacity="0.1" d="M49.2421 118.153C49.2421 118.153 42.3583 131.173 50.2774 143.198L159.239 166.809C159.239 166.809 152.475 156.429 159.597 142.043L49.2421 118.153Z" fill="black"/>
<path opacity="0.1" d="M52.4896 122.667C52.4896 122.667 48.5623 132.194 52.4896 138.359V122.667Z" fill="black"/>
<path d="M159.25 166.809L220.081 147.304C220.081 147.304 223.483 148.038 221.284 150.531C219.084 153.024 160.424 169.302 160.424 169.302L50.2891 143.198L159.25 166.809Z" fill="#8BC34B"/>
<path opacity="0.1" d="M159.25 166.809L220.081 147.304C220.081 147.304 223.483 148.038 221.284 150.531C219.084 153.024 160.424 169.302 160.424 169.302L50.2891 143.198L159.25 166.809Z" fill="black"/>
<path opacity="0.1" d="M154.264 144.665C154.264 144.665 148.398 151.704 154.264 162.263V144.665Z" fill="black"/>
<path opacity="0.1" d="M182.667 144.548L156.355 153.327L156.448 153.605L182.76 144.827L182.667 144.548Z" fill="black"/>
<path opacity="0.1" d="M187.939 143.675L156.349 155.688L156.453 155.962L188.043 143.949L187.939 143.675Z" fill="black"/>
<path opacity="0.1" d="M192.772 143.63L156.519 158.469L156.63 158.741L192.884 143.901L192.772 143.63Z" fill="black"/>
<path opacity="0.1" d="M198.043 142.358L156.949 160.921L157.07 161.188L198.164 142.625L198.043 142.358Z" fill="black"/>
<path opacity="0.1" d="M202.462 142.363L157.271 162.115L157.389 162.384L202.579 142.632L202.462 142.363Z" fill="black"/>
<path opacity="0.1" d="M212.135 140.722L157.954 164.123L158.07 164.392L212.251 140.991L212.135 140.722Z" fill="black"/>
<path opacity="0.3" d="M76.54 119.587L128.161 108.735L159.609 114.748L117.309 128.387L76.54 119.587Z" fill="white"/>
<path d="M220.081 120.271C220.081 120.271 222.75 121.347 221.184 123.01C219.618 124.673 159.608 142.043 159.608 142.043L220.081 120.271Z" fill="#8BC34B"/>
<path d="M91.0467 31.2366C91.0467 31.2366 79.9012 30.5649 81.2035 38.3843C81.2035 38.3843 80.9425 39.7658 82.1949 40.3935C82.1949 40.3935 82.2154 39.8069 83.3387 40.0092C83.7396 40.0781 84.1474 40.0978 84.553 40.0679C85.0998 40.0305 85.6196 39.8164 86.0342 39.4578C86.0342 39.4578 89.1696 38.1614 90.3897 33.0345C90.3897 33.0345 91.2931 31.9171 91.2696 31.6296L89.3807 32.4333C89.3807 32.4333 90.0231 33.7913 89.5186 34.9205C89.5186 34.9205 89.457 32.4831 89.0933 32.5389C89.02 32.5389 88.1166 33.0111 88.1166 33.0111C88.1166 33.0111 89.2223 35.378 88.3864 37.0968C88.3864 37.0968 88.7032 34.1813 87.7705 33.1812L86.4448 33.9555C86.4448 33.9555 87.7382 36.3987 86.8613 38.3932C86.8613 38.3932 87.0871 35.334 86.1661 34.1432L84.9636 35.0818C84.9636 35.0818 86.1808 37.4898 85.4388 39.144C85.4388 39.144 85.342 35.5833 84.7055 35.3135C84.7055 35.3135 83.6526 36.2403 83.4942 36.6216C83.4942 36.6216 84.3272 38.3814 83.808 39.2936C83.808 39.2936 83.4942 36.9208 83.2214 36.909C83.2214 36.909 82.1743 38.4811 82.0658 39.5488C82.1165 38.5534 82.427 37.5888 82.9662 36.7507C82.3628 36.8648 81.806 37.1534 81.3648 37.5807C81.3648 37.5807 81.5261 36.4691 83.2273 36.3723C83.2273 36.3723 84.0925 35.1786 84.3242 35.1082C84.3242 35.1082 82.6319 34.9645 81.6082 35.4191C81.6082 35.4191 82.5116 34.372 84.6322 34.8325L85.8054 33.8646C85.8054 33.8646 83.5822 33.5713 82.6377 33.8968C82.6377 33.8968 83.7259 32.97 86.1251 33.6446L87.4185 32.8732C87.4185 32.8732 85.5209 32.4655 84.3917 32.6122C84.3917 32.6122 85.5825 31.9699 87.7969 32.665L88.7179 32.2514C88.7179 32.2514 87.3306 31.9787 86.9229 31.9347C86.5152 31.8907 86.4946 31.7792 86.4946 31.7792C87.3752 31.6346 88.2785 31.7361 89.105 32.0725C89.105 32.0725 91.0848 31.3598 91.0467 31.2366Z" fill="#8BC34B"/>
<path opacity="0.1" d="M247.846 63.3763C247.846 63.3763 236.7 62.7046 238.002 70.524C238.002 70.524 237.741 71.9054 238.994 72.5331C238.994 72.5331 239.014 71.9465 240.138 72.1489C240.539 72.2161 240.946 72.2358 241.352 72.2075C241.894 72.1676 242.408 71.9536 242.818 71.5975C242.818 71.5975 245.957 70.3011 247.174 65.1742C247.174 65.1742 248.077 64.0567 248.054 63.7693L246.171 64.5729C246.171 64.5729 246.813 65.9309 246.309 67.0601C246.309 67.0601 246.247 64.6228 245.886 64.6785C245.813 64.6785 244.907 65.1507 244.907 65.1507C244.907 65.1507 246.012 67.5177 245.179 69.2364C245.179 69.2364 245.496 66.321 244.561 65.3208L243.235 66.0951C243.235 66.0951 244.528 68.5383 243.651 70.5328C243.651 70.5328 243.877 67.4737 242.956 66.2829L241.757 67.2214C241.757 67.2214 242.971 69.6294 242.229 71.2836C242.229 71.2836 242.132 67.723 241.496 67.4531C241.496 67.4531 240.446 68.38 240.284 68.7613C240.284 68.7613 241.117 70.5211 240.601 71.4332C240.601 71.4332 240.284 69.0604 240.014 69.0487C240.014 69.0487 238.967 70.6208 238.859 71.6884C238.91 70.6927 239.221 69.7277 239.762 68.8903C239.158 69.0048 238.6 69.2933 238.158 69.7204C238.158 69.7204 238.322 68.6087 240.02 68.512C240.02 68.512 240.885 67.3182 241.117 67.2449C241.117 67.2449 239.428 67.1041 238.401 67.5587C238.401 67.5587 239.305 66.5116 241.425 66.9721L242.598 66.0042C242.598 66.0042 240.372 65.7109 239.431 66.0365C239.431 66.0365 240.516 65.1097 242.918 65.7843L244.209 65.0129C244.209 65.0129 242.311 64.6052 241.182 64.7518C241.182 64.7518 242.373 64.1095 244.587 64.8046L245.511 64.3911C245.511 64.3911 244.121 64.1183 243.713 64.0743C243.305 64.0303 243.285 63.9189 243.285 63.9189C244.165 63.7724 245.069 63.8739 245.895 64.2122C245.895 64.2122 247.881 63.4994 247.846 63.3763Z" fill="#8BC34B"/>
<path opacity="0.1" d="M109.818 79.5431C109.818 79.5431 104.961 69.4741 98.7781 74.4368C98.7781 74.4368 97.4436 74.8826 97.5081 76.2816C97.5081 76.2816 98.0214 76.0147 98.388 77.0941C98.525 77.4756 98.7061 77.8398 98.9277 78.1793C99.2278 78.6394 99.6694 78.9895 100.186 79.1765C100.186 79.1765 102.846 81.2824 107.917 79.8452C107.917 79.8452 109.334 80.0887 109.566 79.9186L107.947 78.6662C107.947 78.6662 107.067 79.8892 105.841 79.9978C105.841 79.9978 107.941 78.7571 107.715 78.4697C107.668 78.411 106.835 77.8449 106.835 77.8449C106.835 77.8449 105.307 79.9655 103.401 80.074C103.401 80.074 106.099 78.9301 106.515 77.6249L105.196 76.8448C105.196 76.8448 103.691 79.1677 101.523 79.373C101.523 79.373 104.304 78.0796 104.893 76.6952L103.491 76.1086C103.491 76.1086 101.981 78.3435 100.174 78.5049C100.174 78.5049 103.236 76.6835 103.16 75.9942C103.16 75.9942 101.837 75.5308 101.427 75.5748C101.427 75.5748 100.306 77.1557 99.2503 77.1557C99.2503 77.1557 101.166 75.7214 101.048 75.4897C101.048 75.4897 99.1653 75.3431 98.1739 75.783C99.0672 75.339 100.061 75.1368 101.057 75.1964C100.662 74.7253 100.138 74.3798 99.5495 74.2021C99.5495 74.2021 100.6 73.8032 101.512 75.2375C101.512 75.2375 102.978 75.4105 103.151 75.5777C103.151 75.5777 102.45 74.0349 101.556 73.3633C101.556 73.3633 102.911 73.6361 103.53 75.7097L104.952 76.2728C104.952 76.2728 104.134 74.1845 103.38 73.5246C103.38 73.5246 104.717 74.0203 105.301 76.4576L106.603 77.2085C106.603 77.2085 106.037 75.3519 105.357 74.4397C105.357 74.4397 106.498 75.1671 106.97 77.4372L107.782 78.0414C107.782 78.0414 107.343 76.6952 107.196 76.3198C107.049 75.9443 107.123 75.8681 107.123 75.8681C107.68 76.5644 108.034 77.4022 108.143 78.2878C108.143 78.2878 109.712 79.6311 109.818 79.5431Z" fill="#8BC34B"/>
<path opacity="0.1" d="M222.381 49.1515C222.381 49.1515 217.527 39.0825 211.341 44.0452C211.341 44.0452 210.01 44.491 210.071 45.89C210.071 45.89 210.588 45.6261 210.951 46.7025C211.088 47.0856 211.27 47.4509 211.494 47.7906C211.793 48.2499 212.234 48.599 212.749 48.7849C212.749 48.7849 215.412 50.8908 220.481 49.4566C220.481 49.4566 221.897 49.6971 222.132 49.527L220.522 48.2716C220.522 48.2716 219.642 49.4976 218.419 49.6062C218.419 49.6062 220.516 48.3626 220.29 48.0751C220.243 48.0165 219.41 47.4504 219.41 47.4504C219.41 47.4504 217.885 49.571 215.976 49.6795C215.976 49.6795 218.677 48.5356 219.093 47.2334L217.753 46.459C217.753 46.459 216.251 48.779 214.081 48.9873C214.081 48.9873 216.861 47.6909 217.454 46.3065L216.049 45.7199C216.049 45.7199 214.538 47.9578 212.735 48.1162C212.735 48.1162 215.794 46.2948 215.717 45.6085C215.717 45.6085 214.398 45.1421 213.987 45.189C213.987 45.189 212.867 46.767 211.808 46.767C211.808 46.767 213.726 45.3328 213.609 45.1011C213.609 45.1011 211.726 44.9544 210.731 45.3944C211.625 44.9502 212.619 44.748 213.614 44.8077C213.221 44.3364 212.698 43.9907 212.11 43.8135C212.11 43.8135 213.16 43.4146 214.072 44.8488C214.072 44.8488 215.539 45.0248 215.712 45.192C215.712 45.192 215.011 43.6463 214.113 42.9746C214.113 42.9746 215.468 43.2503 216.087 45.3357L217.512 45.8988C217.512 45.8988 216.694 43.8076 215.94 43.1477C215.94 43.1477 217.278 43.6433 217.859 46.0807L219.164 46.8315C219.164 46.8315 218.595 44.9779 217.914 44.0628C217.914 44.0628 219.058 44.7901 219.527 47.0603L220.34 47.6645C220.34 47.6645 219.903 46.3182 219.753 45.9428C219.604 45.5674 219.68 45.4941 219.68 45.4941C220.236 46.1911 220.589 47.0287 220.698 47.9138C220.698 47.9138 222.29 49.2454 222.381 49.1515Z" fill="#8BC34B"/>
<path opacity="0.1" d="M237.894 98.9569C237.894 98.9569 233.04 88.8849 226.845 93.8476C226.845 93.8476 225.514 94.2934 225.575 95.6925C225.575 95.6925 226.092 95.4285 226.455 96.5049C226.591 96.8879 226.772 97.2532 226.995 97.5931C227.294 98.0523 227.735 98.4014 228.25 98.5873C228.25 98.5873 230.913 100.696 235.985 99.259C235.985 99.259 237.398 99.5024 237.633 99.3294L236.014 98.077C236.014 98.077 235.134 99.303 233.908 99.4115C233.908 99.4115 236.005 98.1679 235.779 97.8805C235.732 97.8218 234.899 97.2558 234.899 97.2558C234.899 97.2558 233.374 99.3763 231.465 99.4878C231.465 99.4878 234.166 98.341 234.583 97.0387L233.26 96.2585C233.26 96.2585 231.758 98.5815 229.588 98.7868C229.588 98.7868 232.368 97.4904 232.961 96.106L231.556 95.5194C231.556 95.5194 230.045 97.7544 228.241 97.9157C228.241 97.9157 231.304 96.0943 231.227 95.405C231.227 95.405 229.904 94.9387 229.494 94.9856C229.494 94.9856 228.373 96.5636 227.315 96.5636C227.315 96.5636 229.233 95.1293 229.115 94.8976C229.115 94.8976 227.232 94.751 226.238 95.1909C227.133 94.7471 228.128 94.5448 229.124 94.6043C228.73 94.1322 228.206 93.7864 227.617 93.61C227.617 93.61 228.667 93.2082 229.579 94.6454C229.579 94.6454 231.045 94.8184 231.218 94.9856C231.218 94.9856 230.517 93.4428 229.623 92.7682C229.623 92.7682 230.978 93.044 231.597 95.1293L233.019 95.6925C233.019 95.6925 232.201 93.6012 231.447 92.9442C231.447 92.9442 232.785 93.437 233.365 95.8772L234.671 96.6252C234.671 96.6252 234.102 94.7715 233.421 93.8564C233.421 93.8564 234.565 94.5838 235.037 96.8569L235.85 97.4435C235.85 97.4435 235.41 96.0972 235.263 95.7218C235.116 95.3464 235.19 95.273 235.19 95.273C235.747 95.9693 236.1 96.8072 236.208 97.6928C236.208 97.6928 237.803 99.0449 237.894 98.9569Z" fill="#8BC34B"/>
<path opacity="0.1" d="M59.2322 229.995C62.9563 229.995 65.9752 229.657 65.9752 229.241C65.9752 228.825 62.9563 228.487 59.2322 228.487C55.5082 228.487 52.4893 228.825 52.4893 229.241C52.4893 229.657 55.5082 229.995 59.2322 229.995Z" fill="#8BC34B"/>
<path opacity="0.1" d="M15.0291 217.183C18.7532 217.183 21.7721 216.846 21.7721 216.43C21.7721 216.013 18.7532 215.676 15.0291 215.676C11.3051 215.676 8.28613 216.013 8.28613 216.43C8.28613 216.846 11.3051 217.183 15.0291 217.183Z" fill="#8BC34B"/>
<path opacity="0.1" d="M92.9266 238.504C96.6506 238.504 99.6696 238.166 99.6696 237.75C99.6696 237.334 96.6506 236.996 92.9266 236.996C89.2025 236.996 86.1836 237.334 86.1836 237.75C86.1836 238.166 89.2025 238.504 92.9266 238.504Z" fill="#8BC34B"/>
<path opacity="0.1" d="M265.593 219.97C269.317 219.97 272.336 219.632 272.336 219.216C272.336 218.8 269.317 218.462 265.593 218.462C261.869 218.462 258.85 218.8 258.85 219.216C258.85 219.632 261.869 219.97 265.593 219.97Z" fill="#8BC34B"/>
<path opacity="0.1" d="M209.481 216.312C213.205 216.312 216.224 215.975 216.224 215.558C216.224 215.142 213.205 214.805 209.481 214.805C205.757 214.805 202.738 215.142 202.738 215.558C202.738 215.975 205.757 216.312 209.481 216.312Z" fill="#8BC34B"/>
<path opacity="0.1" d="M173.183 234.151C177.587 234.151 181.158 233.538 181.158 232.781C181.158 232.025 177.587 231.412 173.183 231.412C168.778 231.412 165.208 232.025 165.208 232.781C165.208 233.538 168.778 234.151 173.183 234.151Z" fill="#8BC34B"/>
<path d="M176.741 219.014C176.741 219.014 165.636 224.751 171.373 231.508C171.373 231.508 171.913 232.975 173.473 232.872C173.473 232.872 173.162 232.303 174.353 231.849C174.777 231.685 175.18 231.471 175.553 231.212C176.057 230.863 176.434 230.36 176.626 229.778C176.626 229.778 178.896 226.739 177.137 221.117C177.137 221.117 177.365 219.527 177.166 219.269L175.817 221.12C175.817 221.12 177.21 222.055 177.371 223.431C177.371 223.431 175.905 221.123 175.611 221.378C175.547 221.43 174.943 222.39 174.943 222.39C174.943 222.39 177.36 224.029 177.538 226.158C177.538 226.158 176.178 223.176 174.708 222.75L173.866 224.252C173.866 224.252 176.506 225.859 176.799 228.276C176.799 228.276 175.265 225.211 173.699 224.592L173.08 226.179C173.08 226.179 175.626 227.798 175.861 229.81C175.861 229.81 173.731 226.446 172.966 226.552C172.966 226.552 172.485 228.041 172.549 228.502C172.549 228.502 174.347 229.704 174.38 230.886C174.38 230.886 172.72 228.789 172.464 228.927C172.464 228.927 172.359 231.036 172.869 232.133C172.869 232.133 171.989 230.567 172.133 228.927C171.619 229.382 171.248 229.978 171.068 230.64C171.068 230.64 170.59 229.482 172.165 228.414C172.165 228.414 172.315 226.774 172.497 226.572C172.497 226.572 170.793 227.405 170.068 228.426C170.068 228.426 170.335 226.903 172.646 226.147L173.233 224.539C173.233 224.539 170.922 225.519 170.209 226.381C170.209 226.381 170.722 224.871 173.415 224.146L174.212 222.68C174.212 222.68 172.159 223.372 171.156 224.146C171.156 224.146 171.933 222.847 174.459 222.249L175.107 221.325C175.107 221.325 173.617 221.856 173.201 222.046C172.784 222.237 172.702 222.143 172.702 222.143C173.463 221.499 174.388 221.079 175.374 220.929C175.374 220.929 176.843 219.113 176.741 219.014Z" fill="#8BC34B"/>
<path d="M209.698 110.66C207.78 105.448 197.221 104.958 192.64 106.287C189.384 107.234 182.521 108.302 178.855 108.838L178.617 108.612C179.092 108.472 179.104 108.126 179.045 107.612C179.011 106.936 179.021 106.258 179.075 105.583C181.321 106.281 183.322 104.629 183.322 104.629C185.961 103.456 185.252 98.435 185.756 97.0623C186.134 96.0358 186.542 89.9879 186.724 86.9728H186.762L186.783 85.9609C186.809 85.5238 186.821 85.2687 186.821 85.2687C186.821 85.2687 187.079 77.8951 187.583 76.4022C188.053 75.0295 188.434 68.1135 188.493 67.0166C188.493 66.9227 188.493 66.8728 188.493 66.8728L188.455 66.2334C188.481 65.7671 188.493 65.248 188.49 64.7024C188.49 62.1947 188.229 59.0358 188.196 58.5255C188.196 58.4522 188.196 58.3642 188.196 58.2586C188.217 57.188 188.082 51.8265 183.521 49.7998C181.841 49.0489 179.82 48.1544 177.863 47.2833C177.359 42.9278 176.206 38.5957 176.306 34.2079C176.306 33.548 176.365 32.8881 176.429 32.2311C176.429 32.4217 176.409 32.6153 176.406 32.8177C176.406 33.243 176.406 33.6712 176.406 34.0965C176.579 28.6088 178.652 23.0918 178.459 17.7215C178.441 18.2465 178.403 18.7744 178.353 19.3024C178.454 17.4859 178.264 15.6649 177.79 13.9086C177.614 13.2897 177.377 12.6503 176.869 12.2367C176.39 11.9037 175.839 11.6859 175.262 11.6003C173.874 11.245 172.464 10.9824 171.041 10.8142C170.825 10.1525 170.504 9.52962 170.091 8.96937C167.117 4.88662 162.711 1.05025 157.502 0.170346C154.889 -0.269606 151.883 0.0970201 150.105 1.96535C149.92 2.12947 149.745 2.30585 149.583 2.49329C148.627 3.63423 148.217 5.133 147.237 6.27101C147.172 6.34726 147.099 6.41766 147.029 6.49098C145.11 8.20679 142.122 8.56462 139.989 10.1044C139.614 10.3809 139.262 10.6879 138.937 11.0225C138.077 11.8739 137.307 12.8104 136.637 13.8176C135.678 15.1668 134.692 16.5717 134.387 18.182C133.774 21.4083 135.971 24.4674 136.379 27.7142C137.288 34.9793 129.249 41.4261 130.771 48.5943C131.177 50.3554 132.074 51.9652 133.358 53.2373C130.223 56.0764 127.553 58.8305 127.553 58.8305V58.9948H127.058L127.108 59.5814H127.058L127.331 62.7637L127.058 67.3979C127.058 67.3979 127.058 67.4477 127.058 67.5416V67.565V67.6911C127.058 67.6911 127.058 67.741 127.058 67.8349H127.075C127.166 69.5331 127.527 75.6396 127.955 76.9272C128.46 78.4201 128.715 85.7937 128.715 85.7937C128.715 85.7937 129.272 96.2147 129.783 97.5932C130.293 98.9717 129.568 103.978 132.217 105.16C132.992 105.755 133.909 106.135 134.877 106.263C134.742 107.36 134.827 108.155 135.264 108.404C135.451 108.514 135.663 108.575 135.88 108.58C135.701 108.847 135.541 109.126 135.402 109.416C134.351 109.306 133.318 109.063 132.328 108.692C129.483 107.518 120.042 104.879 117.3 106.735C114.557 108.592 107.958 110.276 111.005 117.749C114.053 125.222 115.472 125.41 115.472 125.41C116.41 126.091 117.233 126.918 117.91 127.859C118.825 129.234 127.351 132.382 129.483 132.382C130.39 132.368 131.296 132.413 132.196 132.517C132.196 132.517 129.882 134.546 130.19 135.725C130.498 136.904 129.486 146.343 129.486 146.343C129.486 146.343 131.833 148.707 132.836 145.607L132.871 145.653C133.059 145.909 134.074 147.061 135.983 145.607C136.764 145.014 137.594 144.488 138.464 144.034L147.709 142.726C148.673 142.666 149.639 142.659 150.604 142.706C152.071 142.826 153.511 141.958 154.417 141.286C156.332 142.014 158.485 142.808 159.509 143.099C161.585 143.685 171.129 146.246 173.361 145.445C173.825 145.261 174.238 144.967 174.564 144.589L176.693 144.656L175.696 144.856C175.696 144.856 177.638 144.888 180.277 144.923L180.166 144.988L183.477 144.958C188.323 145.002 193.766 145.017 194.482 144.856C195.602 144.606 201.424 144.782 203.14 144.856H203.618C203.618 144.856 210.015 143.58 207.375 137.089C205.346 132.103 199.107 130.654 196.338 130.255C197.119 130.1 197.79 129.979 198.236 129.909C200.169 129.616 203.923 127.856 204.228 127.255C204.533 126.653 207.68 124.908 208.493 123.914C209.305 122.92 211.625 115.872 209.698 110.66ZM156.713 125.246L156.4 125.348L156.188 125.419L155.784 125.818C155.461 125.6 155.115 125.372 154.754 125.137C155.391 125.175 156.045 125.213 156.713 125.246Z" fill="url(#paint0_linear)"/>
<path d="M175.414 94.3198C175.414 94.3198 179.902 106.052 182.453 104.879C185.005 103.705 184.313 98.7193 184.8 97.3525C185.287 95.9857 185.826 85.6205 185.826 85.6205C185.826 85.6205 186.073 78.288 186.559 76.8038C187.011 75.44 187.378 68.5621 187.439 67.4798C187.439 67.386 187.439 67.3361 187.439 67.3361L186.955 58.8304L184.216 58.147L177.863 60.4934L176.983 65.5176L176.64 67.4798L176.493 68.3157L175.414 94.3198Z" fill="#BE6F72"/>
<path opacity="0.1" d="M176.893 92.3545C176.893 92.3545 181.175 95.8594 182.465 96.1674C183.756 96.4754 184.548 99.2089 184.548 99.2089" fill="black"/>
<path d="M140.321 94.833C140.321 94.833 135.834 106.565 133.282 105.392C130.73 104.219 131.422 99.2325 130.936 97.8657C130.449 96.4989 129.909 86.1337 129.909 86.1337C129.909 86.1337 129.663 78.8011 129.176 77.317C128.724 75.9532 128.357 69.0753 128.296 67.993C128.296 67.8991 128.296 67.8493 128.296 67.8493L128.783 59.3435L131.522 58.6602L137.875 61.0066L138.755 66.0308L139.098 67.993L139.245 68.8289L140.321 94.833Z" fill="#BE6F72"/>
<path d="M169.543 32.0488H159.526V47.6612H169.543V32.0488Z" fill="#3E373A"/>
<path opacity="0.1" d="M169.543 32.0488H159.526V47.6612H169.543V32.0488Z" fill="black"/>
<path d="M138.561 106.518C138.561 106.518 135.139 110.281 136.409 110.965C137.679 111.648 145.894 124.457 145.894 124.457C145.894 124.457 172.878 127.78 177.966 122.794C183.055 117.807 182.952 108.9 182.952 108.9C182.952 108.9 178.864 109.78 178.418 109.302C177.972 108.824 175.523 106.518 175.523 106.518C175.523 106.518 140.908 104.418 138.561 106.518Z" fill="#4B4B5B"/>
<path opacity="0.02" d="M138.561 106.518C138.561 106.518 135.139 110.281 136.409 110.965C137.679 111.648 145.894 124.457 145.894 124.457C145.894 124.457 172.878 127.78 177.966 122.794C183.055 117.807 182.952 108.9 182.952 108.9C182.952 108.9 178.864 109.78 178.418 109.302C177.972 108.824 175.523 106.518 175.523 106.518C175.523 106.518 140.908 104.418 138.561 106.518Z" fill="black"/>
<path d="M187.137 58.9534L178.338 65.9926L175.678 66.1862L174.701 66.2566L158.297 67.4591L141.286 66.2155L138.754 66.0308L135.528 65.7961L128.782 59.3435C128.782 59.3435 133.557 54.2283 137.74 50.7762C139.388 49.4123 140.945 48.3095 142.081 47.8754L142.274 47.808C142.988 47.5296 143.625 47.0852 144.134 46.5116C147.436 43.1064 150.489 34.7033 150.489 34.7033C150.489 34.7033 165.058 27.1772 163.298 37.0497C161.538 46.9222 169.847 44.4819 169.847 44.4819L172.587 45.7314L173.669 46.2271L176.429 47.4912L182.656 50.348C187.542 52.5976 187.137 58.9534 187.137 58.9534Z" fill="#BE6F72"/>
<path opacity="0.1" d="M157.614 42.7426C164.85 42.7426 170.716 36.8767 170.716 29.6408C170.716 22.4049 164.85 16.5391 157.614 16.5391C150.379 16.5391 144.513 22.4049 144.513 29.6408C144.513 36.8767 150.379 42.7426 157.614 42.7426Z" fill="black"/>
<path opacity="0.1" d="M187.158 68.2864H128.296C128.296 68.1925 128.296 68.1427 128.296 68.1427L128.783 59.637C128.783 59.637 133.558 54.5218 137.74 51.0696L174.696 49.6031L176.415 47.7905L182.642 50.6473C187.531 52.894 187.138 59.2498 187.138 59.2498C187.138 59.2498 187.807 66.6146 187.158 68.2864Z" fill="black"/>
<path d="M187.158 67.9929H128.296C128.296 67.8991 128.296 67.8492 128.296 67.8492L128.783 59.3435C128.783 59.3435 133.558 54.2283 137.74 50.7762L174.696 49.3097L176.415 47.4971L182.642 50.3538C187.531 52.6005 187.138 58.9563 187.138 58.9563C187.138 58.9563 187.807 66.3211 187.158 67.9929Z" fill="#E7C7CA"/>
<path opacity="0.1" d="M148.179 44.1417C148.179 44.1417 157.465 55.9735 169.833 43.8983C182.202 31.8231 171.203 70.8321 171.203 70.8321L144.513 73.9998L148.179 44.1417Z" fill="black"/>
<path d="M148.179 44.7287C148.179 44.7287 157.465 56.5604 169.833 44.4852C182.202 32.41 171.203 71.4191 171.203 71.4191L144.513 74.5867L148.179 44.7287Z" fill="#E7C7CA"/>
<path opacity="0.1" d="M173.655 46.8047L174.637 61.7895L175.69 66.7756L176.494 70.5885C176.494 70.5885 178.547 99.9186 177.96 101.385C177.374 102.852 178.254 104.025 178.377 104.805C178.5 105.585 178.254 107.544 178.351 108.424C178.447 109.304 178.351 109.694 176.104 109.381C173.857 109.067 170.725 108.521 170.725 108.521C170.725 108.521 162.806 109.108 160.069 108.131C157.333 107.154 152.15 107.151 152.15 107.151C152.15 107.151 144.328 107.348 141.788 107.055C139.248 106.761 137.875 110.184 136.215 109.205C134.555 108.225 138.168 98.7454 139.342 96.006C140.515 93.2666 137.778 86.3271 137.778 86.3271L141.298 66.802L142.081 62.3761V48.4619L142.275 48.3944C142.989 48.116 143.626 47.6716 144.134 47.098L145.014 61.1002L172.584 62.0799V46.3208" fill="black"/>
<path d="M173.655 46.2183L174.637 61.2031L175.69 66.1892L176.494 70.0021C176.494 70.0021 178.547 99.3322 177.96 100.799C177.374 102.265 178.254 103.438 178.377 104.219C178.5 104.999 178.254 106.958 178.351 107.838C178.447 108.718 178.351 109.108 176.104 108.794C173.857 108.48 170.725 107.935 170.725 107.935C170.725 107.935 162.806 108.521 160.069 107.545C157.333 106.568 152.15 106.565 152.15 106.565C152.15 106.565 144.328 106.762 141.788 106.468C139.248 106.175 137.875 109.598 136.215 108.618C134.555 107.638 138.168 98.159 139.342 95.4196C140.515 92.6801 137.778 85.7406 137.778 85.7406L141.298 66.2156L142.081 61.7897V47.8755L142.275 47.808C142.989 47.5296 143.626 47.0852 144.134 46.5116L145.014 60.5138L172.584 61.4934V45.7344" fill="#E7C7CA"/>
<path opacity="0.1" d="M176.825 14.9465C176.658 14.3335 176.427 13.697 175.946 13.2864C175.486 12.9566 174.956 12.7396 174.397 12.6529C173.059 12.3011 171.699 12.0404 170.326 11.8727C170.13 11.2214 169.833 10.6049 169.446 10.0454C166.572 5.98614 162.319 2.15856 157.315 1.29332C154.696 0.838708 151.66 1.2464 149.983 3.31123C149.062 4.44631 148.666 5.95094 147.736 7.06549C145.944 9.23005 142.709 9.49695 140.45 11.1717C139.245 12.0516 138.371 13.3275 137.517 14.5652C136.593 15.9056 135.643 17.3017 135.35 18.9031C134.763 22.103 136.878 25.1534 137.268 28.3826C138.148 35.6066 130.405 42.0152 131.868 49.1424C132.722 53.2985 136.561 56.2257 140.532 57.7098C141.931 58.2348 143.53 58.7569 144.184 60.1002C144.477 60.6868 144.527 61.3643 144.803 61.9568C145.73 63.9336 148.777 64.0099 150.414 62.5698C152.05 61.1297 152.567 58.8008 152.76 56.6275C153.546 47.1363 149.745 37.7594 150.188 28.2448C150.32 25.3675 151.129 22.103 153.707 20.8008C157.177 19.041 161.351 21.974 165.17 21.4138C166.977 25.8108 167.36 30.6635 166.267 35.2898C165.66 37.821 164.609 40.276 164.533 42.8863C164.419 46.8606 166.563 50.4916 168.417 54.0054C168.814 54.6624 169.08 55.3907 169.2 56.1494C169.229 56.9192 169.086 57.6859 168.78 58.3932C167.733 61.2118 165.926 63.828 165.721 66.8285C165.661 67.1787 165.74 67.5387 165.941 67.8316C166.148 68.0271 166.414 68.147 166.698 68.1718C169.865 68.7144 172.605 65.9075 174.151 63.0889C175.874 59.9758 176.878 56.5162 177.089 52.9642C177.409 46.9926 175.268 41.1177 175.4 35.1403C175.553 28.3445 178.623 21.5018 176.825 14.9465Z" fill="black"/>
<path d="M177.118 14.6535C176.951 14.0405 176.72 13.4041 176.239 12.9934C175.779 12.6636 175.249 12.4466 174.69 12.3599C173.352 12.0081 171.992 11.7475 170.619 11.5797C170.423 10.9284 170.126 10.3119 169.739 9.75246C166.865 5.69317 162.612 1.86559 157.608 1.00036C154.989 0.545739 151.953 0.953427 150.276 3.01827C149.355 4.15334 148.959 5.65798 148.029 6.77252C146.237 8.93708 143.002 9.20398 140.743 10.8787C139.538 11.7586 138.664 13.0345 137.81 14.2722C136.886 15.6126 135.936 17.0087 135.643 18.6101C135.056 21.8101 137.171 24.8604 137.561 28.0896C138.441 35.3136 130.698 41.7223 132.161 48.8495C133.015 53.0056 136.854 55.9327 140.825 57.4168C142.224 57.9418 143.823 58.4639 144.477 59.8072C144.77 60.3938 144.82 61.0713 145.096 61.6638C146.023 63.6406 149.07 63.7169 150.707 62.2768C152.343 60.8367 152.859 58.5079 153.053 56.3345C153.839 46.8433 150.038 37.4665 150.481 27.9518C150.613 25.0745 151.422 21.8101 154 20.5078C157.47 18.748 161.644 21.681 165.463 21.1208C167.27 25.5178 167.653 30.3706 166.56 34.9969C165.952 37.5281 164.902 39.983 164.826 42.5934C164.712 46.5676 166.856 50.1987 168.709 53.7124C169.107 54.3695 169.373 55.0977 169.493 55.8564C169.522 56.6263 169.378 57.3929 169.073 58.1002C168.026 60.9188 166.219 63.5351 166.014 66.5355C165.954 66.8858 166.033 67.2457 166.234 67.5386C166.441 67.7341 166.707 67.854 166.991 67.8789C170.158 68.4215 172.898 65.6146 174.444 62.7959C176.167 59.6828 177.171 56.2232 177.382 52.6712C177.702 46.6996 175.561 40.8248 175.693 34.8473C175.845 28.0515 178.916 21.2088 177.118 14.6535Z" fill="#3E373A"/>
<path d="M170.64 144.518L182.275 144.891L180.606 136.262L171.693 137.109L170.64 144.518Z" fill="#C3C7D9"/>
<path d="M206.692 124.066C205.909 125.043 202.879 126.803 202.586 127.389C202.293 127.976 198.676 129.736 196.817 130.029C194.957 130.322 189.094 131.595 188.018 132.279C187.246 132.771 181.055 134.332 176.987 135.197C175.885 135.458 174.769 135.658 173.646 135.798C171.886 135.895 152.628 129.346 152.628 129.346L156.341 125.533L156.546 125.462C157.596 125.107 162.448 123.468 165.14 122.688C168.173 121.808 171.692 118.191 171.692 118.191C171.692 118.191 176.872 116.432 177.559 116.235C178.245 116.039 175.799 109.392 175.799 109.392C175.799 109.392 187.041 107.832 191.44 106.509C195.84 105.186 206.009 105.676 207.865 110.859C209.722 116.042 207.487 123.09 206.692 124.066Z" fill="#4B4B5B"/>
<path d="M155.462 140.588C155.462 140.588 153.215 142.934 150.965 142.741C148.716 142.547 140.849 143.327 140.849 143.327C139.424 143.896 138.089 144.67 136.887 145.624C135.048 147.073 134.071 145.917 133.889 145.671L133.857 145.624C132.878 148.706 130.631 146.357 130.631 146.357C130.631 146.357 131.608 136.972 131.308 135.798C131.009 134.625 133.241 132.61 133.241 132.61L135.881 131.938L142.568 130.226L152.15 133.549L155.462 140.588Z" fill="#E7C7CA"/>
<path opacity="0.1" d="M135.869 131.938L133.889 145.671L133.857 145.624C132.878 148.706 130.631 146.357 130.631 146.357C130.631 146.357 131.608 136.972 131.308 135.798C131.009 134.625 133.241 132.61 133.241 132.61L135.869 131.938Z" fill="black"/>
<path opacity="0.1" d="M149.707 92.8765C149.707 92.8765 154.887 94.6362 159.386 92.8765H149.707Z" fill="black"/>
<path opacity="0.1" d="M167.39 96.2026C167.39 96.2026 169.54 97.2762 171.203 96.2026H167.39Z" fill="black"/>
<path opacity="0.1" d="M167.39 98.7486C167.39 98.7486 171.006 99.2326 171.692 98.2559L167.39 98.7486Z" fill="black"/>
<path opacity="0.1" d="M166.217 104.219C166.217 104.219 173.01 103.339 174.696 102.166L166.217 104.219Z" fill="black"/>
<path opacity="0.1" d="M145.489 102.166C145.489 102.166 149.302 104.315 152.138 104.219L145.489 102.166Z" fill="black"/>
<path opacity="0.1" d="M176.984 135.197C175.882 135.458 174.767 135.658 173.643 135.798C171.883 135.895 152.625 129.346 152.625 129.346L156.338 125.533L156.543 125.462C157.13 125.876 157.611 126.231 157.954 126.501C159.57 127.774 161.131 126.111 161.717 126.111C162.304 126.111 167.387 130.314 167.387 130.314C167.387 130.314 172.08 131.39 172.863 132.367C173.646 133.343 176.382 133.15 176.869 133.833C177.016 134.044 177.034 134.564 176.984 135.197Z" fill="black"/>
<path d="M140.849 109.791C140.849 109.791 136.103 110.064 133.367 108.911C130.63 107.759 121.538 105.099 118.898 106.967C116.259 108.835 109.903 110.486 112.836 117.919C115.769 125.351 117.139 125.545 117.139 125.545C118.046 126.225 118.838 127.047 119.485 127.979C120.365 129.349 128.577 132.475 130.63 132.475C132.684 132.475 136.3 132.475 141.383 135.995C146.466 139.514 151.062 139.907 151.062 139.907C151.062 139.907 157.514 142.547 159.524 143.134C161.533 143.72 170.713 146.26 172.866 145.48C175.019 144.7 176.385 139.808 176.385 139.808C176.385 139.808 177.362 135.408 176.872 134.725C176.383 134.041 173.646 134.235 172.866 133.258C172.086 132.282 167.39 131.205 167.39 131.205C167.39 131.205 162.319 126.999 161.732 126.999C161.146 126.999 159.585 128.659 157.969 127.389C154.75 125.005 151.368 122.849 147.847 120.937C144.134 118.98 140.849 109.791 140.849 109.791Z" fill="#4B4B5B"/>
<path opacity="0.1" d="M131.308 112.628C132.153 112.455 133.026 112.48 133.86 112.7C134.694 112.92 135.465 113.33 136.115 113.898C138.461 115.854 146.357 119.781 146.357 119.781" fill="black"/>
<path opacity="0.1" d="M189.974 112.504C189.974 112.504 179.512 114.088 177.559 116.238L189.974 112.504Z" fill="black"/>
<path d="M201.999 144.891H201.539C199.885 144.832 194.28 144.656 193.2 144.891C191.93 145.184 175.112 144.891 175.112 144.891L178.4 144.207C178.4 144.207 177.18 139.931 177.954 139.576C177.954 139.576 173.555 136.678 176.872 134.722C180.189 132.766 183.765 133.59 183.765 133.59L192.092 130.768L193.69 130.226C193.69 130.226 203.076 130.715 205.616 137.168C208.156 143.621 201.999 144.891 201.999 144.891Z" fill="#E7C7CA"/>
<path opacity="0.1" d="M202 144.891H201.539C204.27 142.638 210.447 135.781 192.092 130.783L193.69 130.24C193.69 130.24 203.076 130.73 205.616 137.183C208.156 143.635 202 144.891 202 144.891Z" fill="black"/>
<path d="M184.745 137.288C185.028 137.288 185.258 137.058 185.258 136.775C185.258 136.492 185.028 136.262 184.745 136.262C184.461 136.262 184.231 136.492 184.231 136.775C184.231 137.058 184.461 137.288 184.745 137.288Z" fill="#4B4B5B"/>
<path d="M181.761 138.136C182.045 138.136 182.275 137.906 182.275 137.623C182.275 137.339 182.045 137.109 181.761 137.109C181.478 137.109 181.248 137.339 181.248 137.623C181.248 137.906 181.478 138.136 181.761 138.136Z" fill="#4B4B5B"/>
<g opacity="0.1">
<path opacity="0.1" d="M167.229 29.1573C167.342 25.9312 166.768 22.7179 165.545 19.7306C161.732 20.2996 157.555 17.3578 154.083 19.1176C151.513 20.4199 150.707 23.6843 150.563 26.5616C150.528 27.3213 150.522 28.0809 150.537 28.8406C150.537 28.5707 150.537 28.2979 150.563 28.0281C150.698 25.1508 151.505 21.8864 154.083 20.5841C157.555 18.8243 161.726 21.7573 165.545 21.1971C166.581 23.7275 167.151 26.4242 167.229 29.1573Z" fill="black"/>
<path opacity="0.1" d="M137.681 28.6206C137.732 27.9815 137.719 27.339 137.643 26.7024C137.332 24.1214 135.921 21.6547 135.666 19.1382C135.338 22.1738 137.271 25.0893 137.643 28.1689C137.681 28.3273 137.681 28.4681 137.681 28.6206Z" fill="black"/>
<path opacity="0.1" d="M153.135 54.9414C152.954 57.1177 152.44 59.4436 150.789 60.8866C149.138 62.3297 146.096 62.2505 145.178 60.2736C144.885 59.687 144.841 59.0036 144.556 58.417C143.905 57.0737 142.304 56.5516 140.905 56.0266C136.93 54.5396 133.097 51.6271 132.243 47.4593C132.167 47.0817 132.115 46.6997 132.088 46.3154C132.016 47.1885 132.068 48.0674 132.243 48.9258C133.097 53.0819 136.936 56.0061 140.905 57.4931C142.304 58.0181 143.905 58.5402 144.556 59.8835C144.85 60.4701 144.899 61.1477 145.178 61.7401C146.102 63.717 149.149 63.7932 150.789 62.3531C152.428 60.913 152.939 58.5842 153.135 56.4079C153.225 55.2625 153.255 54.1132 153.226 52.9646C153.226 53.6304 153.188 54.2874 153.135 54.9414Z" fill="black"/>
<path opacity="0.1" d="M175.79 33.4569C175.79 33.8822 175.79 34.3046 175.79 34.7269C175.954 29.2715 177.955 23.7868 177.758 18.4458C177.606 23.385 175.901 28.4356 175.79 33.4569Z" fill="black"/>
<path opacity="0.1" d="M169.495 55.5248C169.567 55.1768 169.59 54.8204 169.563 54.466C169.445 53.707 169.178 52.9785 168.78 52.322C167.084 49.0957 165.151 45.7931 164.923 42.2119C164.923 42.3644 164.902 42.5052 164.899 42.6695C164.782 46.6408 166.926 50.2748 168.78 53.7885C169.095 54.3327 169.335 54.9167 169.495 55.5248Z" fill="black"/>
<path opacity="0.1" d="M177.476 51.2809C177.257 54.8343 176.246 58.2937 174.517 61.4057C172.968 64.2243 170.232 67.0312 167.061 66.4886C166.777 66.4641 166.51 66.343 166.304 66.1454C166.245 66.0782 166.198 66.0007 166.166 65.9166C166.131 66.1454 166.102 66.3771 166.084 66.6118C166.024 66.9611 166.103 67.3203 166.304 67.6119C166.51 67.8095 166.777 67.9306 167.061 67.9551C170.232 68.4977 172.968 65.6908 174.517 62.8722C176.246 59.7602 177.257 56.3008 177.476 52.7474C177.511 52.0611 177.514 51.3777 177.494 50.6943C177.488 50.8908 177.488 51.0844 177.476 51.2809Z" fill="black"/>
</g>
<path opacity="0.1" d="M177.954 139.576C177.954 139.576 185.378 142.691 190.273 135.798" stroke="black" stroke-miterlimit="10"/>
<path opacity="0.1" d="M179.415 145.02C179.415 145.02 185.478 141.078 193.2 144.891" stroke="black" stroke-miterlimit="10"/>
<path opacity="0.1" d="M138.834 144.125C138.834 144.125 141.38 138.382 148.179 142.761" stroke="black" stroke-miterlimit="10"/>
<path opacity="0.1" d="M130.58 59.1969L135.772 54.5041C135.772 54.5041 155.901 53.1842 156.734 60.0269C156.734 60.0269 163.87 51.9142 178.878 53.721L185.228 58.7775L167.677 66.4796L150.621 72.3954L138.059 66.7729L130.58 59.1969Z" fill="black"/>
<path d="M130.58 59.4904L135.772 54.7975C135.772 54.7975 155.901 53.4777 156.734 60.3204C156.734 60.3204 163.87 52.2077 178.878 54.0144L185.228 59.0709L167.677 66.773L150.621 72.6889L138.059 67.0663L130.58 59.4904Z" fill="#D5D6DB"/>
<path opacity="0.1" d="M128.284 60.0767L130.581 87.5502L154.925 88.7732L153.869 61.417L153.848 60.9566L128.284 60.0767Z" fill="black"/>
<path d="M128.284 59.4902L130.581 86.9637L154.925 88.1868L153.869 60.8306L153.848 60.3701L128.284 59.4902Z" fill="#8BC34B"/>
<path opacity="0.1" d="M186.343 59.4902L161.23 63.2562V90.8529L185.771 87.3069L186.343 59.4902Z" fill="black"/>
<path d="M186.343 58.9038L161.23 62.6698V90.2665L185.771 86.7205L186.343 58.9038Z" fill="#8BC34B"/>
<path opacity="0.3" d="M180.422 65.6377L166.856 67.1453L167.153 71.7677L180.413 70.3188L180.422 65.6377Z" fill="white"/>
<path d="M131.9 101.676L133.281 105.392C133.281 105.392 135.335 107.152 137.581 106.272C139.828 105.392 141.787 104.955 142.764 104.099C143.741 103.242 145.11 98.9394 145.11 98.9394C145.11 98.9394 146.48 94.2465 147.847 93.0733C149.214 91.9001 152.833 75.7363 147.847 77.3172C142.861 78.8981 139.048 93.5632 139.048 93.5632C139.048 93.5632 138.168 94.6366 136.898 94.7364C135.628 94.8361 133.085 94.5398 132.595 95.6163C132.105 96.6927 130.434 99.5259 131.9 101.676Z" fill="#BE6F72"/>
<path opacity="0.1" d="M161.23 63.2531C159.944 63.5428 158.609 63.5276 157.33 63.2088C156.051 62.89 154.864 62.2764 153.865 61.417L154.924 88.7703C154.924 88.7703 157.417 91.4686 161.23 90.8527V63.2531Z" fill="black"/>
<path d="M161.23 62.6666C159.944 62.9563 158.609 62.9412 157.33 62.6224C156.051 62.3036 154.864 61.6899 153.865 60.8306L154.924 88.1838C154.924 88.1838 157.417 90.8822 161.23 90.2662V62.6666Z" fill="#8BC34B"/>
<path opacity="0.1" d="M161.23 62.6666C159.944 62.9563 158.609 62.9412 157.33 62.6224C156.051 62.3036 154.864 61.6899 153.865 60.8306L154.924 88.1838C154.924 88.1838 157.417 90.8822 161.23 90.2662V62.6666Z" fill="black"/>
<path opacity="0.1" d="M161.817 59.5841C161.817 59.5841 172.033 56.4604 174.696 56.9004L161.817 59.5841Z" fill="black"/>
<path opacity="0.1" d="M150.39 58.2205C150.39 58.2205 140.488 55.874 138.834 56.5398L150.39 58.2205Z" fill="black"/>
<path opacity="0.1" d="M168.258 59.9744C168.258 59.9744 175.089 57.4696 177.558 58.6604L168.258 59.9744Z" fill="black"/>
<path opacity="0.1" d="M164.817 122.808C165.876 122.013 167.003 121.313 168.184 120.717C169.944 119.869 173.171 117.669 173.171 117.669" fill="black"/>
<path opacity="0.1" d="M138.834 92.8765C138.834 92.8765 134.549 96.3814 133.261 96.6894C131.974 96.9973 131.179 99.7309 131.179 99.7309" fill="black"/>
<path d="M183.824 101.154L182.457 104.879C182.457 104.879 180.404 106.639 178.154 105.759C175.905 104.879 173.951 104.442 172.972 103.585C171.992 102.729 170.625 98.4262 170.625 98.4262C170.625 98.4262 169.259 93.7334 167.889 92.5602C166.519 91.387 162.903 75.2231 167.889 76.804C172.875 78.3849 176.688 93.05 176.688 93.05C176.688 93.05 177.568 94.1235 178.838 94.2232C180.108 94.3229 182.651 94.0267 183.141 95.1031C183.63 96.1795 185.29 99.0128 183.824 101.154Z" fill="#BE6F72"/>
<path opacity="0.1" d="M181.427 94.3022C181.427 94.3022 184.228 96.1031 184.216 98.2559L181.427 94.3022Z" fill="black"/>
<path d="M157.661 42.1005C164.897 42.1005 170.763 36.2346 170.763 28.9987C170.763 21.7628 164.897 15.897 157.661 15.897C150.425 15.897 144.56 21.7628 144.56 28.9987C144.56 36.2346 150.425 42.1005 157.661 42.1005Z" fill="#BE6F72"/>
<path d="M149.434 25.4819C151.024 25.2326 152.417 24.3087 153.936 23.7778C157.335 22.5841 161.095 23.4024 164.536 24.4788C165.856 24.8924 167.196 25.3587 168.581 25.3587C169.965 25.3587 171.434 24.7927 172.141 23.5989C172.792 22.502 172.666 21.0765 172.118 19.9239C171.569 18.7712 170.651 17.8444 169.724 16.9703C166.674 14.0901 162.89 11.3976 158.705 11.6909C157.022 11.8112 155.411 12.4124 153.863 13.0782C151.913 13.9185 150.015 14.8744 148.178 15.9408C146.768 16.7591 144.154 17.8532 143.342 19.349C141.494 22.719 146.559 25.9336 149.434 25.4819Z" fill="#3E373A"/>
<path opacity="0.1" d="M172.141 22.3674C171.435 23.5611 169.965 24.1272 168.581 24.1272C167.196 24.1272 165.856 23.6784 164.533 23.2649C161.093 22.1885 157.336 21.3672 153.933 22.5639C152.417 23.0948 151.021 24.0304 149.431 24.265C147.114 24.6287 143.383 22.6108 142.978 20.0444C142.524 23.0097 146.85 25.5497 149.431 25.1449C151.021 24.8956 152.417 23.9717 153.933 23.4438C157.336 22.2471 161.093 23.0684 164.533 24.1448C165.856 24.5583 167.193 25.0247 168.581 25.0071C169.968 24.9895 171.435 24.444 172.141 23.2473C172.508 22.5963 172.652 21.8436 172.552 21.1033C172.506 21.549 172.366 21.9799 172.141 22.3674Z" fill="black"/>
<path d="M278.466 181.322C278.466 181.322 280.205 183.595 277.662 187.029C275.119 190.464 273.025 193.362 273.87 195.503C273.87 195.503 277.706 189.127 280.827 189.036C283.948 188.945 281.895 185.155 278.466 181.322Z" fill="#8BC34B"/>
<path opacity="0.1" d="M278.466 181.322C278.618 181.541 278.737 181.781 278.821 182.034C281.866 185.613 283.49 188.953 280.56 189.036C277.833 189.115 274.562 193.992 273.779 195.221C273.804 195.321 273.835 195.419 273.87 195.515C273.87 195.515 277.707 189.138 280.827 189.047C283.948 188.956 281.895 185.155 278.466 181.322Z" fill="black"/>
<path d="M281.692 184.219C281.692 185.02 281.601 185.668 281.492 185.668C281.384 185.668 281.29 185.02 281.29 184.219C281.29 183.418 281.401 183.797 281.513 183.797C281.624 183.797 281.692 183.418 281.692 184.219Z" fill="#FFD037"/>
<path d="M282.804 185.176C282.103 185.557 281.49 185.789 281.437 185.692C281.384 185.595 281.909 185.205 282.61 184.812C283.311 184.419 283.036 184.706 283.089 184.812C283.141 184.917 283.508 184.791 282.804 185.176Z" fill="#FFD037"/>
<path d="M269.274 181.322C269.274 181.322 267.535 183.595 270.078 187.029C272.621 190.464 274.715 193.362 273.867 195.503C273.867 195.503 270.034 189.127 266.91 189.036C263.786 188.945 265.854 185.155 269.274 181.322Z" fill="#8BC34B"/>
<path opacity="0.1" d="M269.274 181.322C269.123 181.541 269.003 181.781 268.919 182.034C265.875 185.613 264.25 188.953 267.18 189.036C269.905 189.115 273.178 193.992 273.961 195.221C273.936 195.321 273.905 195.419 273.867 195.515C273.867 195.515 270.034 189.138 266.91 189.047C263.786 188.956 265.854 185.155 269.274 181.322Z" fill="black"/>
<path d="M266.042 184.219C266.042 185.02 266.13 185.668 266.241 185.668C266.353 185.668 266.444 185.02 266.444 184.219C266.444 183.418 266.329 183.797 266.221 183.797C266.112 183.797 266.042 183.418 266.042 184.219Z" fill="#FFD037"/>
<path d="M264.933 185.176C265.634 185.557 266.247 185.789 266.299 185.692C266.352 185.595 265.827 185.205 265.126 184.812C264.425 184.419 264.701 184.706 264.648 184.812C264.595 184.917 264.229 184.791 264.933 185.176Z" fill="#FFD037"/>
<path opacity="0.1" d="M273.87 212.901C283.913 212.901 292.055 211.653 292.055 210.112C292.055 208.572 283.913 207.323 273.87 207.323C263.827 207.323 255.686 208.572 255.686 210.112C255.686 211.653 263.827 212.901 273.87 212.901Z" fill="#8BC34B"/>
<path d="M283.229 192.438L283.141 193.148L283.018 194.151L282.968 194.57L282.845 195.573L282.792 195.993L282.672 196.993L281.278 208.402C281.155 209.42 279.492 210.215 277.483 210.215H270.253C268.244 210.215 266.584 209.42 266.458 208.402L265.065 196.993L264.942 195.993L264.892 195.573L264.769 194.57L264.716 194.151L264.595 193.148L264.507 192.438C264.44 191.851 265.338 191.376 266.476 191.376H281.264C282.399 191.376 283.299 191.86 283.229 192.438Z" fill="#65617D"/>
<path d="M283.141 193.147L283.021 194.151H264.719L264.596 193.147H283.141Z" fill="#9D9CB5"/>
<path d="M282.968 194.57L282.848 195.573H264.892L264.769 194.57H282.968Z" fill="#9D9CB5"/>
<path d="M282.795 195.993L282.671 196.996H265.065L264.944 195.993H282.795Z" fill="#9D9CB5"/>
</g>
<defs>
<linearGradient id="paint0_linear" x1="160.33" y1="147.214" x2="160.33" y2="0.000230203" gradientUnits="userSpaceOnUse">
<stop stop-color="#808080" stop-opacity="0.25"/>
<stop offset="0.54" stop-color="#808080" stop-opacity="0.12"/>
<stop offset="1" stop-color="#808080" stop-opacity="0.1"/>
</linearGradient>
<clipPath id="clip0">
<rect width="300" height="238.501" fill="white"/>
</clipPath>
</defs>
</svg>
