<svg viewBox="0 0 300 219" fill="none" xmlns="http://www.w3.org/2000/svg">
<g clip-path="url(#clip0)">
<path d="M220.638 0.125H0.09375V141.371H220.638V0.125Z" fill="#E6E6E6"/>
<path d="M214.332 17.8408H6.40039V133.015H214.332V17.8408Z" fill="white"/>
<path d="M220.544 0H0V9.36954H220.544V0Z" fill="#8BC34B"/>
<path d="M6.96313 6.52685C7.92221 6.52685 8.6997 5.74936 8.6997 4.79028C8.6997 3.8312 7.92221 3.05371 6.96313 3.05371C6.00405 3.05371 5.22656 3.8312 5.22656 4.79028C5.22656 5.74936 6.00405 6.52685 6.96313 6.52685Z" fill="white"/>
<path d="M13.554 6.52685C14.513 6.52685 15.2905 5.74936 15.2905 4.79028C15.2905 3.8312 14.513 3.05371 13.554 3.05371C12.5949 3.05371 11.8174 3.8312 11.8174 4.79028C11.8174 5.74936 12.5949 6.52685 13.554 6.52685Z" fill="white"/>
<path d="M20.1457 6.52685C21.1048 6.52685 21.8823 5.74936 21.8823 4.79028C21.8823 3.8312 21.1048 3.05371 20.1457 3.05371C19.1867 3.05371 18.4092 3.8312 18.4092 4.79028C18.4092 5.74936 19.1867 6.52685 20.1457 6.52685Z" fill="white"/>
<path d="M72.6527 27.314H31.9844V71.4354H72.6527V27.314Z" fill="#E6E6E6"/>
<path d="M130.7 27.314H90.0312V71.4354H130.7V27.314Z" fill="#E6E6E6"/>
<path d="M188.747 27.314H148.079V71.4354H188.747V27.314Z" fill="#E6E6E6"/>
<path d="M72.6527 79.4219H31.9844V123.543H72.6527V79.4219Z" fill="#E6E6E6"/>
<path d="M130.7 79.4219H90.0312V123.543H130.7V79.4219Z" fill="#E6E6E6"/>
<path d="M188.747 79.4219H148.079V123.543H188.747V79.4219Z" fill="#E6E6E6"/>
<path d="M99.861 90.7614L107.292 87.8237L108.156 102.512C108.156 102.512 109.711 107.005 109.192 108.733C109.192 108.733 109.538 111.671 108.674 111.843C107.81 112.016 105.391 112.362 105.218 112.189C105.045 112.016 105.045 111.498 105.045 111.498C105.045 111.498 103.317 112.707 103.144 114.09C103.144 114.09 95.8865 116.336 95.7137 114.263C95.5409 112.189 99.3426 110.461 99.3426 110.461L102.28 105.968L99.861 90.7614Z" fill="white"/>
<path d="M115.587 90.7614L123.017 87.8237L123.881 102.512C123.881 102.512 125.436 107.005 124.918 108.733C124.918 108.733 125.264 111.671 124.4 111.843C123.536 112.016 121.116 112.362 120.944 112.189C120.771 112.016 120.771 111.498 120.771 111.498C120.771 111.498 119.043 112.707 118.87 114.09C118.87 114.09 111.612 116.336 111.439 114.263C111.267 112.189 115.068 110.461 115.068 110.461L118.006 105.968L115.587 90.7614Z" fill="white"/>
<path d="M116.313 34.0399C116.313 34.0399 114.731 38.4608 116.564 40.4544L115.036 45.7061C115.036 45.7061 120.466 61.9964 118.914 64.2718C118.914 64.2718 113.122 67.1679 101.538 63.2375L106.244 44.9821L105.572 37.2766L106.503 33.6566L108.571 33.4497C108.571 33.4497 107.33 38.1041 109.606 38.8281C111.881 39.5521 114.101 33.5659 114.101 33.5659L116.313 34.0399Z" fill="#3F3D56"/>
<path d="M43.2461 62.5797L45.2427 63.3965L54.7721 50.8722L57.767 65.5747L59.7637 65.2116C61.0445 52.5362 62.0889 39.6073 60.8074 33.4924L53.4108 33.1748L50.0528 43.884L48.4192 51.1445L43.2461 62.5797Z" fill="white"/>
<path d="M164.428 33.3906C164.428 33.3906 161.703 37.1789 161.836 38.7075C161.969 40.2361 163.697 65.159 163.697 65.159L167.751 65.3584L166.554 47.4139L167.551 42.5623L170.01 65.159L174.995 65.2919L170.542 35.9826L169.678 33.3906L164.428 33.3906Z" fill="white"/>
<path d="M179.829 94.4187C179.105 93.5505 177.862 93.081 176.667 92.8274C176.703 92.7188 173.035 91.9612 172.974 92.1173L171.591 91.0161L167.344 93.2215L164.958 91.5968L163.849 91.9903C163.894 91.7948 160.407 92.3986 160.407 92.3986C159.741 92.4225 158.89 92.4642 157.938 92.5374C154.603 92.794 154.347 101.431 154.347 101.431C155.881 100.803 157.517 100.46 159.174 100.42L160.076 110.751C164.712 110.354 169.574 110.816 174.613 111.948L176.976 103.827L182.48 101.687C182.48 101.687 181.539 96.4709 179.829 94.4187Z" fill="#3F3D56"/>
<path d="M61.7248 89.4999C61.1286 88.7845 60.1039 88.3977 59.1197 88.1887C59.1493 88.0992 56.1269 87.475 56.0764 87.6036L54.9373 86.6963L51.438 88.5135L49.4714 87.1748L48.5579 87.499C48.5952 87.3379 45.7221 87.8354 45.7221 87.8354C45.1734 87.8551 44.4723 87.8895 43.6877 87.9498C40.9399 88.1612 40.7285 95.2774 40.7285 95.2774C41.9928 94.7602 43.3408 94.4779 44.7064 94.4445L45.4492 115.282C49.2691 114.954 53.2754 115.335 57.4269 116.268L59.3741 97.2523L63.909 95.4887C63.909 95.4887 63.1339 91.1908 61.7248 89.4999Z" fill="white"/>
<path d="M209.692 209.561L182.182 215.192L181.555 215.128L157.379 212.688V182.051L186.974 177.047L208.442 179.551L208.45 179.687V179.751L209.692 209.561Z" fill="#E6E6E6"/>
<path opacity="0.1" d="M209.692 209.561L182.182 215.192L181.555 215.128V183.72L208.45 179.687L209.692 209.561Z" fill="black"/>
<path opacity="0.05" d="M208.45 179.751L208.442 179.759L181.555 183.72L157.379 182.051L186.974 177.047L208.442 179.551L208.45 179.687V179.751Z" fill="black"/>
<path d="M177.433 193.835L160.707 192.744L160.195 200.595L176.921 201.686L177.433 193.835Z" fill="white"/>
<path d="M173.341 196.139L164.466 195.56L164.288 198.29L173.163 198.87L173.341 196.139Z" fill="#8BC34B"/>
<path d="M246.978 209.561L219.468 215.192L218.841 215.128L194.665 212.688V182.051L224.26 177.047L245.728 179.551L245.736 179.687V179.751L246.978 209.561Z" fill="#8BC34B"/>
<path opacity="0.1" d="M246.978 209.561L219.468 215.192L218.841 215.128V183.72L245.736 179.687L246.978 209.561Z" fill="black"/>
<path opacity="0.05" d="M245.736 179.751L245.728 179.759L218.841 183.72L194.665 182.051L224.26 177.047L245.728 179.551L245.736 179.687V179.751Z" fill="black"/>
<path d="M214.719 193.835L197.993 192.744L197.481 200.595L214.207 201.686L214.719 193.835Z" fill="white"/>
<path d="M210.627 196.139L201.752 195.56L201.574 198.29L210.449 198.87L210.627 196.139Z" fill="#8BC34B"/>
<path d="M266.886 56.6548C266.886 56.6548 271.739 69.194 262.841 69.194C253.942 69.194 276.593 81.7333 285.492 74.4524C294.391 67.1716 289.133 66.7671 289.133 66.7671C289.133 66.7671 277.402 67.9806 277.807 57.4638L266.886 56.6548Z" fill="#FFB8B8"/>
<path d="M273.209 60.4292C281.109 60.4292 287.514 54.0245 287.514 46.1238C287.514 38.2231 281.109 31.8184 273.209 31.8184C265.308 31.8184 258.903 38.2231 258.903 46.1238C258.903 54.0245 265.308 60.4292 273.209 60.4292Z" fill="#2F2E41"/>
<path d="M264.458 108.834L249.088 148.475C249.088 148.475 241.402 160.609 244.234 172.744C247.065 184.879 254.846 206.964 254.846 206.964C254.846 206.964 260.724 208.46 260.319 203.201C259.915 197.943 260.571 172.449 254.504 165.573L279.02 137.553L279.829 169.508C279.829 169.508 278.211 184.07 278.616 190.542C279.02 197.014 279.829 207.935 279.829 207.935L284.683 207.126C284.683 207.126 291.231 177.333 290.422 167.625C290.422 167.625 305.451 120.456 290.08 109.131L264.458 108.834Z" fill="#2F2E41"/>
<path d="M256.535 206.898C256.535 206.898 254.556 206.394 254.328 208.209C254.1 210.024 249.938 218.096 254.284 218.5C258.63 218.905 260.133 214.839 260.861 211.98C261.589 209.121 261.865 208.957 262.473 208.41C263.08 207.862 264.527 204.861 262.712 204.633C260.897 204.405 259.966 202.62 259.966 202.62C259.966 202.62 259.394 207.626 256.535 206.898Z" fill="#2F2E41"/>
<path d="M282.998 205.494C282.998 205.494 279.328 204.97 279.59 206.281C279.852 207.592 279.066 213.097 279.59 213.621C280.114 214.146 281.163 215.195 281.163 215.981C281.163 216.768 281.425 219.389 285.882 218.603C290.339 217.816 289.29 213.884 289.028 213.359C288.766 212.835 285.62 210.213 285.882 208.64C286.144 207.067 284.571 204.446 282.998 205.494Z" fill="#2F2E41"/>
<path d="M273.385 61.9983C278.857 61.9983 283.294 57.5621 283.294 52.0897C283.294 46.6174 278.857 42.1812 273.385 42.1812C267.913 42.1812 263.477 46.6174 263.477 52.0897C263.477 57.5621 267.913 61.9983 273.385 61.9983Z" fill="#FFB8B8"/>
<path d="M282.862 65.7558C282.862 65.7558 286.319 72.5935 275.901 72.7874C272.699 72.847 268.89 70.5132 267.318 67.7226C266.392 66.0786 266.158 68.3492 264.66 68.1828C261.824 67.8676 258.794 69.0442 256.083 70.4861C255.732 70.6719 255.458 70.9736 255.305 71.3396C255.153 71.7056 255.132 72.1132 255.247 72.4927C257.303 79.315 263.175 112.133 264.082 113.919C266.397 118.482 291.448 110.841 291.448 110.841C291.791 98.4255 287.285 81.0558 295.211 68.4233C293.467 67.1132 291.461 66.1964 289.329 65.7359C287.197 65.2754 284.991 65.2822 282.862 65.7558Z" fill="#575A89"/>
<path d="M282.651 44.4705L275.391 40.668L265.366 42.2234L263.292 51.3845L268.455 51.1858L269.897 47.8201V51.1303L272.28 51.0387L273.663 45.6804L274.527 51.3845L282.996 51.2114L282.651 44.4705Z" fill="#2F2E41"/>
<path d="M273.962 35.5828C277.15 35.5828 279.734 32.9984 279.734 29.8105C279.734 26.6225 277.15 24.0381 273.962 24.0381C270.774 24.0381 268.189 26.6225 268.189 29.8105C268.189 32.9984 270.774 35.5828 273.962 35.5828Z" fill="#2F2E41"/>
<path d="M266.683 28.0536C266.683 26.6749 267.177 25.3416 268.074 24.2951C268.972 23.2485 270.215 22.5578 271.577 22.3477C270.755 22.2218 269.915 22.2752 269.115 22.5042C268.316 22.7331 267.575 23.1322 266.944 23.6741C266.313 24.216 265.806 24.8879 265.459 25.6438C265.111 26.3997 264.932 27.2218 264.932 28.0536C264.932 28.8855 265.111 29.7075 265.459 30.4634C265.806 31.2193 266.313 31.8912 266.944 32.4331C267.575 32.9751 268.316 33.3741 269.115 33.6031C269.915 33.832 270.755 33.8854 271.577 33.7596C270.215 33.5495 268.972 32.8587 268.074 31.8121C267.177 30.7656 266.683 29.4324 266.683 28.0536Z" fill="#2F2E41"/>
<path d="M300 165.434L272.489 171.065L271.862 171.001L247.687 168.561V137.923L277.282 132.92L298.75 135.424L298.758 135.559V135.623L300 165.434Z" fill="#E6E6E6"/>
<path opacity="0.1" d="M300 165.434L272.489 171.064L271.862 171V139.592L298.758 135.559L300 165.434Z" fill="black"/>
<path opacity="0.05" d="M298.758 135.623L298.75 135.631L271.862 139.593L247.687 137.923L277.282 132.92L298.75 135.424L298.758 135.559V135.623Z" fill="black"/>
<path d="M267.742 149.707L251.016 148.616L250.503 156.467L267.229 157.558L267.742 149.707Z" fill="white"/>
<path d="M263.649 152.011L254.773 151.432L254.595 154.163L263.47 154.742L263.649 152.011Z" fill="#8BC34B"/>
<path d="M257.145 130.055C257.145 130.055 247.032 138.145 251.482 140.976C255.931 143.808 261.19 130.055 261.19 130.055H257.145Z" fill="#FFB8B8"/>
<path d="M257.583 70.1336C257.059 69.5433 250.444 72.9166 251.425 77.3172L251.887 107.808C251.887 107.808 249.46 132.886 255.527 132.886C261.594 132.886 260.878 133.73 261.687 131.707C262.496 129.685 262.714 112.551 262.714 112.551L257.583 70.1336Z" fill="#575A89"/>
<path d="M288.867 127.318C288.867 127.318 294.126 141.071 298.575 138.24C303.024 135.408 292.912 127.318 292.912 127.318H288.867Z" fill="#FFB8B8"/>
<path d="M290.08 110.157C290.08 110.157 287.561 126.948 288.37 128.971C289.179 130.993 288.463 130.15 294.53 130.15C300.597 130.15 298.17 105.071 298.17 105.071L298.632 74.5809C299.613 70.1803 292.998 66.807 292.474 67.3973L286.659 87.2376L290.08 110.157Z" fill="#575A89"/>
</g>
<defs>
<clipPath id="clip0">
<rect width="300" height="218.748" fill="white"/>
</clipPath>
</defs>
</svg>
