<svg viewBox="0 0 505 414" fill="none" xmlns="http://www.w3.org/2000/svg">
<path d="M356.443 279.193L360.441 278.429L361.585 278.187C355.163 274.367 350.232 268.477 347.602 261.484C344.971 254.491 344.798 246.812 347.11 239.707C349.422 232.602 354.082 226.496 360.325 222.39C366.567 218.285 374.02 216.425 381.46 217.116L376.439 229.721L388.686 218.617H388.774C397.063 221.364 403.921 227.291 407.84 235.094C411.759 242.897 412.418 251.937 409.672 260.226C409.474 260.82 409.238 261.392 409.012 261.969C412.493 260.138 415.826 258.015 418.526 255.331C423.993 249.893 426.908 242.474 430.141 233.334C436.559 215.235 442.718 196.884 448.614 178.494C441.66 174.897 436.216 168.94 433.26 161.691C430.304 154.441 430.029 146.376 432.484 138.942C432.803 137.985 433.171 137.061 433.584 136.154C433.676 135.927 433.775 135.701 433.881 135.478C434.282 134.609 434.706 133.756 435.179 132.937C435.25 132.805 435.338 132.678 435.415 132.546C435.828 131.854 436.257 131.183 436.713 130.534C436.884 130.286 437.049 130.044 437.225 129.802C437.741 129.104 438.275 128.416 438.841 127.767C439.034 127.547 439.232 127.344 439.424 127.13C439.864 126.651 440.31 126.189 440.772 125.738C441.014 125.502 441.25 125.265 441.503 125.04C441.564 124.979 441.624 124.913 441.69 124.858C447.394 119.697 454.726 116.698 462.411 116.38C470.097 116.063 477.651 118.448 483.761 123.12L477.228 139.525L489.327 128.526C493.738 133.934 496.306 140.609 496.656 147.579C497.007 154.548 495.121 161.447 491.273 167.27H491.306C491.18 167.468 491.031 167.655 490.894 167.853C490.641 168.221 490.382 168.578 490.118 168.952C489.777 169.409 489.42 169.854 489.057 170.289C488.782 170.619 488.507 170.949 488.227 171.268C487.814 171.73 487.374 172.17 486.934 172.61C486.676 172.863 486.428 173.132 486.164 173.379C485.468 174.025 484.747 174.639 484.003 175.222C483.739 175.425 483.453 175.601 483.195 175.799C482.672 176.184 482.144 176.564 481.6 176.899C481.259 177.119 480.912 177.317 480.566 177.526C480.065 177.823 479.565 178.109 479.048 178.378C478.685 178.571 478.317 178.758 477.948 178.928C477.398 179.181 476.881 179.418 476.342 179.643C475.979 179.792 475.616 179.946 475.242 180.083C474.632 180.309 474.016 180.512 473.389 180.699C473.076 180.798 472.768 180.908 472.449 180.996C471.519 181.255 470.573 181.475 469.616 181.645C469.435 181.678 469.248 181.695 469.066 181.728C468.269 181.854 467.472 181.964 466.669 182.036C466.322 182.069 465.97 182.079 465.624 182.096C464.975 182.134 464.32 182.162 463.666 182.156C463.281 182.156 462.896 182.156 462.511 182.129C461.873 182.129 461.235 182.063 460.592 182.003C460.212 181.964 459.833 181.926 459.453 181.876C458.766 181.788 458.079 181.662 457.391 181.524H457.259C454.77 189.286 452.231 197.029 449.642 204.754C452.918 201.694 456.784 199.336 461.004 197.824C465.224 196.313 469.708 195.68 474.182 195.964C478.655 196.249 483.023 197.444 487.017 199.478C491.012 201.511 494.549 204.339 497.411 207.789L486.23 220.636L501.519 214.196C503.446 218.047 504.596 222.24 504.903 226.535C505.21 230.83 504.667 235.144 503.306 239.229C502.358 242.128 501.002 244.878 499.281 247.396C495.575 252.852 490.315 257.069 484.183 259.5C478.052 261.93 471.331 262.462 464.893 261.026C458.456 259.591 452.598 256.253 448.08 251.448C443.562 246.642 440.592 240.59 439.556 234.076C439.281 234.857 439.006 235.644 438.742 236.425C435.883 244.481 432.33 254.507 424.95 261.848C419.945 266.798 413.736 270.037 407.775 272.77C403.892 274.548 399.955 276.198 395.962 277.72C391.541 280.506 386.522 282.202 381.317 282.669C375.007 284.55 368.619 286.126 362.151 287.398L358.12 288.174C354.501 288.861 350.789 289.571 347.121 290.374C347.671 290.522 348.221 290.665 348.727 290.841C355.36 293.039 361.122 297.29 365.179 302.98C369.235 308.67 371.376 315.503 371.291 322.49L346.098 330.739L369.092 333.951C367.091 339.146 363.807 343.749 359.545 347.33C355.283 350.911 350.183 353.354 344.722 354.43C339.26 355.506 333.614 355.18 328.313 353.483C323.011 351.785 318.226 348.772 314.405 344.724L315.147 347.045C315.642 348.579 316.132 350.108 316.605 351.62C323.028 372.243 320.74 388.598 310.154 397.683L304.198 390.732C314.498 381.889 310.918 364.143 307.871 354.348C307.402 352.86 306.924 351.36 306.436 349.85C302.262 336.866 297.527 322.155 303.043 308.445C311.347 287.783 336.348 283.021 356.443 279.193Z" fill="#F2F2F2"/>
<path d="M125.185 207.239L121.731 205.089L120.746 204.457C128.111 203.192 134.827 199.46 139.789 193.874C144.752 188.288 147.666 181.179 148.053 173.717C148.44 166.255 146.277 158.883 141.919 152.813C137.561 146.743 131.268 142.336 124.074 140.317L124.244 153.884L116.787 139.129H116.699C112.38 138.927 108.065 139.578 103.998 141.044C99.9307 142.51 96.1924 144.763 92.9961 147.674C89.7998 150.584 87.2081 154.096 85.369 158.009C83.53 161.921 82.4795 166.157 82.2777 170.476C82.2502 171.103 82.2777 171.724 82.2777 172.34C79.6819 169.387 77.3282 166.214 75.7718 162.738C72.6151 155.699 72.5546 147.73 72.8076 138.046C73.3025 118.847 74.1275 99.5061 75.2109 80.2252C82.9922 79.3598 90.21 75.748 95.5675 70.0388C100.925 64.3296 104.071 56.8971 104.441 49.0766C104.49 48.0702 104.474 47.0748 104.441 46.0904C104.441 45.843 104.441 45.5955 104.402 45.3535C104.342 44.3966 104.248 43.4452 104.105 42.5158C104.105 42.3618 104.045 42.2134 104.023 42.0594C103.885 41.273 103.72 40.492 103.533 39.7166C103.462 39.4307 103.396 39.1392 103.313 38.8532C103.082 38.0173 102.829 37.2034 102.538 36.373C102.439 36.098 102.323 35.8231 102.219 35.5701C101.982 34.9652 101.729 34.3767 101.46 33.7938C101.322 33.4858 101.179 33.1778 101.031 32.8754C100.992 32.7929 100.959 32.7159 100.921 32.6389C97.4448 25.7665 91.6671 20.3321 84.5948 17.2829C77.5226 14.2338 69.6046 13.7634 62.2211 15.9537L62.4466 33.6068L55.0718 19.0224C49.0151 22.4885 44.2252 27.8002 41.4015 34.1816C38.5778 40.5631 37.8682 47.6801 39.3763 54.4935H39.3378C39.3873 54.7245 39.4643 54.95 39.5193 55.1809C39.6238 55.6209 39.7338 56.0498 39.8548 56.4788C40.0087 57.0287 40.1792 57.5787 40.3662 58.1286C40.5037 58.5356 40.6357 58.9425 40.7897 59.344C41.0096 59.9269 41.2626 60.4933 41.5156 61.0598C41.6696 61.3897 41.8016 61.7307 41.9611 62.0552C42.379 62.9094 42.8318 63.7398 43.3194 64.5464C43.4899 64.8324 43.6824 65.0963 43.8694 65.3768C44.2213 65.9268 44.5788 66.4767 44.9693 66.9881C45.2112 67.3126 45.4642 67.6206 45.7117 67.9395C46.0692 68.396 46.4376 68.8469 46.8116 69.2814C47.0866 69.5894 47.3615 69.8918 47.6475 70.1943C48.049 70.6177 48.4669 71.0302 48.8904 71.4371C49.1764 71.7066 49.4403 71.9871 49.7538 72.2401C50.2433 72.669 50.7492 73.076 51.2607 73.4829C51.5191 73.6809 51.7666 73.8954 52.0306 74.0934C52.8115 74.6433 53.6144 75.1932 54.4449 75.7157C54.6043 75.8147 54.7693 75.8917 54.9288 75.9851C55.6217 76.3921 56.3312 76.7771 57.0571 77.1345C57.3651 77.2885 57.6895 77.4205 58.0085 77.5635C58.6025 77.8329 59.2019 78.1134 59.8123 78.3224C60.1698 78.4599 60.5328 78.5864 60.9122 78.7128C61.5227 78.9163 62.1331 79.1033 62.7546 79.2628C63.1212 79.3654 63.4878 79.4644 63.8544 79.5598C64.5309 79.7192 65.2183 79.8512 65.9058 79.9722H66.0432C65.5886 88.1113 65.1835 96.2504 64.8279 104.39C62.8676 100.358 60.104 96.7695 56.7066 93.8448C53.3092 90.92 49.3498 88.7205 45.0715 87.3815C40.7933 86.0425 36.2864 85.5921 31.8277 86.058C27.3691 86.524 23.0527 87.8964 19.1437 90.0911L24.9622 106.039L12.9953 94.5456C6.57663 100.413 2.74922 108.588 2.35385 117.275C2.2033 120.322 2.48473 123.375 3.18977 126.343C4.69279 132.766 8.09148 138.588 12.9448 143.055C17.7982 147.522 23.8821 150.427 30.4071 151.394C36.9321 152.36 43.5969 151.343 49.5367 148.474C55.4764 145.606 60.4169 141.018 63.717 135.307C63.717 136.138 63.662 136.957 63.64 137.793C63.42 146.339 63.145 156.975 67.4071 166.472C70.2943 172.906 74.9414 178.131 79.5059 182.816C82.4977 185.867 85.5847 188.818 88.7671 191.67C91.8861 195.867 95.96 199.26 100.651 201.569C105.87 205.589 111.271 209.367 116.853 212.854L120.34 215.021C123.469 216.962 126.68 218.953 129.832 221.032C129.282 220.977 128.732 220.916 128.182 220.889C121.203 220.564 114.302 222.467 108.476 226.322C102.651 230.178 98.2019 235.786 95.7734 242.336L116.336 259.071L93.7111 253.825C93.7219 259.39 95.1428 264.862 97.8413 269.73C100.54 274.597 104.428 278.702 109.142 281.66C113.856 284.618 119.244 286.333 124.8 286.645C130.357 286.957 135.903 285.856 140.919 283.444L139.39 285.347C138.378 286.607 137.371 287.855 136.387 289.098C123.001 306.047 119.278 322.144 125.905 334.413L133.967 330.057C127.516 318.113 137.223 302.83 143.58 294.773C144.543 293.552 145.533 292.326 146.528 291.094C155.074 280.469 164.77 268.426 164.533 253.654C164.176 231.404 142.557 218.002 125.185 207.239Z" fill="#F2F2F2"/>
<path d="M240.327 414C373.056 414 480.654 401.689 480.654 386.503C480.654 371.317 373.056 359.006 240.327 359.006C107.598 359.006 0 371.317 0 386.503C0 401.689 107.598 414 240.327 414Z" fill="#F2F2F2"/>
<path d="M388.395 0H94.4534C88.4396 0 83.5645 4.87508 83.5645 10.8888V369.306C83.5645 375.32 88.4396 380.195 94.4534 380.195H388.395C394.408 380.195 399.284 375.32 399.284 369.306V10.8888C399.284 4.87508 394.408 0 388.395 0Z" fill="#3F3D56"/>
<path d="M383.143 38.3528H97.6211V341.842H383.143V38.3528Z" fill="#302F45"/>
<path d="M241.427 372.969C247.565 372.969 252.541 367.993 252.541 361.855C252.541 355.716 247.565 350.74 241.427 350.74C235.289 350.74 230.312 355.716 230.312 361.855C230.312 367.993 235.289 372.969 241.427 372.969Z" fill="white"/>
<path d="M241.427 27.519C240.381 27.519 239.36 27.209 238.49 26.6283C237.621 26.0476 236.944 25.2222 236.544 24.2565C236.144 23.2908 236.039 22.2282 236.243 21.203C236.447 20.1778 236.95 19.2362 237.69 18.497C238.429 17.7579 239.37 17.2546 240.396 17.0507C241.421 16.8468 242.483 16.9514 243.449 17.3514C244.415 17.7514 245.24 18.4288 245.821 19.2979C246.402 20.167 246.712 21.1888 246.712 22.234C246.71 23.6352 246.153 24.9786 245.162 25.9694C244.171 26.9602 242.828 27.5175 241.427 27.519Z" fill="white"/>
<path d="M241.427 17.2296C242.418 17.2285 243.387 17.5216 244.212 18.0716C245.037 18.6217 245.68 19.4041 246.06 20.3198C246.44 21.2355 246.539 22.2433 246.346 23.2156C246.153 24.1879 245.676 25.0811 244.975 25.7821C244.274 26.4831 243.381 26.9604 242.408 27.1535C241.436 27.3466 240.428 27.247 239.512 26.8671C238.597 26.4872 237.814 25.8442 237.264 25.0195C236.714 24.1948 236.421 23.2254 236.422 22.2341C236.424 20.9072 236.951 19.6352 237.89 18.697C238.828 17.7588 240.1 17.2311 241.427 17.2296ZM241.427 16.6797C240.327 16.6829 239.253 17.0122 238.341 17.6259C237.428 18.2395 236.718 19.1099 236.3 20.1271C235.882 21.1443 235.776 22.2625 235.993 23.3404C236.211 24.4183 236.744 25.4074 237.523 26.1826C238.303 26.9579 239.296 27.4845 240.375 27.6958C241.454 27.9071 242.572 27.7937 243.586 27.3699C244.601 26.946 245.467 26.2309 246.075 25.3147C246.684 24.3986 247.006 23.3227 247.003 22.2231C247.003 21.4932 246.859 20.7705 246.58 20.0962C246.3 19.422 245.891 18.8094 245.374 18.2936C244.858 17.7777 244.245 17.3687 243.571 17.0899C242.896 16.8111 242.173 16.668 241.443 16.6687L241.427 16.6797Z" fill="white"/>
<path d="M130.761 123.736H113.712V126.486H130.761V123.736Z" fill="#3F3D56"/>
<path d="M130.761 143.534H113.712V146.284H130.761V143.534Z" fill="#3F3D56"/>
<path d="M130.761 163.332H113.712V166.082H130.761V163.332Z" fill="#3F3D56"/>
<path d="M130.761 183.13H113.712V185.88H130.761V183.13Z" fill="#3F3D56"/>
<path d="M130.761 202.928H113.712V205.677H130.761V202.928Z" fill="#3F3D56"/>
<path opacity="0.3" d="M217.378 185.484H204.729V245.85H217.378V185.484Z" fill="#8BC34B"/>
<path d="M130.761 222.726H113.712V225.475H130.761V222.726Z" fill="#3F3D56"/>
<path d="M130.761 242.523H113.712V245.273H130.761V242.523Z" fill="#3F3D56"/>
<path d="M136.26 243.623V125.386" stroke="#3F3D56" stroke-miterlimit="10"/>
<path d="M135.985 125.111H366.688" stroke="#3F3D56" stroke-miterlimit="10"/>
<path d="M136.535 144.909H366.688" stroke="#3F3D56" stroke-miterlimit="10"/>
<path d="M136.535 164.707H366.688" stroke="#3F3D56" stroke-miterlimit="10"/>
<path d="M136.535 184.505H366.688" stroke="#3F3D56" stroke-miterlimit="10"/>
<path d="M136.535 204.303H366.688" stroke="#3F3D56" stroke-miterlimit="10"/>
<path d="M136.535 224.1H366.688" stroke="#3F3D56" stroke-miterlimit="10"/>
<path d="M135.985 243.898H366.688" stroke="#3F3D56" stroke-miterlimit="10"/>
<path d="M164.583 224.375H151.934V243.623H164.583V224.375Z" fill="#8BC34B"/>
<path d="M193.455 202.598H180.806V243.623H193.455V202.598Z" fill="#8BC34B"/>
<path d="M251.2 164.503H238.551V243.623H251.2V164.503Z" fill="#8BC34B"/>
<path d="M280.072 145.184H267.423V243.623H280.072V145.184Z" fill="#8BC34B"/>
<path d="M308.944 164.503H296.295V243.623H308.944V164.503Z" fill="#8BC34B"/>
<path d="M337.816 125.282H325.167V243.623H337.816V125.282Z" fill="#8BC34B"/>
<path d="M235.482 181.86C229.658 180.347 223.636 178.818 217.686 179.731C216.959 179.779 216.267 180.059 215.711 180.529C214.969 181.288 215.057 182.591 215.656 183.465C216.321 184.302 217.228 184.915 218.252 185.22C221.035 186.232 224.06 186.32 227.018 186.369C229.977 186.419 232.815 186.485 235.609 185.792C236.255 185.68 236.858 185.392 237.352 184.961C238.936 183.355 236.829 182.211 235.482 181.86Z" fill="#A0616A"/>
<path d="M279.39 196.07C277.441 196.148 275.489 196.025 273.566 195.702C271.85 195.348 270.16 194.882 268.506 194.305L262.517 192.363C259.273 191.388 256.095 190.203 253.003 188.816C247.718 186.314 242.901 182.591 237.17 181.436C236.136 181.227 234.828 181.222 234.294 182.129C234.084 182.565 233.993 183.049 234.03 183.531L233.997 187.755C233.971 188.035 234.016 188.317 234.129 188.574C234.283 188.806 234.493 188.995 234.74 189.124C240.179 192.616 246.332 195.025 251.271 199.194C252.767 200.453 254.136 201.866 255.709 203.043C257.769 204.568 260.129 205.638 262.633 206.183C266.136 206.948 269.936 206.689 273.109 208.35C274.561 209.104 275.859 210.253 277.47 210.55C278.851 210.792 280.248 210.363 281.579 209.939C283.778 209.241 286.039 208.477 287.529 206.75C289.432 204.55 289.564 201.371 289.597 198.462C289.597 197.637 290.147 194.244 289.635 193.612C288.904 192.743 287.765 194.03 287.045 194.431C284.774 195.68 281.958 196.07 279.39 196.07Z" fill="#E6E6F0"/>
<path d="M297.423 174.479C297.423 174.479 301.091 190.125 303.78 192.572C306.469 195.02 284.713 200.403 284.713 200.403C284.713 200.403 289.349 183.278 287.15 180.347C284.95 177.416 297.423 174.479 297.423 174.479Z" fill="#A0616A"/>
<path opacity="0.1" d="M297.423 174.479C297.423 174.479 301.091 190.125 303.78 192.572C306.469 195.02 284.713 200.403 284.713 200.403C284.713 200.403 289.349 183.278 287.15 180.347C284.95 177.416 297.423 174.479 297.423 174.479Z" fill="black"/>
<path d="M262.176 378.864C260.983 379.046 259.762 378.864 258.569 379.007C256.883 379.202 255.322 379.994 254.169 381.24C253.972 381.415 253.814 381.629 253.705 381.869C253.596 382.108 253.539 382.368 253.537 382.631C253.602 382.998 253.781 383.335 254.048 383.594C255.148 384.815 256.748 385.442 258.349 385.794C260.733 386.233 263.157 386.417 265.58 386.343C271.608 386.376 277.637 386.404 283.668 386.426C284.104 384.261 284.04 382.024 283.481 379.887C283.364 379.297 283.106 378.744 282.728 378.276C282.331 377.893 281.865 377.59 281.353 377.385L277.635 375.609C274.682 374.195 272.345 373.145 269.386 374.888C266.988 376.252 264.97 378.435 262.176 378.864Z" fill="#3C354C"/>
<path opacity="0.1" d="M262.176 378.864C260.983 379.046 259.762 378.864 258.569 379.007C256.883 379.202 255.322 379.994 254.169 381.24C253.972 381.415 253.814 381.629 253.705 381.869C253.596 382.108 253.539 382.368 253.537 382.631C253.602 382.998 253.781 383.335 254.048 383.594C255.148 384.815 256.748 385.442 258.349 385.794C260.733 386.233 263.157 386.417 265.58 386.343C271.608 386.376 277.637 386.404 283.668 386.426C284.104 384.261 284.04 382.024 283.481 379.887C283.364 379.297 283.106 378.744 282.728 378.276C282.331 377.893 281.865 377.59 281.353 377.385L277.635 375.609C274.682 374.195 272.345 373.145 269.386 374.888C266.988 376.252 264.97 378.435 262.176 378.864Z" fill="black"/>
<path d="M300.683 393.911C300.763 394.572 300.704 395.242 300.513 395.879C300.018 397.177 298.539 397.771 297.213 398.151C291.164 399.85 284.795 399.988 278.515 400.114C273.802 400.207 268.951 400.279 264.546 398.607C263.638 398.314 262.808 397.818 262.121 397.155C261.778 396.824 261.527 396.408 261.393 395.95C261.259 395.492 261.246 395.007 261.357 394.543C261.703 393.377 262.929 392.75 264.035 392.25L270.057 389.539L281.661 384.314C283.107 383.665 284.614 383.005 286.198 383.049C288.117 383.11 289.827 384.199 291.543 385.062C292.782 385.687 294.069 386.209 295.393 386.624C296.564 386.987 298.209 387.031 299.242 387.658C301.118 388.791 300.584 392.052 300.683 393.911Z" fill="#3C354C"/>
<path d="M264.469 278.924C261.428 287.514 258.371 296.164 256.886 305.156C256.336 308.373 256.028 311.618 255.439 314.824C254.889 317.849 254.097 320.928 254.647 323.953C255.005 325.927 255.912 327.753 256.594 329.634C257.502 332.136 258.019 334.765 258.877 337.283C260.207 341.188 262.336 344.774 263.689 348.667C265.003 352.445 265.586 356.498 267.417 360.051C268.517 362.163 270.018 364.071 270.717 366.331C271.214 368.008 271.25 369.788 270.821 371.483C270.392 373.178 269.515 374.727 268.281 375.966C268.605 377.435 270.315 378.166 271.723 378.716L276.865 380.613C278.823 381.334 281.028 382.054 282.915 381.218C285.697 380.003 286.214 376.329 286.132 373.299C285.857 365.919 284.086 358.682 282.321 351.51C280.671 344.911 279.071 338.312 277.124 331.784C276.315 329.089 275.474 326.406 274.819 323.661C272.462 313.427 273.251 302.719 277.085 292.942C279.285 287.442 277.327 280.667 277.575 274.722L270.194 273.364C268.743 273.1 266.977 272.941 266.059 274.095C265.14 275.25 264.992 277.456 264.469 278.924Z" fill="#575A89"/>
<path opacity="0.1" d="M264.469 278.924C261.428 287.514 258.371 296.164 256.886 305.156C256.336 308.373 256.028 311.618 255.439 314.824C254.889 317.849 254.097 320.928 254.647 323.953C255.005 325.927 255.912 327.753 256.594 329.634C257.502 332.136 258.019 334.765 258.877 337.283C260.207 341.188 262.336 344.774 263.689 348.667C265.003 352.445 265.586 356.498 267.417 360.051C268.517 362.163 270.018 364.071 270.717 366.331C271.214 368.008 271.25 369.788 270.821 371.483C270.392 373.178 269.515 374.727 268.281 375.966C268.605 377.435 270.315 378.166 271.723 378.716L276.865 380.613C278.823 381.334 281.028 382.054 282.915 381.218C285.697 380.003 286.214 376.329 286.132 373.299C285.857 365.919 284.086 358.682 282.321 351.51C280.671 344.911 279.071 338.312 277.124 331.784C276.315 329.089 275.474 326.406 274.819 323.661C272.462 313.427 273.251 302.719 277.085 292.942C279.285 287.442 277.327 280.667 277.575 274.722L270.194 273.364C268.743 273.1 266.977 272.941 266.059 274.095C265.14 275.25 264.992 277.456 264.469 278.924Z" fill="black"/>
<path d="M299.419 274.981C299.226 277.626 299.012 280.348 297.813 282.68C297.081 284.121 296.02 285.364 295.19 286.749C292.99 290.484 292.588 294.999 292.5 299.36C292.412 303.858 292.572 308.357 292.737 312.85C292.74 314.237 292.881 315.621 293.16 316.98C293.435 318.118 293.897 319.207 294.161 320.345C294.794 323.095 294.211 326.004 294.59 328.809C294.882 330.943 295.69 332.955 296.333 335.018C297.281 338.183 297.728 341.476 297.659 344.779C297.461 353.721 300.282 362.24 300.348 371.176C300.348 374.256 300.238 377.341 300.497 380.415C300.772 383.759 301.503 387.047 301.866 390.386C301.948 391.155 301.959 392.035 301.365 392.547C300.923 392.841 300.394 392.977 299.864 392.932C297.959 393.051 296.047 392.865 294.2 392.382C292.55 391.881 291.087 391.001 289.487 390.424C286.5 389.324 282.799 389.093 281.089 386.42C280.925 386.194 280.825 385.929 280.797 385.651C280.797 384.892 281.606 384.424 281.991 383.764C282.209 383.334 282.319 382.856 282.31 382.373C282.458 378.853 280.88 375.532 279.83 372.172C278.895 368.893 278.204 365.549 277.762 362.168C276.662 355.189 275.562 348.062 276.711 341.089C276.992 339.373 277.349 337.432 276.299 336.052C275.816 335.529 275.286 335.052 274.715 334.627C274.083 334.058 273.577 333.363 273.228 332.588C272.878 331.813 272.694 330.973 272.686 330.123C272.686 324.624 270.178 319.124 269.936 313.625C269.793 310.446 269.985 307.262 269.837 304.084C269.441 295.692 266.702 287.618 264.206 279.595C263.784 278.445 263.541 277.238 263.485 276.015C263.454 275.397 263.562 274.78 263.8 274.21C264.038 273.639 264.4 273.128 264.86 272.715C269.051 269.355 275.259 268.228 279.901 270.933C280.825 271.483 281.677 272.116 282.651 272.583C287.699 275.228 294.299 272.446 299.419 274.981Z" fill="#575A89"/>
<path d="M290.823 188.657C297.438 188.657 302.801 183.294 302.801 176.679C302.801 170.064 297.438 164.701 290.823 164.701C284.208 164.701 278.845 170.064 278.845 176.679C278.845 183.294 284.208 188.657 290.823 188.657Z" fill="#A0616A"/>
<path d="M264.101 275.564C264.603 276.07 265.209 276.462 265.877 276.713L269.529 278.363C270.105 278.679 270.724 278.909 271.366 279.045C272.182 279.12 273.005 279.061 273.802 278.869C282.22 277.352 290.855 277.515 299.21 279.347C301.899 275.316 302.135 270.108 301.41 265.324C301.019 262.783 300.387 260.16 301.091 257.685C301.388 256.624 301.926 255.645 302.229 254.584C303.054 251.691 302.058 248.573 302.515 245.598C303.065 241.951 305.721 238.998 307.178 235.622C307.994 233.53 308.59 231.359 308.955 229.143C309.494 226.441 310.044 223.745 310.605 221.054C311.204 218.079 311.804 215.07 311.705 212.04C311.578 207.415 309.884 202.999 308.212 198.682C307.508 196.867 306.689 194.91 304.995 193.942C302.922 192.759 300.31 193.474 298.099 194.365C295.234 195.515 292.401 196.917 289.344 197.5C288.024 197.753 286.215 197.296 285.021 197.648C283.998 197.951 283.3 199.331 282.695 200.172C279.31 204.836 276.858 210.109 275.474 215.703C274.083 221.356 273.769 227.367 271.195 232.586C270.606 233.74 269.952 234.86 269.238 235.941C267.753 238.239 266.147 240.467 265.141 243.002C263.59 246.917 263.601 251.212 263.7 255.452C263.7 256.151 263.738 256.838 263.749 257.531C263.859 262.323 263.753 267.107 263.43 271.885C263.326 273.16 263.271 274.585 264.101 275.564Z" fill="#E6E6F0"/>
<path d="M231.742 245.927C225.726 246.136 219.517 246.318 213.908 244.129C213.209 243.924 212.594 243.5 212.153 242.919C211.603 242.017 211.966 240.764 212.742 240.043C213.574 239.373 214.591 238.974 215.657 238.899C218.588 238.514 221.557 239.103 224.456 239.691C227.354 240.28 230.137 240.841 232.705 242.122C233.309 242.375 233.834 242.788 234.223 243.315C235.455 245.235 233.134 245.878 231.742 245.927Z" fill="#A0616A"/>
<path opacity="0.1" d="M263.683 255.441C265.014 255.441 266.34 255.375 267.66 255.298C269.218 255.259 270.767 255.026 272.268 254.606C274.523 253.885 276.453 252.406 278.29 250.926C284.062 246.255 289.419 241.092 294.299 235.495C295.916 233.642 297.505 231.695 298.369 229.391C299.424 226.581 299.314 223.479 299.095 220.482C298.952 218.518 298.754 216.495 297.83 214.751C297.458 213.995 296.917 213.335 296.25 212.821C295.582 212.307 294.806 211.953 293.98 211.787L296.053 211.864C294.063 210.627 291.533 210.797 289.195 211.006C287.59 211.149 285.934 211.309 284.515 212.106C282.756 213.063 281.606 214.856 280.666 216.594C277.526 222.319 275.518 228.731 271.438 233.829C270.901 234.536 270.276 235.172 269.579 235.721C269.469 235.803 269.353 235.88 269.238 235.957C267.753 238.256 266.147 240.483 265.141 243.018C263.573 246.906 263.584 251.201 263.683 255.441Z" fill="black"/>
<path d="M293.1 209.549C295.063 209.4 296.889 210.808 297.808 212.552C298.726 214.295 298.908 216.313 299.073 218.282C299.293 221.279 299.403 224.381 298.347 227.191C297.483 229.495 295.894 231.442 294.277 233.295C289.402 238.89 284.053 244.053 278.29 248.727C276.453 250.217 274.523 251.685 272.268 252.406C270.767 252.827 269.219 253.059 267.66 253.099C261.764 253.445 255.72 253.291 250.171 251.284C245.772 249.706 241.719 246.989 237.083 246.703C235.944 246.631 234.74 246.703 233.728 246.153C231.869 245.158 231.528 242.639 231.693 240.538C231.65 240.315 231.657 240.085 231.716 239.865C231.774 239.645 231.881 239.442 232.029 239.269C232.177 239.097 232.363 238.96 232.571 238.869C232.779 238.778 233.006 238.736 233.233 238.745C242.505 237.596 252.184 239.95 261.121 237.216C263.15 236.546 265.135 235.751 267.066 234.835C267.944 234.475 268.781 234.022 269.562 233.482C270.26 232.935 270.883 232.299 271.416 231.591C275.496 226.493 277.509 220.08 280.649 214.355C281.612 212.596 282.761 210.825 284.499 209.868C285.918 209.098 287.573 208.939 289.179 208.768C291.516 208.559 294.041 208.389 296.037 209.626" fill="#E6E6F0"/>
<path d="M299.737 179.176C299.187 179.852 298.841 180.677 298.236 181.293C297.631 181.909 296.586 182.283 295.893 181.788C294.821 181.046 295.382 179.225 294.551 178.224C294.084 177.674 293.287 177.493 292.715 177.031C291.362 175.931 291.725 173.643 290.515 172.362C289.305 171.081 287.408 171.367 285.846 171.933C284.284 172.5 282.684 173.324 281.056 172.994C278.751 172.522 277.553 170.003 276.893 167.743C276.233 165.482 275.793 163.002 276.893 160.956C277.8 159.257 279.642 158.207 281.463 157.657C283.283 157.107 285.263 157.008 287.16 156.667C289.684 156.21 292.11 155.341 294.689 155.088C297.268 154.836 300.045 155.308 301.838 157.134C304.489 159.823 304.038 164.212 305.358 167.748C306.117 169.755 307.475 171.488 308.284 173.473C309.708 176.993 309.004 181.585 305.864 183.724C305.378 184.113 304.765 184.309 304.143 184.274C302.839 184.087 302.361 182.437 302.432 181.123C302.614 178.73 302.053 176.261 299.737 179.176Z" fill="#3F3D56"/>
<path d="M222.327 183.284H209.678V243.651H222.327V183.284Z" fill="#8BC34B"/>
<path d="M46.6961 381.235C45.0463 378.204 46.9161 374.492 49.0499 371.787C51.1837 369.081 53.7849 366.287 53.73 362.834C53.653 357.884 48.401 354.958 44.1994 352.335C41.0855 350.39 38.2147 348.08 35.6477 345.456C34.5691 344.447 33.6773 343.255 33.0134 341.936C32.15 340 32.172 337.8 32.227 335.678C32.4067 328.616 32.755 321.562 33.2719 314.516" stroke="#3F3D56" stroke-width="4" stroke-miterlimit="10"/>
<path d="M25.2974 314.131C25.3558 312.838 25.7392 311.581 26.4121 310.476C27.0849 309.37 28.0255 308.452 29.147 307.807L30.8738 311.222L30.8243 307.086C32.3887 306.622 34.0602 306.666 35.5977 307.213C37.1352 307.76 38.4591 308.781 39.3784 310.13C40.2976 311.478 40.7646 313.084 40.7121 314.715C40.6595 316.346 40.09 317.918 39.0858 319.204C38.0816 320.491 36.6947 321.425 35.1251 321.871C33.5556 322.318 31.8846 322.255 30.3535 321.69C28.8223 321.126 27.5101 320.09 26.6063 318.731C25.7024 317.372 25.2537 315.761 25.3249 314.131H25.2974Z" fill="#57B894"/>
<path d="M39.0625 366.37C39.8721 367.939 41.1965 369.182 42.8137 369.891C44.4308 370.6 46.2425 370.731 47.9451 370.263C49.6477 369.796 51.1377 368.757 52.1655 367.321C53.1932 365.885 53.6962 364.14 53.5901 362.377C53.484 360.615 52.7754 358.942 51.5829 357.64C50.3904 356.338 48.7865 355.485 47.0401 355.225C45.2937 354.964 43.5108 355.312 41.9903 356.21C40.4699 357.107 39.3041 358.5 38.6885 360.155L43.5061 364.076L38.2046 362.85C38.204 364.075 38.4982 365.282 39.0625 366.37Z" fill="#57B894"/>
<path d="M42.8683 351.384C43.8819 351.434 44.8954 351.284 45.8505 350.941C46.8057 350.598 47.6837 350.07 48.4339 349.386C49.1842 348.703 49.792 347.878 50.2224 346.959C50.6527 346.04 50.8971 345.045 50.9415 344.031C51.0024 342.824 50.7743 341.619 50.2761 340.517C49.814 339.485 49.1313 338.568 48.2762 337.829C47.421 337.089 46.4142 336.547 45.3266 336.239L45.3651 339.423L43.6162 335.964C42.6052 335.916 41.5947 336.069 40.6424 336.412C39.6902 336.755 38.8149 337.282 38.0665 337.964C37.3181 338.645 36.7113 339.468 36.2807 340.384C35.8501 341.3 35.6041 342.291 35.5568 343.302C35.5095 344.314 35.6618 345.324 36.005 346.276C36.3482 347.228 36.8756 348.104 37.5571 348.852C38.2386 349.6 39.0608 350.207 39.9768 350.638C40.8929 351.069 41.8847 351.315 42.8958 351.362L42.8683 351.384Z" fill="#57B894"/>
<path d="M24.1317 338.917C25.1453 338.967 26.1588 338.816 27.114 338.474C28.0691 338.131 28.9471 337.602 29.6974 336.919C30.4477 336.236 31.0554 335.411 31.4858 334.492C31.9161 333.573 32.1605 332.578 32.205 331.564C32.2552 330.551 32.1048 329.538 31.7624 328.583C31.4199 327.628 30.8921 326.751 30.2094 326C29.5266 325.25 28.7023 324.642 27.7839 324.212C26.8655 323.781 25.871 323.536 24.8577 323.491C23.4148 323.425 21.9823 323.764 20.7221 324.47L22.0859 328.209L19.2812 325.515C17.7761 326.89 16.8782 328.807 16.7845 330.844C16.7494 331.557 16.8161 332.272 16.9824 332.966C17.3621 334.602 18.2662 336.069 19.5569 337.143C20.8477 338.217 22.4542 338.84 24.1317 338.917Z" fill="#57B894"/>
<path opacity="0.1" d="M26.3315 316.188C28.1133 316.38 29.8456 316.936 31.6329 317.046C33.4203 317.156 35.3836 316.727 36.5165 315.341C37.1269 314.593 37.4294 313.641 37.9463 312.828C38.4333 312.067 39.1 311.438 39.8877 310.996C40.3533 311.97 40.6092 313.03 40.6386 314.109C40.6681 315.188 40.4704 316.26 40.0585 317.258C39.6466 318.255 39.0296 319.155 38.2476 319.898C37.4656 320.642 36.536 321.213 35.5192 321.574C34.5023 321.935 33.4209 322.079 32.345 321.995C31.2692 321.911 30.2229 321.602 29.2742 321.088C28.3254 320.574 27.4953 319.866 26.8377 319.011C26.1801 318.155 25.7097 317.171 25.457 316.122C25.7687 316.133 26.0601 316.155 26.3315 316.188Z" fill="black"/>
<path opacity="0.1" d="M24.1318 338.917C25.1454 338.967 26.1589 338.816 27.1141 338.474C28.0692 338.131 28.9472 337.602 29.6975 336.919C30.4477 336.236 31.0555 335.411 31.4859 334.492C31.9162 333.573 32.1606 332.578 32.2051 331.564C32.2676 330.303 32.0163 329.047 31.4736 327.907C30.8624 328.32 30.336 328.847 29.9228 329.458C29.3728 330.288 29.0429 331.245 28.3939 332.009C27.195 333.423 25.1382 333.885 23.2739 333.797C21.4096 333.709 19.6168 333.186 17.7744 333.016C17.5215 333.016 17.2575 332.977 16.999 332.966C17.3779 334.6 18.2796 336.064 19.567 337.138C20.8544 338.212 22.4572 338.837 24.1318 338.917Z" fill="black"/>
<path opacity="0.1" d="M42.8683 351.384C43.8818 351.434 44.8953 351.284 45.8505 350.941C46.8057 350.598 47.6836 350.07 48.4339 349.386C49.1842 348.703 49.792 347.878 50.2223 346.959C50.6527 346.04 50.8971 345.045 50.9415 344.031C51.0024 342.824 50.7743 341.619 50.2761 340.517C49.636 340.936 49.0771 341.467 48.6262 342.084C48.0268 342.931 47.6528 343.905 46.9764 344.686C45.673 346.137 43.4842 346.649 41.5099 346.599C39.5356 346.55 37.7593 346.088 35.8564 345.945C36.3212 347.464 37.2446 348.802 38.4999 349.776C39.7553 350.75 41.2812 351.311 42.8683 351.384Z" fill="black"/>
<path opacity="0.1" d="M39.063 366.37C39.4764 367.293 40.0678 368.127 40.8033 368.822C41.5387 369.517 42.4039 370.06 43.3494 370.421C44.295 370.782 45.3023 370.953 46.3139 370.924C47.3255 370.896 48.3216 370.668 49.2453 370.255C50.169 369.842 51.0022 369.25 51.6973 368.515C52.3925 367.779 52.936 366.914 53.2968 365.969C53.6576 365.023 53.8286 364.016 53.8001 363.004C53.7716 361.993 53.5441 360.997 53.1306 360.073C52.496 360.49 51.9254 360.998 51.4368 361.58C50.7054 362.476 50.2214 363.488 49.369 364.329C47.7907 365.88 45.2444 366.529 42.9786 366.579C41.6705 366.584 40.3631 366.514 39.063 366.37Z" fill="black"/>
<path d="M58.3326 377.748C58.3326 377.748 52.2447 377.561 50.4079 376.252C48.5711 374.943 41.0588 373.381 40.5803 375.482C40.1019 377.583 31.4237 385.931 38.3035 385.964C45.1834 385.997 54.285 384.892 56.1163 383.764C57.9476 382.637 58.3326 377.748 58.3326 377.748Z" fill="#656380"/>
<path opacity="0.2" d="M38.1828 385.233C45.0572 385.288 54.1643 384.133 55.9956 383.033C57.387 382.181 57.9479 379.128 58.1294 377.72H58.3329C58.3329 377.72 57.9479 382.631 56.1331 383.77C54.3183 384.908 45.2002 386.014 38.3203 385.97C36.335 385.97 35.6476 385.249 35.6861 384.199C35.9446 384.826 36.7035 385.222 38.1828 385.233Z" fill="black"/>
</svg>
