<svg viewBox="0 0 498 462" fill="none" xmlns="http://www.w3.org/2000/svg">
<path d="M482.495 373.263C482.495 401.893 465.48 411.891 444.493 411.891C444.005 411.891 443.519 411.886 443.035 411.873C442.063 411.852 441.099 411.809 440.148 411.741C421.206 410.401 406.489 399.888 406.489 373.263C406.489 345.71 441.68 310.942 444.335 308.36L444.34 308.358C444.44 308.257 444.493 308.207 444.493 308.207C444.493 308.207 482.495 344.629 482.495 373.263Z" fill="#3F3D56"/>
<path d="M443.107 407.511L457.007 388.083L443.072 409.643L443.035 411.873C442.063 411.852 441.099 411.809 440.149 411.741L441.646 383.097L441.635 382.875L441.662 382.833L441.802 380.127L427.833 358.511L441.844 378.098L441.878 378.671L443.012 357.029L431.052 334.695L443.157 353.227L444.335 308.36L444.34 308.207V308.358L444.145 343.739L456.049 329.712L444.094 346.785L443.78 366.163L454.897 347.568L443.733 369.017L443.558 379.789L459.696 353.903L443.498 383.549L443.107 407.511Z" fill="#F2F2F2"/>
<path d="M87.675 404.041C87.675 421.196 77.4799 427.187 64.9045 427.187C64.6117 427.187 64.3205 427.184 64.0309 427.176C63.4485 427.163 62.8708 427.138 62.3011 427.097C50.9506 426.294 42.1323 419.994 42.1323 404.041C42.1323 387.531 63.219 366.698 64.8095 365.151L64.8127 365.15C64.8728 365.09 64.9044 365.06 64.9044 365.06C64.9044 365.06 87.675 386.884 87.675 404.041Z" fill="#3F3D56"/>
<path d="M64.0736 424.562L72.4028 412.921L64.053 425.839L64.0309 427.176C63.4485 427.163 62.8708 427.138 62.3011 427.097L63.1984 409.933L63.1921 409.8L63.2079 409.775L63.2918 408.154L54.9214 395.202L63.3171 406.938L63.3377 407.281L64.0166 394.314L56.8506 380.931L64.1036 392.035L64.8095 365.151L64.8126 365.06V365.15L64.6955 386.35L71.8283 377.945L64.6655 388.176L64.4771 399.787L71.1383 388.644L64.4486 401.496L64.3442 407.951L74.0139 392.441L64.3078 410.204L64.0736 424.562Z" fill="#F2F2F2"/>
<path d="M266.356 126.333H86.627V297.639H266.356V126.333Z" fill="url(#paint0_linear)"/>
<path d="M262.499 130.191H90.4839V293.78H262.499V130.191Z" fill="white"/>
<path d="M256.328 136.364H96.6548V287.607H256.328V136.364Z" fill="#8BC34B"/>
<path d="M205.717 169.959H225.201L176.491 254.013L127.782 169.959H165.045L176.491 189.45L187.694 169.959H205.717Z" fill="#41B883"/>
<path d="M127.782 169.959L176.491 254.013L225.201 169.959H205.717L176.491 220.391L147.022 169.959H127.782Z" fill="#41B883"/>
<path d="M147.022 169.959L176.492 220.635L205.717 169.959H187.695L176.492 189.45L165.045 169.959H147.022Z" fill="#35495E"/>
<g opacity="0.5">
<path opacity="0.5" d="M239.358 0H3.31934V103.183H239.358V0Z" fill="url(#paint1_linear)"/>
</g>
<path d="M236.272 1.32568H6.40479V100.097H236.272V1.32568Z" fill="white"/>
<path d="M229.668 7.49902H13.0095V93.9237H229.668V7.49902Z" fill="#8BC34B"/>
<path d="M192.688 35.8857L199.178 35.9215C199.178 35.9215 187.112 52.2784 186.126 53.6115C185.718 54.0592 185.365 54.5541 185.074 55.0858C184.541 56.5973 184.118 58.1458 183.811 59.7188L177.872 59.7485C177.872 59.7485 178.796 56.4313 178.758 54.6645C178.725 53.121 177.937 51.5794 177.495 50.0315C177.049 48.4644 176.442 45.3982 176.442 45.3982H182.548L183.39 48.7678L192.688 35.8858" fill="white"/>
<path d="M180.398 39.3353C181.596 40.0576 182.331 44.0423 182.331 44.0423C182.331 44.0423 176.064 44.1347 172.653 44.1347H169.706L166.127 59.7187H160.654C160.654 59.7187 164.06 42.7828 164.864 39.7124C165.125 38.7182 166.65 38.8888 169.224 38.8888H173.336C175.99 38.8888 179.093 38.5496 180.398 39.3353V39.3353ZM154.917 46.9251C154.983 46.16 154.778 45.396 154.339 44.7664C153.698 43.7788 153.107 43.5491 151.423 43.4963C146.667 43.3469 146.76 46.8724 146.76 46.8724L154.917 46.9251ZM160.075 42.8877C160.772 45.4026 159.443 51.3117 159.443 51.3117C159.443 51.3117 152.507 51.1959 148.707 51.3117C147.526 51.3478 146.112 51.1832 145.76 51.733C145.265 52.5035 145.941 53.6896 146.513 54.1906C147.172 54.7674 148.456 54.8332 148.918 54.8917C152.001 55.2836 158.456 54.993 158.456 54.993L157.338 59.9457C157.338 59.9457 148.217 60.4034 143.655 59.314C142.777 59.1257 141.972 58.6869 141.339 58.0507C141.183 57.8825 141.048 57.653 140.901 57.4548C140.655 57.1162 140.449 56.7508 140.286 56.3657C139.244 53.588 140.408 48.2667 141.549 45.4151C141.682 45.0847 141.848 44.6655 142.023 44.3093C142.242 43.8653 142.427 43.3639 142.602 43.0984C142.719 42.9153 142.865 42.7974 142.987 42.6247C143.129 42.4239 143.282 42.2306 143.444 42.0457C143.886 41.5708 144.381 41.147 144.918 40.7824C146.818 39.3584 150.258 38.2529 154.391 38.6761C155.947 38.8361 158.297 39.392 159.443 40.9927C159.743 41.5914 159.955 42.2296 160.075 42.888V42.8877ZM134.971 38.8694L140.278 38.8382C140.278 38.8382 137.32 52.8742 135.813 59.7187H129.707C125.44 59.7187 121.641 60.2473 120.024 57.1914C118.455 54.2243 119.952 49.3448 120.655 46.0298C121.152 43.6837 122.199 38.8885 122.199 38.8885L127.697 38.8382C127.697 38.8382 126.144 46.3038 125.497 50.0314C125.266 51.3666 124.788 52.6239 125.287 53.6111C125.76 54.5507 126.424 54.618 128.444 54.6644C129.085 54.6796 131.181 54.6644 131.181 54.6644L134.971 38.8694V38.8694ZM110.129 48.9781C110.685 47.003 111.496 44.8613 111.393 43.0814C111.307 42.2387 111.012 41.4309 110.534 40.7319C110.056 40.0329 109.41 39.4651 108.656 39.0804C107.424 38.6709 106.102 38.6115 104.839 38.909C103.575 39.2064 102.418 39.849 101.498 40.7651C100.006 42.3824 99.5002 44.2717 98.9718 46.8727C98.5785 48.8035 98.2561 50.8419 98.9718 52.3477C100.239 55.0099 104.191 54.4285 108.445 54.454C109.077 52.7608 109.599 50.8591 110.129 48.978V48.9781ZM117.498 41.1864C118.104 45.596 115.778 50.4633 114.176 54.6959C115.809 54.8435 117.241 54.6732 117.344 54.795C117.451 54.9529 116.249 59.8472 115.83 59.8599C114.533 59.8936 110.237 59.9293 108.445 59.9293C102.599 59.9293 97.1299 60.3103 94.3408 57.4023C93.2161 56.0875 92.4861 54.4813 92.2353 52.769C92.004 50.3638 92.2182 47.9365 92.867 45.609C93.3174 43.6967 94.0256 41.8545 94.9723 40.1331C97.429 35.8435 101.702 32.6594 108.866 33.3944C110.487 33.5979 112.057 34.0976 113.498 34.8684C113.584 34.9191 113.885 35.1591 113.954 35.2012C115.639 36.2733 117.173 38.8319 117.498 41.1864H117.498ZM91.6311 38.8949C91.2775 40.5059 90.9239 42.3322 90.5513 43.9241H84.6567C85.1134 42.1594 85.463 40.405 85.9199 38.8698C87.8061 38.8698 89.5598 38.8949 91.6315 38.8949L91.6311 38.8949ZM84.4462 45.3984H90.1304C89.3871 49.5134 87.9155 56.1511 86.762 60.7717C86.0399 63.6634 85.5579 65.7733 83.6041 67.3C83.4293 67.437 83.3284 67.3719 83.183 67.5107C82.823 67.8541 81.1577 68.2524 80.236 68.3531C78.5586 68.4474 76.877 68.4418 75.2002 68.3364C75.6823 66.5738 76.2277 64.4572 76.6573 62.8774C81.1477 63.4212 81.2614 59.1753 82.1307 55.0857C82.6336 52.7227 84.158 46.3459 84.4461 45.3984" fill="white"/>
<path d="M71.1832 56.1386L71.0614 56.4544C68.9859 60.4978 65.3078 62.9785 60.0617 63.0879C57.8909 63.1174 55.7385 62.6869 53.746 61.8245C50.5051 60.3311 47.8431 57.8158 46.1677 54.6643C43.997 50.4586 43.6056 44.6084 48.119 40.2388C48.1887 40.2388 47.5715 41.1863 47.6412 41.1863L47.517 41.5906C44.2646 51.7769 54.285 60.5064 64.0258 59.5079C66.7074 59.1693 69.213 57.9898 71.1832 56.1386" fill="#21609B"/>
<path d="M65.2887 51.9267C67.7393 51.908 70.084 50.9245 71.815 49.189C70.4888 52.5566 66.6489 54.7211 61.4998 54.0327C57.1881 53.4556 53.081 49.1154 52.658 44.7664C52.3486 41.6014 53.4512 39.7124 55.2683 37.4209C54.7923 38.2589 54.4781 39.1789 54.342 40.1331C53.6518 46.9797 59.8093 51.8906 65.2887 51.9267" fill="#21609B"/>
<path d="M71.5686 43.4225C71.1877 44.2967 68.9943 45.9474 68.0256 46.1538C64.19 46.9713 61.7336 45.1518 60.4468 43.0812C60.2083 42.6418 60.005 42.1842 59.8386 41.7127C59.3396 40.0153 59.569 37.448 61.0576 36.1191C60.6362 37.3005 60.5403 38.5734 60.7798 39.8046C61.0054 40.5904 61.3474 41.3378 61.7945 42.0222C62.3682 42.9005 63.1681 43.6077 64.11 44.0694C64.4774 44.2956 64.8675 44.4826 65.2741 44.6271C66.2403 44.9117 68.2804 45.6613 71.5689 43.4225" fill="#21609B"/>
<path d="M424.486 0.554199H288.726V136.364H424.486V0.554199Z" fill="url(#paint2_linear)"/>
<path d="M420.629 4.41211H292.582V132.506H420.629V4.41211Z" fill="white"/>
<path d="M414.459 10.5854H298.753V126.333H414.459V10.5854Z" fill="#8BC34B"/>
<path d="M314.881 43.9995L356.67 29.105L399.584 43.7347L392.635 99.0429L356.67 118.969L321.267 99.3078L314.881 43.9995Z" fill="#E23237"/>
<path d="M399.583 43.7347L356.669 29.105V118.969L392.635 99.0762L399.583 43.7347Z" fill="#B52E31"/>
<path d="M356.736 39.5977L330.697 97.5539L340.424 97.3884L345.652 84.3141H369.011L374.735 97.5539L384.033 97.7194L356.736 39.5977V39.5977ZM356.802 58.1662L365.603 76.569H349.06L356.802 58.1662Z" fill="white"/>
<path d="M494.681 161.829H314.952V297.639H494.681V161.829Z" fill="url(#paint3_linear)"/>
<path d="M490.824 165.687H318.809V293.781H490.824V165.687Z" fill="white"/>
<path d="M484.653 171.86H324.979V287.608H484.653V171.86Z" fill="#8BC34B"/>
<path d="M356.675 229.474C356.652 236.797 363.778 243.655 375.034 247.543C372.748 258.869 374.566 268.009 380.724 271.587C387.053 275.265 396.508 272.763 405.499 264.951C414.215 272.502 423.039 275.491 429.213 271.941C435.56 268.293 437.517 258.545 435.242 246.852C446.991 243.007 453.575 237.199 453.598 229.781C453.621 222.628 446.48 216.418 435.375 212.554C437.903 200.393 435.822 191.474 429.409 187.748C423.226 184.155 414.281 187.241 405.388 194.934C396.188 186.71 387.348 184.18 380.919 187.876C374.719 191.44 372.924 200.735 375.145 212.284C364.245 216.047 356.697 222.351 356.675 229.474Z" fill="white"/>
<path d="M433.009 216.348C432.094 216.031 431.171 215.737 430.241 215.466C430.397 214.839 430.542 214.209 430.675 213.577C432.805 203.398 431.459 195.188 426.784 192.472C422.302 189.867 414.95 192.545 407.513 198.979C406.78 199.614 406.063 200.268 405.363 200.939C404.897 200.49 404.423 200.049 403.941 199.617C396.19 192.688 388.408 189.754 383.721 192.449C379.226 195.032 377.873 202.742 379.731 212.401C379.916 213.357 380.125 214.309 380.358 215.255C379.255 215.565 378.189 215.895 377.169 216.247C368.046 219.397 362.211 224.36 362.194 229.526C362.178 234.863 368.408 240.235 377.89 243.511C378.659 243.775 379.434 244.02 380.215 244.246C379.958 245.263 379.73 246.287 379.53 247.318C377.699 256.797 379.082 264.333 383.548 266.929C388.16 269.609 395.925 266.894 403.498 260.314C404.097 259.794 404.697 259.243 405.3 258.663C406.053 259.395 406.827 260.105 407.62 260.794C414.916 267.115 422.132 269.681 426.611 267.106C431.237 264.447 432.762 256.361 430.845 246.511C430.699 245.759 430.529 244.991 430.336 244.208C430.882 244.049 431.416 243.884 431.939 243.713C441.817 240.474 448.254 235.206 448.271 229.798C448.287 224.613 442.295 219.579 433.009 216.348H433.009Z" fill="#53C1DE"/>
<path d="M430.793 240.218C430.322 240.372 429.838 240.521 429.346 240.666C428.154 236.931 426.709 233.282 425.022 229.743C426.667 226.263 428.078 222.676 429.245 219.007C430.124 219.265 430.978 219.537 431.801 219.823C439.758 222.591 444.604 226.662 444.594 229.787C444.583 233.116 439.322 237.421 430.793 240.218H430.793ZM427.236 247.214C428.083 251.57 428.194 255.506 427.613 258.58C427.092 261.343 426.055 263.183 424.778 263.917C422.061 265.479 416.266 263.419 410.027 258.014C409.312 257.394 408.592 256.734 407.869 256.033C410.486 253.152 412.907 250.098 415.113 246.891C419.036 246.572 422.933 245.984 426.776 245.13C426.949 245.839 427.102 246.534 427.236 247.214V247.214ZM391.432 263.54C388.779 264.468 386.668 264.488 385.395 263.748C382.684 262.173 381.575 256.122 383.14 248.016C383.326 247.058 383.539 246.105 383.778 245.159C387.599 245.993 391.473 246.566 395.372 246.875C397.622 250.085 400.081 253.143 402.732 256.031C402.196 256.546 401.648 257.048 401.087 257.536C397.738 260.446 394.385 262.507 391.433 263.54H391.432ZM379.09 240.034C374.898 238.586 371.437 236.71 369.068 234.667C366.939 232.831 365.866 231.012 365.871 229.538C365.881 226.403 370.567 222.418 378.369 219.725C379.348 219.388 380.337 219.08 381.334 218.802C382.48 222.519 383.87 226.156 385.495 229.69C383.827 233.264 382.396 236.944 381.213 240.706C380.5 240.499 379.793 240.275 379.09 240.034ZM383.342 211.706C381.75 203.43 382.844 197.195 385.553 195.638C388.438 193.98 394.798 196.378 401.49 202.36C401.918 202.743 402.348 203.143 402.778 203.557C400.127 206.409 397.668 209.434 395.417 212.611C391.553 212.946 387.714 213.53 383.925 214.361C383.709 213.481 383.514 212.596 383.342 211.706V211.706ZM420.442 220.995C419.605 219.538 418.738 218.1 417.838 216.68C420.584 217.036 423.214 217.505 425.683 218.078C424.882 220.591 423.954 223.063 422.904 225.483C422.114 223.971 421.293 222.475 420.442 220.995ZM405.348 206.194C407.132 208.152 408.816 210.199 410.394 212.327C407.005 212.156 403.614 212.145 400.22 212.293C401.9 210.092 403.619 208.048 405.348 206.194ZM390.062 220.924C389.213 222.387 388.399 223.868 387.619 225.369C386.556 222.825 385.648 220.324 384.907 217.91C387.365 217.368 389.985 216.927 392.715 216.594C391.797 218.016 390.913 219.46 390.062 220.924ZM392.71 242.915C390.047 242.617 387.401 242.183 384.782 241.614C385.549 239.161 386.494 236.612 387.596 234.021C388.369 235.527 389.178 237.015 390.022 238.484C390.883 239.982 391.779 241.459 392.71 242.915ZM405.3 253.392C403.563 251.505 401.832 249.419 400.141 247.175C401.789 247.245 403.467 247.283 405.177 247.289C406.931 247.294 408.663 247.261 410.373 247.19C408.789 249.342 407.096 251.413 405.3 253.392ZM422.912 234C423.999 236.477 424.955 239.008 425.779 241.584C423.126 242.171 420.445 242.62 417.745 242.928C418.66 241.488 419.545 240.03 420.402 238.554C421.272 237.055 422.109 235.537 422.912 234ZM417.222 236.707C415.911 238.969 414.528 241.186 413.072 243.359C410.517 243.533 407.878 243.619 405.188 243.611C402.51 243.602 399.905 243.51 397.396 243.34C395.917 241.164 394.522 238.934 393.21 236.651C391.906 234.382 390.689 232.065 389.56 229.702C390.7 227.346 391.928 225.036 393.243 222.771V222.772C394.557 220.509 395.955 218.297 397.438 216.138C399.998 215.953 402.623 215.86 405.276 215.868C407.941 215.877 410.569 215.987 413.128 216.19C414.581 218.354 415.956 220.566 417.254 222.828C418.558 225.094 419.788 227.401 420.943 229.748C419.786 232.111 418.546 234.431 417.223 236.707H417.222ZM424.938 195.653C427.814 197.325 428.914 204.035 427.076 212.823C426.955 213.396 426.824 213.966 426.683 214.534C422.894 213.662 419.051 213.042 415.18 212.679C412.972 209.483 410.55 206.441 407.933 203.571C408.579 202.952 409.241 202.348 409.918 201.761C416.29 196.249 422.236 194.083 424.938 195.653Z" fill="white"/>
<path d="M405.256 221.974C406.777 221.978 408.261 222.434 409.523 223.283C410.784 224.132 411.766 225.336 412.343 226.743C412.92 228.15 413.068 229.696 412.766 231.187C412.465 232.677 411.729 234.045 410.65 235.117C409.572 236.189 408.2 236.917 406.708 237.209C405.216 237.501 403.671 237.344 402.268 236.758C400.866 236.171 399.668 235.182 398.828 233.915C397.987 232.647 397.541 231.159 397.546 229.638C397.549 228.629 397.751 227.629 398.14 226.698C398.53 225.766 399.098 224.92 399.814 224.209C400.53 223.497 401.379 222.933 402.313 222.55C403.247 222.166 404.247 221.97 405.256 221.974Z" fill="#53C1DE"/>
<g opacity="0.7">
<g opacity="0.1">
<path opacity="0.1" d="M381.087 357.603V369.34V373.254V425.422V429.335V440.42H365.442H360.227V429.335V425.422V373.254V369.34V357.603H365.442H381.087Z" fill="url(#paint4_linear)"/>
</g>
<g opacity="0.1">
<path opacity="0.1" d="M358.924 357.603V369.34V373.254V425.422V429.335V440.42H343.278H338.063V429.335V425.422V373.254V369.34V357.603H343.278H358.924Z" fill="url(#paint5_linear)"/>
</g>
</g>
<path d="M81.4228 418.025H44.7036C39.7081 418.025 35.6584 422.077 35.6584 427.074V432.309C35.6584 437.306 39.7081 441.357 44.7036 441.357H81.4228C86.4183 441.357 90.468 437.306 90.468 432.309V427.074C90.468 422.077 86.4183 418.025 81.4228 418.025Z" fill="#8BC34B"/>
<g opacity="0.7">
<g opacity="0.1">
<path opacity="0.1" d="M138.443 358.235V369.973V373.886V426.054V429.967V441.053H154.089H159.304V429.967V426.054V373.886V369.973V358.235H154.089H138.443Z" fill="url(#paint6_linear)"/>
</g>
<g opacity="0.1">
<path opacity="0.1" d="M160.607 358.235V369.973V373.886V426.054V429.967V441.053H176.252H181.467V429.967V426.054V373.886V369.973V358.235H176.252H160.607Z" fill="url(#paint7_linear)"/>
</g>
<g opacity="0.1">
<path opacity="0.1" d="M223.072 435.661L205.769 370.763L204.761 366.983L201.737 355.641L181.582 361.019L184.606 372.36L185.408 375.371L199.053 426.547L200.061 430.328L202.916 441.039L223.072 435.661Z" fill="url(#paint8_linear)"/>
</g>
</g>
<path d="M160.386 360.26H140.579V438.899H160.386V360.26Z" fill="#535461"/>
<path d="M160.386 371.405H140.579V375.12H160.386V371.405Z" fill="#8BC34B"/>
<path d="M160.386 424.657H140.579V428.372H160.386V424.657Z" fill="#8BC34B"/>
<path opacity="0.1" d="M160.386 360.26H155.434V438.899H160.386V360.26Z" fill="black"/>
<path d="M181.431 360.26H161.624V438.899H181.431V360.26Z" fill="#535461"/>
<path d="M181.431 371.405H161.624V375.12H181.431V371.405Z" fill="#8BC34B"/>
<path d="M181.431 424.657H161.624V428.372H181.431V424.657Z" fill="#8BC34B"/>
<path opacity="0.1" d="M181.431 360.26H176.479V438.899H181.431V360.26Z" fill="black"/>
<path d="M200.678 357.796L181.54 362.902L201.798 438.885L220.937 433.779L200.678 357.796Z" fill="#535461"/>
<path d="M203.55 368.565L184.412 373.671L185.369 377.261L204.507 372.155L203.55 368.565Z" fill="#8BC34B"/>
<path d="M217.268 420.018L198.13 425.125L199.087 428.714L218.225 423.608L217.268 420.018Z" fill="#8BC34B"/>
<path opacity="0.1" d="M200.678 357.796L195.894 359.073L216.152 435.055L220.936 433.779L200.678 357.796Z" fill="black"/>
<path d="M358.624 438.898H378.432V360.26H358.624V438.898Z" fill="#535461"/>
<path d="M358.624 375.121H378.432V371.405H358.624V375.121Z" fill="#8BC34B"/>
<path d="M358.624 428.372H378.432V424.657H358.624V428.372Z" fill="#8BC34B"/>
<path opacity="0.1" d="M358.624 438.898H363.576V360.26H358.624V438.898Z" fill="black"/>
<path d="M337.579 438.898H357.387V360.26H337.579V438.898Z" fill="#535461"/>
<path d="M337.579 375.121H357.387V371.405H337.579V375.121Z" fill="#8BC34B"/>
<path d="M337.579 428.372H357.387V424.657H337.579V428.372Z" fill="#8BC34B"/>
<path opacity="0.1" d="M337.579 438.898H342.531V360.26H337.579V438.898Z" fill="black"/>
<path d="M406.31 401.347H478.123C478.123 401.347 492.29 419.429 470.306 446.307H413.638C413.638 446.307 393.12 427.736 406.31 401.347Z" fill="#8BC34B"/>
<g opacity="0.1">
<path opacity="0.1" d="M478.123 401.347H406.31C406.147 401.674 405.992 401.999 405.839 402.324H475.68C475.68 402.324 489.5 419.969 468.647 446.307H470.307C492.29 419.429 478.123 401.347 478.123 401.347Z" fill="black"/>
</g>
<path d="M498 438.204H0V455.092H498V438.204Z" fill="#E0E0E0"/>
<path d="M476.898 455.091H21.1016V462H476.898V455.091Z" fill="#E0E0E0"/>
<path opacity="0.1" d="M476.898 455.091H21.1016V457.394H476.898V455.091Z" fill="black"/>
<defs>
<linearGradient id="paint0_linear" x1="176.491" y1="297.639" x2="176.491" y2="126.333" gradientUnits="userSpaceOnUse">
<stop stop-color="#808080" stop-opacity="0.25"/>
<stop offset="0.53514" stop-color="#808080" stop-opacity="0.12"/>
<stop offset="1" stop-color="#808080" stop-opacity="0.1"/>
</linearGradient>
<linearGradient id="paint1_linear" x1="45274.4" y1="16822.9" x2="45274.4" y2="0" gradientUnits="userSpaceOnUse">
<stop stop-color="#808080" stop-opacity="0.25"/>
<stop offset="0.53514" stop-color="#808080" stop-opacity="0.12"/>
<stop offset="1" stop-color="#808080" stop-opacity="0.1"/>
</linearGradient>
<linearGradient id="paint2_linear" x1="76813.4" y1="29263.2" x2="76813.4" y2="119.466" gradientUnits="userSpaceOnUse">
<stop stop-color="#808080" stop-opacity="0.25"/>
<stop offset="0.53514" stop-color="#808080" stop-opacity="0.12"/>
<stop offset="1" stop-color="#808080" stop-opacity="0.1"/>
</linearGradient>
<linearGradient id="paint3_linear" x1="115319" y1="64032.7" x2="115319" y2="34888.9" gradientUnits="userSpaceOnUse">
<stop stop-color="#808080" stop-opacity="0.25"/>
<stop offset="0.53514" stop-color="#808080" stop-opacity="0.12"/>
<stop offset="1" stop-color="#808080" stop-opacity="0.1"/>
</linearGradient>
<linearGradient id="paint4_linear" x1="-9166.86" y1="64976.2" x2="-9166.86" y2="54138.8" gradientUnits="userSpaceOnUse">
<stop stop-color="#808080" stop-opacity="0.25"/>
<stop offset="0.53514" stop-color="#808080" stop-opacity="0.12"/>
<stop offset="1" stop-color="#808080" stop-opacity="0.1"/>
</linearGradient>
<linearGradient id="paint5_linear" x1="-9875.48" y1="64976.2" x2="-9875.48" y2="54138.8" gradientUnits="userSpaceOnUse">
<stop stop-color="#808080" stop-opacity="0.25"/>
<stop offset="0.53514" stop-color="#808080" stop-opacity="0.12"/>
<stop offset="1" stop-color="#808080" stop-opacity="0.1"/>
</linearGradient>
<linearGradient id="paint6_linear" x1="5047.25" y1="58074" x2="5047.25" y2="47236.6" gradientUnits="userSpaceOnUse">
<stop stop-color="#808080" stop-opacity="0.25"/>
<stop offset="0.53514" stop-color="#808080" stop-opacity="0.12"/>
<stop offset="1" stop-color="#808080" stop-opacity="0.1"/>
</linearGradient>
<linearGradient id="paint7_linear" x1="5800.04" y1="58074" x2="5800.04" y2="47236.6" gradientUnits="userSpaceOnUse">
<stop stop-color="#808080" stop-opacity="0.25"/>
<stop offset="0.53514" stop-color="#808080" stop-opacity="0.12"/>
<stop offset="1" stop-color="#808080" stop-opacity="0.1"/>
</linearGradient>
<linearGradient id="paint8_linear" x1="13450.6" y1="59867.7" x2="13450.6" y2="48344.5" gradientUnits="userSpaceOnUse">
<stop stop-color="#808080" stop-opacity="0.25"/>
<stop offset="0.53514" stop-color="#808080" stop-opacity="0.12"/>
<stop offset="1" stop-color="#808080" stop-opacity="0.1"/>
</linearGradient>
</defs>
</svg>
