<svg width="50" height="50" viewBox="0 0 50 50" fill="none" xmlns="http://www.w3.org/2000/svg">
<path d="M6.18103 50H3.44828C1.54385 50 0 48.4562 0 46.5517V3.44828C0 1.54385 1.54385 0 3.44828 0H46.5517C48.4562 0 50 1.54385 50 3.44828V46.5517C50 48.4562 48.4562 50 46.5517 50H6.18103Z" fill="#ECF0F1"/>
<path d="M25.0004 44.8275C34.0464 44.8275 41.3797 37.4942 41.3797 28.4482C41.3797 19.4021 34.0464 12.0688 25.0004 12.0688C15.9544 12.0688 8.62109 19.4021 8.62109 28.4482C8.62109 37.4942 15.9544 44.8275 25.0004 44.8275Z" fill="#E64C3C"/>
<path d="M24.9996 40.5173C31.6651 40.5173 37.0686 35.1139 37.0686 28.4484C37.0686 21.7829 31.6651 16.3794 24.9996 16.3794C18.3341 16.3794 12.9307 21.7829 12.9307 28.4484C12.9307 35.1139 18.3341 40.5173 24.9996 40.5173Z" fill="#ECF0F1"/>
<path d="M24.9998 36.2067C29.2848 36.2067 32.7585 32.733 32.7585 28.4481C32.7585 24.1631 29.2848 20.6895 24.9998 20.6895C20.7149 20.6895 17.2412 24.1631 17.2412 28.4481C17.2412 32.733 20.7149 36.2067 24.9998 36.2067Z" fill="#E64C3C"/>
<path d="M25.001 31.8965C26.9054 31.8965 28.4493 30.3527 28.4493 28.4483C28.4493 26.5438 26.9054 25 25.001 25C23.0966 25 21.5527 26.5438 21.5527 28.4483C21.5527 30.3527 23.0966 31.8965 25.001 31.8965Z" fill="#ECF0F1"/>
<path d="M50 3.44828V6.89655H0V3.44828C0 1.54385 1.54385 0 3.44828 0H46.5517C48.4562 0 50 1.54385 50 3.44828Z" fill="#3B97D3"/>
<path d="M27.5872 2.58643H22.4148C21.9387 2.58643 21.5527 2.97239 21.5527 3.44849C21.5527 3.9246 21.9387 4.31056 22.4148 4.31056H27.5872C28.0633 4.31056 28.4493 3.9246 28.4493 3.44849C28.4493 2.97239 28.0633 2.58643 27.5872 2.58643Z" fill="#2980BA"/>
<path d="M46.5509 2.58643H37.0681C36.592 2.58643 36.2061 2.97239 36.2061 3.44849C36.2061 3.9246 36.592 4.31056 37.0681 4.31056H46.5509C47.027 4.31056 47.4129 3.9246 47.4129 3.44849C47.4129 2.97239 47.027 2.58643 46.5509 2.58643Z" fill="#2980BA"/>
<path d="M3.44801 4.31056C3.92411 4.31056 4.31008 3.9246 4.31008 3.44849C4.31008 2.97239 3.92411 2.58643 3.44801 2.58643C2.9719 2.58643 2.58594 2.97239 2.58594 3.44849C2.58594 3.9246 2.9719 4.31056 3.44801 4.31056Z" fill="#FF5364"/>
<path d="M6.89723 4.31056C7.37333 4.31056 7.75929 3.9246 7.75929 3.44849C7.75929 2.97239 7.37333 2.58643 6.89723 2.58643C6.42112 2.58643 6.03516 2.97239 6.03516 3.44849C6.03516 3.9246 6.42112 4.31056 6.89723 4.31056Z" fill="#F0C419"/>
<path d="M10.3445 4.31056C10.8206 4.31056 11.2066 3.9246 11.2066 3.44849C11.2066 2.97239 10.8206 2.58643 10.3445 2.58643C9.86838 2.58643 9.48242 2.97239 9.48242 3.44849C9.48242 3.9246 9.86838 4.31056 10.3445 4.31056Z" fill="#65DDB9"/>
<path d="M3.44801 13.7933C2.9719 13.7933 2.58594 13.4073 2.58594 12.9312V10.345C2.58594 9.86887 2.9719 9.48291 3.44801 9.48291H6.03421C6.51032 9.48291 6.89628 9.86887 6.89628 10.345C6.89628 10.8211 6.51032 11.207 6.03421 11.207H4.31008V12.9312C4.31008 13.4073 3.92411 13.7933 3.44801 13.7933Z" fill="#95A5A5"/>
<path d="M46.5518 47.4139H43.9656C43.4895 47.4139 43.1035 47.0279 43.1035 46.5518C43.1035 46.0757 43.4895 45.6897 43.9656 45.6897H45.6897V43.9656C45.6897 43.4895 46.0757 43.1035 46.5518 43.1035C47.0279 43.1035 47.4139 43.4895 47.4139 43.9656V46.5518C47.4139 47.0279 47.0279 47.4139 46.5518 47.4139Z" fill="#95A5A5"/>
<path d="M21.3685 28.9058L10.2013 31.3334C9.893 31.4004 9.64592 31.6305 9.55716 31.9333C9.4684 32.236 9.55212 32.5631 9.77545 32.786L11.097 34.1075C11.4335 34.4442 11.4335 34.9899 11.097 35.3265L5.00045 41.4222C4.66391 41.7588 4.66391 42.3045 5.00045 42.6412L8.65734 46.2989C8.81904 46.4608 9.03846 46.5518 9.26726 46.5518C9.49606 46.5518 9.71547 46.4608 9.87717 46.2989L15.9729 40.2032C16.3095 39.8667 16.8552 39.8667 17.1918 40.2032L18.5134 41.5248C18.7363 41.7481 19.0633 41.8318 19.3661 41.7431C19.6689 41.6543 19.8989 41.4072 19.966 41.0989L22.3935 29.9317C22.4559 29.6451 22.3683 29.3465 22.161 29.139C21.9537 28.9315 21.6552 28.8437 21.3685 28.9058Z" fill="#F0C419"/>
</svg>
