<svg width="50" height="44" viewBox="0 0 50 44" fill="none" xmlns="http://www.w3.org/2000/svg">
<path d="M41.0048 0C40.3455 0 6.25273 0 6.06162 0C4.2415 0 2.76074 1.47503 2.76074 3.2881V27.9516C2.76074 29.5552 3.95371 30.9449 5.54121 31.1983L6.13574 31.6711H40.4177L41.5253 31.1983C43.1128 30.9449 44.3057 29.5552 44.3057 27.9516C44.3057 27.131 44.3057 4.03034 44.3057 3.2881C44.3056 1.47503 42.8249 0 41.0048 0Z" fill="#365E7D"/>
<path d="M5.90956 27.9516V3.2881C5.90956 1.47503 7.39031 0 9.21042 0C7.28826 0 6.09686 0 6.06161 0C4.2415 0 2.76074 1.47503 2.76074 3.2881V27.9516C2.76074 29.5552 3.95371 30.9449 5.5412 31.1983L6.13573 31.6711H9.28455L8.69002 31.1983C7.10252 30.9449 5.90956 29.5552 5.90956 27.9516Z" fill="#2B4D66"/>
<path d="M40.9381 5.80762H6.32461L5.72559 6.43049V27.6812C5.72559 28.0069 5.99072 28.2711 6.31777 28.2711H40.7476C41.0746 28.2711 41.3398 28.0069 41.3398 27.6812C41.3398 27.124 41.3398 7.07525 41.3398 6.43049L40.9381 5.80762Z" fill="#E4F6FF"/>
<path d="M9.57529 27.6812V6.43049L10.1743 5.80762H6.32461L5.72559 6.43049V27.6812C5.72559 28.0069 5.99072 28.2711 6.31777 28.2711H10.1675C9.84053 28.2711 9.57529 28.0069 9.57529 27.6812Z" fill="#D3EFFB"/>
<path d="M9.57533 2.93164H6.31778C5.99073 2.93164 5.72559 3.19575 5.72559 3.52164V6.43037H9.57533L9.82855 6.1613V3.1189L9.57533 2.93164Z" fill="#DD636E"/>
<path d="M40.7495 2.93164C39.2201 2.93164 10.7893 2.93164 9.57715 2.93164V6.43037H41.3416V3.52164C41.3417 3.19585 41.0765 2.93164 40.7495 2.93164Z" fill="#B1E4F9"/>
<path d="M46.5158 31.1982H0.551172C0.246777 31.1982 0 31.4464 0 31.7526V33.6595C0 35.0743 1.15088 36.232 2.55742 36.232H44.5095C45.916 36.232 47.0669 35.0743 47.0669 33.6595V31.7526C47.067 31.4464 46.8202 31.1982 46.5158 31.1982Z" fill="#407093"/>
<path d="M5.72638 33.6595V31.7526C5.72638 31.4465 5.97316 31.1982 6.27756 31.1982H0.551174C0.246778 31.1982 0 31.4464 0 31.7526V33.6595C0 35.0743 1.15088 36.232 2.55743 36.232H8.28381C6.87727 36.232 5.72638 35.0743 5.72638 33.6595Z" fill="#365E7D"/>
<path d="M49.4762 38.0703V18.4953L50.0002 18.0013C50.0002 16.7655 50.0002 15.9594 50.0002 15.8021C50.0002 14.6728 49.0811 13.7573 47.9475 13.7573H35.3486C34.2149 13.7573 33.2959 14.6728 33.2959 15.8021V18.0013L33.8827 18.5287V38.2544L33.2959 38.6162V41.5219C33.2959 42.6512 34.2149 43.5667 35.3486 43.5667H47.9475C49.0811 43.5667 50.0002 42.6512 50.0002 41.5219C50.0002 41.3363 50.0002 40.2481 50.0002 38.6162L49.4762 38.0703Z" fill="#365E7D"/>
<path d="M36.3224 41.5218V38.6161L36.9092 38.2543V18.5287L36.3224 18.0013V15.8021C36.3224 14.6728 37.2414 13.7573 38.3751 13.7573H35.3486C34.2149 13.7573 33.2959 14.6728 33.2959 15.8021V18.0013L33.8827 18.5287V38.2544L33.2959 38.6162V41.5219C33.2959 42.6512 34.2149 43.5667 35.3486 43.5667H38.3751C37.2414 43.5666 36.3224 42.6511 36.3224 41.5218Z" fill="#294B64"/>
<path d="M23.0303 23.6362C26.515 23.6362 29.3398 20.8222 29.3398 17.3511C29.3398 13.8799 26.515 11.0659 23.0303 11.0659C19.5456 11.0659 16.7207 13.8799 16.7207 17.3511C16.7207 20.8222 19.5456 23.6362 23.0303 23.6362Z" fill="#DD636E"/>
<path d="M19.1352 17.3511C19.1352 14.2913 21.3305 11.7435 24.2375 11.1822C23.8466 11.1067 23.4432 11.0659 23.0303 11.0659C19.5456 11.0659 16.7207 13.8799 16.7207 17.3511C16.7207 20.8222 19.5456 23.6362 23.0303 23.6362C23.4432 23.6362 23.8466 23.5954 24.2375 23.5199C21.3305 22.9586 19.1352 20.4108 19.1352 17.3511Z" fill="#DA4A54"/>
<path d="M25.5973 16.6999L22.3595 14.5006C21.8345 14.144 21.123 14.5185 21.123 15.1515V19.5501C21.123 20.1831 21.8345 20.5576 22.3595 20.201L25.5973 18.0017C26.0577 17.6889 26.0577 17.0126 25.5973 16.6999Z" fill="#F4FBFF"/>
<path d="M23.5375 15.3007L22.3595 14.5006C21.8345 14.144 21.123 14.5185 21.123 15.1515V19.5501C21.123 20.1831 21.8345 20.5576 22.3595 20.201L23.5375 19.4009V15.3007Z" fill="#E4F6FF"/>
<path d="M33.2959 20.8672H50.0002V38.6163H33.2959V20.8672Z" fill="#90D8F9"/>
<path d="M33.2959 20.8672H36.3221V38.6163H33.2959V20.8672Z" fill="#75CEF9"/>
<path d="M42.4492 41.6848H40.8453C40.4286 41.6848 40.0908 41.3483 40.0908 40.9332C40.0908 40.5181 40.4286 40.1816 40.8453 40.1816H42.4492C42.8659 40.1816 43.2037 40.5181 43.2037 40.9332C43.2037 41.3483 42.8659 41.6848 42.4492 41.6848Z" fill="#365E7D"/>
<path d="M41.6486 35.1833C44.6814 35.1833 47.14 32.7343 47.14 29.7132C47.14 26.6922 44.6814 24.2432 41.6486 24.2432C38.6158 24.2432 36.1572 26.6922 36.1572 29.7132C36.1572 32.7343 38.6158 35.1833 41.6486 35.1833Z" fill="#DD636E"/>
<path d="M38.2321 29.7129C38.2321 27.0453 40.1495 24.8249 42.6862 24.3415C42.35 24.2775 42.0035 24.2427 41.6487 24.2427C38.6158 24.2427 36.1572 26.6918 36.1572 29.7129C36.1572 32.734 38.6158 35.1831 41.6487 35.1831C42.0035 35.1831 42.35 35.1483 42.6862 35.0843C40.1495 34.601 38.2321 32.3805 38.2321 29.7129Z" fill="#DA4A54"/>
<path d="M33.2959 18.0015H36.3726V21.0098H33.2959V18.0015Z" fill="#DD636E"/>
<path d="M36.3213 18.0015V21.0098H49.9995V18.0015C48.3368 18.0015 38.0031 18.0015 36.3213 18.0015Z" fill="#B1E4F9"/>
<path d="M43.8825 29.1462L41.0645 27.2321C40.6075 26.9218 39.9883 27.2478 39.9883 27.7987V31.6269C39.9883 32.1777 40.6075 32.5037 41.0645 32.1934L43.8825 30.2793C44.2832 30.007 44.2832 29.4184 43.8825 29.1462Z" fill="#F4FBFF"/>
<path d="M42.0633 27.9105L41.0645 27.2321C40.6075 26.9218 39.9883 27.2477 39.9883 27.7987V31.6268C39.9883 32.1777 40.6075 32.5037 41.0645 32.1932L42.0633 31.5148V27.9105Z" fill="#E4F6FF"/>
</svg>
