<svg width="50" height="50" viewBox="0 0 50 50" fill="none" xmlns="http://www.w3.org/2000/svg">
<g clip-path="url(#clip0)">
<path d="M46.3307 36.9215C47.99 33.6652 48.9262 29.9787 48.9262 26.0734C48.9262 12.8595 38.2142 2.14746 25.0002 2.14746C11.7862 2.14746 1.07422 12.8595 1.07422 26.0734C1.07422 29.9787 2.01035 33.6652 3.66963 36.9215H46.3307Z" fill="#FF7186"/>
<path d="M46.3984 36.7856H35.7706V41.6828C35.7706 42.269 35.2937 42.7458 34.7076 42.7458H15.2934C14.7072 42.7458 14.2304 42.269 14.2304 41.6828V36.7856H3.60254C7.53271 44.6207 15.6379 49.9994 25.0005 49.9994C34.3631 49.9994 42.4683 44.6207 46.3984 36.7856Z" fill="#3C58A0"/>
<path d="M29.8442 49.5079C30.0391 48.9097 29.8974 47.9362 27.2002 47.5854C23.1963 47.0646 25.0005 44.9243 25.0005 44.9243L24.7011 42.7458H15.2934C14.7072 42.7458 14.2304 42.269 14.2304 41.6828V36.7856H3.60254C7.53271 44.6207 15.6379 49.9994 25.0005 49.9994C26.6601 49.9994 28.2799 49.8295 29.8442 49.5079Z" fill="#2A428C"/>
<path d="M45.1654 23.0507H4.83477C3.08047 23.0507 1.65332 21.6235 1.65332 19.8692V3.85576C1.65332 2.10146 3.08047 0.674316 4.83477 0.674316H45.1653C46.9196 0.674316 48.3468 2.10146 48.3468 3.85576V19.8692C48.3469 21.6235 46.9197 23.0507 45.1654 23.0507Z" fill="#E9EFFF"/>
<path d="M12.9845 0.674316H4.83477C3.08047 0.674316 1.65332 2.10146 1.65332 3.85576V19.8692C1.65332 21.6235 3.08047 23.0507 4.83477 23.0507H10.9772C10.9546 23.0025 10.9271 22.9564 10.8921 22.9154C10.127 22.0216 10.4782 21.154 10.7742 20.6976C10.9052 20.4955 10.8948 20.2338 10.7478 20.0432C9.82109 18.8419 10.5359 17.8328 10.9327 17.4175C11.0573 17.2871 11.107 17.1051 11.0708 16.9284C10.8773 15.9838 11.4744 15.2956 11.916 14.9297C12.1228 14.7583 12.1787 14.4665 12.0531 14.2291C11.8099 13.7691 11.8026 13.2898 11.8026 13.2898C11.8026 13.2898 11.8026 6.63496 11.8026 5.25576C11.8026 4.45791 12.2493 3.94844 12.6258 3.66074C12.8642 3.47861 12.9196 3.14785 12.757 2.8957C12.1932 2.021 12.5739 1.29375 12.874 0.918945C12.9323 0.846289 12.9686 0.761914 12.9845 0.674316Z" fill="#D3DCFB"/>
<path d="M4.83457 3.35938C4.56074 3.35938 4.33789 3.58223 4.33789 3.85605V19.8695C4.33789 20.1434 4.56074 20.3662 4.83457 20.3662H45.1651C45.439 20.3662 45.6618 20.1434 45.6618 19.8695V3.85605C45.6618 3.58223 45.439 3.35938 45.1651 3.35938H4.83457Z" fill="#73C3F9"/>
<path d="M4.83457 3.35938C4.56074 3.35938 4.33789 3.58223 4.33789 3.85605V19.8695C4.33789 20.1434 4.56074 20.3662 4.83457 20.3662H10.865C10.8604 20.2518 10.821 20.1387 10.7476 20.0435C9.8209 18.8422 10.5357 17.8331 10.9325 17.4178C11.0571 17.2874 11.1068 17.1054 11.0706 16.9287C10.8771 15.9841 11.4742 15.2959 11.9158 14.93C12.1226 14.7586 12.1785 14.4668 12.0529 14.2294C11.8097 13.7694 11.8024 13.2901 11.8024 13.2901C11.8024 13.2901 11.8024 6.63525 11.8024 5.25605C11.8024 4.4582 12.2491 3.94873 12.6256 3.66104C12.7285 3.58232 12.7951 3.47539 12.827 3.35947H4.83457V3.35938Z" fill="#4FABF7"/>
<path d="M36.0742 3.35938L45.6617 12.9469V9.37744L39.6437 3.35938H36.0742Z" fill="#9BD8F9"/>
<path d="M32.0435 3.35938H25.5801L42.5869 20.3662H45.1658C45.4397 20.3662 45.6625 20.1434 45.6625 19.8695V16.9784L32.0435 3.35938Z" fill="#9BD8F9"/>
<path d="M23.112 18.1205C22.8167 18.1903 22.5123 18.0747 22.3079 17.8504C21.5716 17.042 20.2697 17.0353 19.5243 17.8316C19.3212 18.0486 18.9879 18.086 18.7342 17.9312C18.3036 17.6684 17.8092 17.5391 17.3117 17.5524C17.0026 17.5607 16.7277 17.3509 16.6636 17.0483C16.3876 15.7444 14.9546 15.015 13.7435 15.5072C13.4513 15.626 13.1154 15.5251 12.948 15.2578C12.4502 14.4631 11.483 14.0752 10.5754 14.3042C10.2634 14.3829 9.93975 14.2093 9.81846 13.9111C9.25088 12.5162 7.4125 12.0581 6.25518 13.0352C6.00821 13.2437 5.65781 13.2888 5.38359 13.1177C5.05703 12.9139 4.69522 12.8235 4.33789 12.8265V19.8696C4.33789 20.1434 4.56074 20.3663 4.83457 20.3663H25.9367C25.9372 20.3468 25.9376 20.3274 25.9371 20.3078C25.8997 18.8147 24.4893 17.7948 23.112 18.1205Z" fill="#50DD89"/>
<path d="M10.9326 17.4178C11.0572 17.2874 11.1069 17.1054 11.0707 16.9287C10.8772 15.9841 11.4743 15.2959 11.9159 14.93C12.05 14.8189 12.1194 14.6571 12.1184 14.4925C11.6535 14.2481 11.1047 14.1707 10.5754 14.3042C10.2634 14.3829 9.93975 14.2093 9.81846 13.9111C9.25088 12.5162 7.4125 12.0581 6.25518 13.0352C6.0082 13.2437 5.65791 13.2888 5.38359 13.1177C5.05703 12.914 4.69521 12.8235 4.33789 12.8265V19.8696C4.33789 20.1434 4.56074 20.3663 4.83457 20.3663H10.865C10.8604 20.2518 10.821 20.1388 10.7476 20.0435C9.82109 18.8422 10.5359 17.8331 10.9326 17.4178Z" fill="#38C674"/>
<path d="M33.5717 15.3785C33.4549 14.1809 32.0769 13.9349 32.0433 12.7257C32.0428 12.7066 32.0433 12.6879 32.0435 12.6689H17.8541C17.8543 12.6878 17.8548 12.7065 17.8543 12.7257C17.8208 13.935 16.4427 14.1809 16.3258 15.3785C16.2556 16.0983 16.6924 16.6814 17.0838 17.1172C17.4751 17.553 17.9099 18.1422 17.8339 18.8606C17.7483 19.6687 17.0822 20.0211 16.8133 20.7346C16.5354 21.4725 16.762 22.4487 17.1798 23.0222C17.5975 23.5957 18.1602 23.8616 18.7034 24.1112H24.7927H25.1047H31.1941C31.7372 23.8617 32.2998 23.5957 32.7177 23.0222C33.1356 22.4487 33.3621 21.4725 33.0841 20.7346C32.8154 20.0211 32.1492 19.6687 32.0636 18.8606C31.9875 18.1422 32.4224 17.553 32.8137 17.1172C33.2051 16.6814 33.6419 16.0983 33.5717 15.3785Z" fill="#2A428C"/>
<path d="M32.7177 23.0223C33.1356 22.4488 33.3621 21.4726 33.0842 20.7347C32.8154 20.0212 32.1492 19.6688 32.0636 18.8607C32.0366 18.6053 32.075 18.3664 32.1522 18.1447C30.0344 18.534 29.9829 16.4402 29.9829 16.4402L25.2659 12.6689H17.8541C17.8543 12.6878 17.8549 12.7065 17.8543 12.7257C17.8208 13.935 16.4427 14.1809 16.3258 15.3785C16.2556 16.0983 16.6924 16.6814 17.0838 17.1172C17.4751 17.553 17.9099 18.1422 17.8339 18.8606C17.7483 19.6687 17.0821 20.0211 16.8133 20.7346C16.5354 21.4725 16.762 22.4487 17.1798 23.0222C17.5975 23.5957 18.1602 23.8616 18.7034 24.1112H24.7927H25.1048H31.1941C31.7372 23.8618 32.2999 23.5958 32.7177 23.0223Z" fill="#1C2E7A"/>
<path d="M19.7346 23.4079C20.1212 23.8829 20.5511 24.5308 20.9756 25.2099C21.415 25.9129 22.0111 26.4822 22.6078 26.9287H27.2518C27.8485 26.4822 28.4446 25.913 28.884 25.2099C29.3244 24.5052 29.7706 23.8437 30.1683 23.3646C30.3636 23.1292 30.6435 22.9943 30.9366 22.9754C30.1679 22.6711 29.6242 22.3134 29.3623 22.1607C28.0072 21.174 28.0446 20.1756 28.0446 19.208C27.3066 19.8678 26.0495 20.7049 25.0002 20.7559C23.951 20.7049 22.694 19.8678 21.956 19.208C21.956 20.1756 21.9934 21.174 20.6381 22.1607C20.3702 22.3168 19.8085 22.6874 19.0122 22.996C18.9979 23.0016 18.9832 23.0067 18.9688 23.0123C19.2619 23.0335 19.5413 23.1704 19.7346 23.4079Z" fill="#FCAD6D"/>
<path d="M20.6381 22.1607C20.3702 22.3168 19.8085 22.6874 19.0122 22.996C18.9979 23.0016 18.9832 23.0067 18.9688 23.0123C19.2621 23.0335 19.5414 23.1705 19.7348 23.408C20.1214 23.883 20.5513 24.5309 20.9758 25.21C21.1302 25.4569 21.3046 25.6864 21.4908 25.9008C21.5971 25.8839 21.6587 25.8795 21.6587 25.8795C25.1992 24.9793 25.0002 20.7559 25.0002 20.7559C23.9509 20.7049 22.6939 19.8678 21.956 19.208C21.956 20.1756 21.9933 21.174 20.6381 22.1607Z" fill="#FD995B"/>
<path d="M14.2297 27.9913C14.2297 27.4052 14.7065 26.9283 15.2927 26.9283H22.8978C22.2087 26.4557 21.4862 25.8189 20.9753 25.0015C20.5509 24.3223 20.1209 23.6745 19.7343 23.1995C19.4439 22.8429 18.96 22.7113 18.5252 22.8613C17.3802 23.2563 15.809 23.66 14.993 23.7974C14.0834 23.9721 12.087 24.6073 10.9495 26.8822C10.6728 27.4358 10.5053 28.798 10.3896 30.4696C10.9772 31.3338 12.2011 32.7313 14.2297 33.29V27.9913Z" fill="#FFDD40"/>
<path d="M19.7343 23.1995C19.4439 22.8429 18.96 22.7113 18.5252 22.8613C17.3802 23.2563 15.809 23.66 14.993 23.7974C14.0833 23.9721 12.087 24.6073 10.9495 26.8822C10.6728 27.4358 10.5053 28.798 10.3896 30.4696C10.9772 31.3338 12.2011 32.7313 14.2297 33.29V27.9913C14.2297 27.4052 14.7065 26.9283 15.2927 26.9283H19.3771C20.3946 25.9679 21.6582 25.879 21.6582 25.879C21.6584 25.8789 21.6587 25.8789 21.6589 25.8788C21.4086 25.6131 21.1754 25.3216 20.9754 25.0015C20.5509 24.3224 20.1209 23.6746 19.7343 23.1995Z" fill="#FFB332"/>
<path d="M39.0509 26.8824C37.9134 24.6075 35.917 23.9723 35.0074 23.7976C34.2137 23.6639 32.5676 23.2478 31.3771 22.8275C30.9446 22.6748 30.4616 22.8034 30.1686 23.1563C29.771 23.6356 29.3248 24.297 28.8844 25.0018C28.3735 25.8191 27.651 26.456 26.9619 26.9286H34.7076C35.2937 26.9286 35.7706 27.4055 35.7706 27.9916V33.3228C37.784 32.7615 39.0109 31.3841 39.6135 30.5096C39.4978 28.8194 39.3299 27.4402 39.0509 26.8824Z" fill="#FFDD40"/>
<path d="M14.23 33.1534C12.1232 32.6057 10.9152 31.1006 10.4021 30.2969C10.259 32.2751 10.1933 34.7235 10.1064 36.7857H14.2301V33.1534H14.23Z" fill="#FD995B"/>
<path d="M35.7705 36.7857H39.894C39.8072 34.7235 39.7414 32.2751 39.5983 30.2969C39.0852 31.1006 37.8771 32.6057 35.7705 33.1534V36.7857Z" fill="#FD995B"/>
<path d="M37.5934 35.27H35.7207V40.5652H37.5934C39.0495 40.5652 40.241 39.3738 40.241 37.9176C40.2409 36.4615 39.0495 35.27 37.5934 35.27Z" fill="#FCAD6D"/>
<path d="M14.2801 35.27H12.4074C10.9513 35.27 9.75977 36.4614 9.75977 37.9177C9.75977 39.3738 10.9513 40.5653 12.4074 40.5653H14.2801V35.27Z" fill="#FCAD6D"/>
<path d="M19.0403 9.68682C19.1277 9.40088 19.2452 9.15635 19.4015 8.98027C19.5429 8.821 19.6206 8.63496 19.6264 8.44209C19.6264 8.44209 20.2476 5.61143 22.6029 5.46475C22.6029 5.46475 24.2004 5.16016 25.6102 7.47461C26.7796 9.39443 29.5463 10.0453 30.9985 9.69766C31.316 9.4958 31.8521 9.38057 32.2227 9.51328C32.2228 7.82666 32.2228 7.13955 32.2228 6.8877C32.2228 6.79619 32.2228 6.76201 32.2228 6.7583C32.2228 3.10439 29.296 -0.000488281 25.0284 -0.000488281C20.786 -0.000488281 17.834 3.09414 17.834 6.7583V9.51318C18.1977 9.38311 18.7207 9.4918 19.0403 9.68682Z" fill="#2A428C"/>
<path d="M24.7978 6.41914C24.8051 6.30156 24.8089 6.23428 24.8089 6.23428C24.8089 6.23428 27.1672 4.52803 25.6059 2.9668C24.045 1.40586 27.953 0.542969 27.9541 0.542773C27.0793 0.194238 26.0957 0 25.0283 0C20.786 0 17.834 3.09463 17.834 6.75879V9.51367C18.1978 9.3834 18.7208 9.49209 19.0403 9.68711C19.1277 9.40117 19.2452 9.15664 19.4015 8.98057C19.5429 8.82129 19.6206 8.63525 19.6264 8.44238C19.6264 8.44238 20.2476 5.61172 22.6029 5.46504C22.6029 5.46504 23.6506 5.26572 24.7978 6.41914Z" fill="#1C2E7A"/>
<path d="M32.0621 9.33907C31.7269 9.10558 31.1509 9.32413 30.9163 9.52618C30.9029 9.53966 30.8908 9.55255 30.8779 9.56583C31.2459 10.9135 31.0115 13.0096 30.9723 13.2605C30.9703 13.2691 30.9683 13.2774 30.9663 13.286C31.659 13.3333 32.1668 12.9202 32.1668 12.3117C32.1668 12.1119 32.1847 11.9127 32.2197 11.7159C32.3339 11.075 32.902 9.92403 32.0621 9.33907Z" fill="#FCAD6D"/>
<path d="M19.0855 13.2659C18.9423 12.4342 18.8227 10.7634 19.109 9.66056C19.0697 9.61681 19.0281 9.57228 18.982 9.52618C18.7474 9.32413 18.1714 9.10558 17.8362 9.33907C16.9962 9.92403 17.5643 11.0749 17.6785 11.7159C17.7136 11.9127 17.7315 12.1119 17.7315 12.3117C17.7315 12.9643 18.3152 13.3926 19.0849 13.2689C19.0849 13.2689 19.0855 13.2672 19.0856 13.2664L19.0855 13.2659Z" fill="#FD995B"/>
<path d="M25.6105 7.27895C24.2006 4.96449 22.6033 5.26908 22.6033 5.26908C20.248 5.41576 19.6267 8.24643 19.6267 8.24643C19.621 8.4393 19.5432 8.62533 19.4018 8.78461C18.6225 9.66274 18.7932 12.2285 18.975 13.2847C19.3776 15.062 19.9609 16.6117 20.7083 17.8908C21.467 19.1894 22.6162 20.1994 24.0314 20.8116C24.6653 21.0857 25.392 21.0857 26.0258 20.8116C27.4411 20.1993 28.5902 19.1893 29.3489 17.8908C30.0962 16.612 30.6795 15.0622 31.083 13.2815C31.2223 12.3956 31.3085 10.6202 30.9619 9.48979C29.5161 9.84965 26.786 9.20873 25.6105 7.27895Z" fill="#F9BA8F"/>
<path d="M24.8529 17.8914C24.1055 16.6122 23.5222 15.0625 23.1196 13.2852C22.9377 12.229 22.767 9.66323 23.5463 8.7851C23.6877 8.62582 23.7655 8.43979 23.7712 8.24692C23.7712 8.24692 24.0228 7.10522 24.8093 6.23432C23.6578 5.0685 22.6033 5.26957 22.6033 5.26957C20.248 5.41625 19.6267 8.24692 19.6267 8.24692C19.6209 8.43979 19.5432 8.62582 19.4018 8.7851C18.6225 9.66323 18.7932 12.229 18.975 13.2852C19.3777 15.0624 19.961 16.6122 20.7083 17.8914C21.4671 19.19 22.6162 20.1999 24.0315 20.8122C24.6654 21.0863 25.3921 21.0863 26.0259 20.8122C26.4043 20.6485 26.763 20.4554 27.101 20.237C26.1749 19.6383 25.4088 18.8427 24.8529 17.8914Z" fill="#FCAD6D"/>
<path d="M35.7694 41.71C35.7549 42.2835 35.2848 42.7458 34.7078 42.7458H15.2936C14.7166 42.7458 14.2465 42.2835 14.2319 41.71C13.358 41.7263 12.6543 42.4386 12.6543 43.3164C12.6543 44.2044 13.3742 44.9243 14.2622 44.9243H35.7392C36.6273 44.9243 37.3471 44.2044 37.3471 43.3164C37.3471 42.4386 36.6434 41.7263 35.7694 41.71Z" fill="#D3DCFB"/>
<path d="M19.2705 43.3168C19.2705 43.1155 19.309 42.9237 19.3766 42.7463H15.2936C14.7166 42.7463 14.2465 42.284 14.2319 41.7104C13.358 41.7268 12.6543 42.4391 12.6543 43.3169C12.6543 44.2049 13.3742 44.9248 14.2622 44.9248H20.8784C19.9903 44.9247 19.2705 44.2048 19.2705 43.3168Z" fill="#BEC8F7"/>
<path d="M34.7074 42.895H15.2932C14.6265 42.895 14.0811 42.3495 14.0811 41.6829V27.991C14.0811 27.3243 14.6265 26.7788 15.2932 26.7788H34.7074C35.3741 26.7788 35.9196 27.3243 35.9196 27.991V41.6828C35.9195 42.3495 35.3741 42.895 34.7074 42.895Z" fill="#E9EFFF"/>
<path d="M18.4025 41.6828V27.991C18.4025 27.3243 18.948 26.7788 19.6146 26.7788H15.2932C14.6265 26.7788 14.0811 27.3243 14.0811 27.991V41.6828C14.0811 42.3495 14.6266 42.8949 15.2932 42.8949H19.6146C18.948 42.895 18.4025 42.3495 18.4025 41.6828Z" fill="#D3DCFB"/>
<path d="M25 36.8237C26.0846 36.8237 26.9639 35.9445 26.9639 34.8599C26.9639 33.7752 26.0846 32.896 25 32.896C23.9154 32.896 23.0361 33.7752 23.0361 34.8599C23.0361 35.9445 23.9154 36.8237 25 36.8237Z" fill="#D3DCFB"/>
</g>
<defs>
<clipPath id="clip0">
<rect width="50" height="50" fill="white"/>
</clipPath>
</defs>
</svg>
