<svg width="50" height="45" viewBox="0 0 50 45" fill="none" xmlns="http://www.w3.org/2000/svg">
<path d="M45.4263 9.2263V41.5182C45.4263 42.3339 45.0651 43.1161 44.4221 43.6929C43.7792 44.2696 42.9072 44.5936 41.9979 44.5936H12.857C12.1153 44.5936 11.3935 44.3778 10.8 43.9785C10.565 43.8228 10.3545 43.6391 10.1744 43.4327C9.69323 42.8877 9.43057 42.2134 9.42871 41.5182V9.2263C9.42871 8.41065 9.78991 7.6284 10.4328 7.05165C11.0758 6.4749 11.9478 6.15088 12.857 6.15088H41.9979C42.9072 6.15088 43.7792 6.4749 44.4221 7.05165C45.0651 7.6284 45.4263 8.41065 45.4263 9.2263Z" fill="#A97C50"/>
<path d="M41.9973 9.99542V35.3676H36.8548C36.4006 35.3689 35.9654 35.5313 35.6442 35.8194C35.323 36.1075 35.142 36.4979 35.1406 36.9053V41.5185H13.7135C13.4862 41.5185 13.2682 41.4375 13.1075 41.2933C12.9467 41.1491 12.8564 40.9535 12.8564 40.7496V9.99542C12.8564 9.7915 12.9467 9.59594 13.1075 9.45176C13.2682 9.30757 13.4862 9.22656 13.7135 9.22656H41.1402C41.3675 9.22656 41.5855 9.30757 41.7463 9.45176C41.907 9.59594 41.9973 9.7915 41.9973 9.99542Z" fill="#E6E7E8"/>
<path d="M30.7088 31.1464L30.1003 33.8682L28.2833 35.4982C27.9647 35.7882 27.7861 36.179 27.7861 36.5861C27.7861 36.9932 27.9647 37.384 28.2833 37.674C28.4425 37.817 28.6315 37.9304 28.8396 38.0078C29.0477 38.0852 29.2708 38.125 29.496 38.125C29.7213 38.125 29.9444 38.0852 30.1525 38.0078C30.3606 37.9304 30.5496 37.817 30.7088 37.674L32.5258 36.0441L35.5599 35.4982L36.1599 34.9523L41.9966 29.7164V21.0283L30.7088 31.1464Z" fill="#D8D7DA"/>
<path d="M45.4254 17.9526L41.9971 21.0265V29.7161L45.4254 26.6407V17.9526Z" fill="#8B5E3C"/>
<path d="M21.153 38.0354C20.9522 38.744 20.6375 39.4226 20.2188 40.0498L21.4444 41.5184H13.7135C13.4862 41.5184 13.2682 41.4374 13.1075 41.2932C12.9467 41.149 12.8564 40.9534 12.8564 40.7495V26.1411H14.5706L14.9734 28.6937C15.7633 28.8739 16.5198 29.1562 17.219 29.5318L19.5246 27.9787L21.9501 30.1546L20.2188 32.2228C20.6375 32.8501 20.9522 33.5287 21.153 34.2372L23.9985 34.5986V37.674L21.153 38.0354Z" fill="#D8D7DA"/>
<path d="M48.9912 16.0234C48.6747 15.737 48.2983 15.5094 47.8835 15.3537C47.4688 15.198 47.0238 15.1173 46.5742 15.1162C46.1822 15.1156 45.7932 15.1781 45.4257 15.3007C44.9445 15.4517 44.5078 15.6988 44.1487 16.0234L42.9316 17.1075L45.4257 19.3448L47.7827 21.4591L48.9912 20.3674C49.3109 20.083 49.5647 19.7447 49.7379 19.3719C49.9111 18.9991 50.0002 18.5993 50.0002 18.1954C50.0002 17.7915 49.9111 17.3917 49.7379 17.0189C49.5647 16.6461 49.3109 16.3078 48.9912 16.0234Z" fill="#E6E7E8"/>
<path d="M45.4264 19.3442L42.9322 17.1069L41.998 17.945V17.9527L41.1152 18.7369L41.998 19.5288L43.5408 20.9127L45.4264 22.6041L45.9663 23.0885L47.7833 21.4586L45.4264 19.3442Z" fill="#FFA733"/>
<path d="M41.9963 35.3672L35.1396 41.518V36.9049C35.141 36.4974 35.322 36.107 35.6432 35.8189C35.9644 35.5308 36.3996 35.3684 36.8538 35.3672H41.9963Z" fill="#D1D3D4"/>
<path d="M41.9963 35.3672V40.7492C41.9963 40.9531 41.906 41.1486 41.7453 41.2928C41.5846 41.437 41.3666 41.518 41.1393 41.518H35.1396L41.9963 35.3672Z" fill="#E6E7E8"/>
<path d="M30.812 34.5064L28.995 36.1364C28.7548 36.3506 28.4492 36.4962 28.1168 36.5548C27.7844 36.6133 27.4402 36.5822 27.1275 36.4654C26.8148 36.3486 26.5477 36.1513 26.3599 35.8985C26.1721 35.6456 26.072 35.3485 26.0723 35.0446C26.0713 34.8435 26.1147 34.6441 26.2001 34.458C26.2854 34.272 26.4109 34.1029 26.5694 33.9606L28.3864 32.3306L30.812 34.5064Z" fill="#787680"/>
<path d="M34.4464 33.4144L33.8464 33.9602L30.8123 34.5061L28.3867 32.3303L28.9953 29.6085L29.6038 29.0703L32.0208 31.2462H32.0294L34.4464 33.4144Z" fill="#898890"/>
<path d="M41.998 19.5292L41.1152 18.7373L29.6045 29.0708L32.0215 31.2466H32.03L41.998 22.2971L43.5407 20.9132L41.998 19.5292Z" fill="#00CCB3"/>
<path d="M45.4256 22.6046L43.54 20.9131L41.9972 22.297L32.0293 31.2465L34.4463 33.4147L41.9972 26.6411L45.4256 23.5656L45.9655 23.0889L45.4256 22.6046Z" fill="#00B39D"/>
<path d="M24.2384 18.2375C24.6756 18.8029 24.8889 19.4835 24.844 20.1705C24.7991 20.8574 24.4986 21.511 23.9907 22.0267C23.4828 22.5424 22.7968 22.8904 22.0424 23.015C21.2879 23.1396 20.5087 23.0337 19.8293 22.7141C19.15 22.3945 18.6097 21.8798 18.295 21.2522C17.9803 20.6247 17.9093 19.9206 18.0933 19.2525C18.2774 18.5845 18.7059 17.9911 19.3103 17.5674C19.9147 17.1436 20.66 16.9139 21.4272 16.915C21.9797 16.9164 22.5238 17.0374 23.0132 17.2676C23.5026 17.4978 23.9229 17.8305 24.2384 18.2375Z" fill="#FF5023"/>
<path d="M17.998 9.99512H36.8539V12.3016H17.998V9.99512Z" fill="#FFA733"/>
<path d="M35.6882 6.15085C35.0632 5.65639 34.2589 5.38307 33.4255 5.38199H30.8543V3.07542C30.8543 2.25977 30.4931 1.47752 29.8502 0.90077C29.2072 0.324017 28.3352 0 27.426 0C26.5167 0 25.6447 0.324017 25.0018 0.90077C24.3588 1.47752 23.9976 2.25977 23.9976 3.07542V5.38199H21.4264C20.5178 5.38382 19.6469 5.70842 19.0044 6.28478C18.3619 6.86114 18.0001 7.64232 17.998 8.45741V9.99513H36.8539V8.45741C36.8541 8.02062 36.7503 7.58883 36.5492 7.19101C36.3482 6.79318 36.0546 6.43853 35.6882 6.15085Z" fill="#FF9811"/>
<path d="M21.9507 42.118L20.905 43.056L19.5251 44.2938L17.691 43.056L17.2196 42.7407C17.006 42.8563 16.7857 42.9616 16.5596 43.056C16.0528 43.2791 15.5214 43.4544 14.974 43.5788L14.8112 44.5937H12.857C12.1153 44.5937 11.3935 44.3779 10.8 43.9786L10.74 43.5788C10.5515 43.5327 10.3544 43.4865 10.1744 43.4327C9.69323 42.8878 9.43057 42.2134 9.42871 41.5183V29.1089C9.85092 28.9352 10.2898 28.7962 10.74 28.6937L11.1429 26.1411H12.857V40.7494C12.857 40.9533 12.9473 41.1489 13.1081 41.2931C13.2688 41.4373 13.4868 41.5183 13.7141 41.5183H21.445L21.9507 42.118Z" fill="#8B5E3C"/>
<path d="M19.4387 36.4977C19.2378 37.2063 18.9231 37.8849 18.5044 38.5121L20.2358 40.5803L19.1901 41.5183L17.8102 42.7562L15.976 41.5183L15.5046 41.2031C15.2911 41.3187 15.0708 41.4239 14.8447 41.5183C14.3378 41.7415 13.8064 41.9167 13.2591 42.0412L12.8563 44.5938H9.42792L9.02509 42.0412C8.23521 41.861 7.47876 41.5787 6.77953 41.2031L4.47398 42.7562L2.04843 40.5803L3.77974 38.5121C3.36104 37.8849 3.04633 37.2063 2.84552 36.4977L0 36.1364V33.0609L2.84552 32.6996C3.04633 31.991 3.36104 31.3124 3.77974 30.6852L2.04843 28.6169L4.47398 26.4411L6.77953 27.9942C7.47876 27.6186 8.23521 27.3363 9.02509 27.1561L9.42792 24.6035H12.8563L13.2591 27.1561C14.049 27.3363 14.8054 27.6186 15.5046 27.9942L17.8102 26.4411L20.2358 28.6169L18.5044 30.6852C18.9231 31.3124 19.2378 31.991 19.4387 32.6996L22.2842 33.0609V36.1364L19.4387 36.4977Z" fill="#FF9811"/>
<path d="M12.8555 31.0696C12.3137 30.8616 11.7306 30.7544 11.1413 30.7544C10.5521 30.7544 9.9689 30.8616 9.42716 31.0696C8.66258 31.3701 8.01216 31.8638 7.55543 32.4906C7.0987 33.1173 6.85547 33.8499 6.85547 34.5987C6.85547 35.3475 7.0987 36.08 7.55543 36.7068C8.01216 37.3335 8.66258 37.8273 9.42716 38.1277C9.9689 38.3357 10.5521 38.443 11.1413 38.443C11.7306 38.443 12.3137 38.3357 12.8555 38.1277C13.6201 37.8273 14.2705 37.3335 14.7272 36.7068C15.1839 36.08 15.4272 35.3475 15.4272 34.5987C15.4272 33.8499 15.1839 33.1173 14.7272 32.4906C14.2705 31.8638 13.6201 31.3701 12.8555 31.0696Z" fill="#FFD422"/>
<path d="M26.5693 2.30664H28.2835V3.84439H26.5693V2.30664Z" fill="#CC7400"/>
<path d="M10.2852 26.9102H11.9993V28.448H10.2852V26.9102Z" fill="#EE8700"/>
<path d="M4.47168 29.7036L5.68378 28.6164L6.89587 29.7036L5.68378 30.7909L4.47168 29.7036Z" fill="#EE8700"/>
<path d="M2.57227 33.8296H4.28644V35.3673H2.57227V33.8296Z" fill="#EE8700"/>
<path d="M4.46973 39.4883L5.68182 38.401L6.89392 39.4883L5.68182 40.5756L4.46973 39.4883Z" fill="#EE8700"/>
<path d="M10.2852 40.7495H11.9993V42.2873H10.2852V40.7495Z" fill="#EE8700"/>
<path d="M15.3779 39.4897L16.59 38.4024L17.8021 39.4897L16.59 40.5771L15.3779 39.4897Z" fill="#EE8700"/>
<path d="M18 33.8296H19.7142V35.3673H18V33.8296Z" fill="#EE8700"/>
<path d="M15.3799 29.7046L16.592 28.6173L17.8041 29.7046L16.592 30.7919L15.3799 29.7046Z" fill="#EE8700"/>
<path d="M20.8154 20.2158L25.1002 16.3722L26.3121 17.4593L22.0273 21.303L20.8154 20.2158Z" fill="#D80027"/>
<path d="M27.4268 17.6836H29.1409V19.2213H27.4268V17.6836Z" fill="#C6C5CA"/>
<path d="M30.8545 17.6836H34.2828V19.2213H30.8545V17.6836Z" fill="#C6C5CA"/>
<path d="M27.4268 20.7593H32.5693V22.297H27.4268V20.7593Z" fill="#C6C5CA"/>
</svg>
