<svg width="50" height="50" viewBox="0 0 50 50" fill="none" xmlns="http://www.w3.org/2000/svg">
<g clip-path="url(#clip0)">
<path d="M24.2939 0.161499L1.90439 10.9703C1.62363 11.1058 1.44531 11.39 1.44531 11.7017V38.2982C1.44531 38.6099 1.62373 38.8941 1.90439 39.0297L24.2939 49.8385C24.7401 50.0539 25.2603 50.0539 25.7064 49.8385L48.096 39.0297C48.3768 38.8941 48.5551 38.6099 48.5551 38.2982V11.7017C48.5551 11.39 48.3767 11.1058 48.096 10.9703L25.7064 0.161499C25.2603 -0.053833 24.7401 -0.053833 24.2939 0.161499Z" fill="#FFE17D"/>
<path d="M1.58037 11.2573C1.49502 11.3873 1.44531 11.5403 1.44531 11.702V38.2984C1.44531 38.6102 1.62373 38.8943 1.90439 39.0299L24.2939 49.8386C24.517 49.9463 24.7586 50.0001 25.0002 50.0001V22.5635L1.58037 11.2573Z" fill="#FFC350"/>
<path d="M48.4198 11.2573C48.5052 11.3873 48.5549 11.5403 48.5549 11.702V38.2984C48.5549 38.6102 48.3765 38.8943 48.0958 39.0299L25.7062 49.8386C25.4832 49.9463 25.2416 50.0002 25 50.0002V22.5635L48.4198 11.2573Z" fill="#FFD164"/>
<path d="M8.14525 36.8805C8.02709 36.8805 7.90648 36.8543 7.7931 36.7996L4.33637 35.1308C3.93188 34.9357 3.76293 34.4502 3.95805 34.0465C4.15238 33.6428 4.6394 33.4746 5.04233 33.6682L8.49906 35.3371C8.90355 35.5322 9.0725 36.0177 8.87738 36.4214C8.73783 36.7115 8.4475 36.8805 8.14525 36.8805Z" fill="#FFE17D"/>
<path d="M11.3269 34.8097C11.2087 34.8097 11.0881 34.7835 10.9747 34.7288L4.34112 31.5266C3.93741 31.3315 3.76768 30.8461 3.9628 30.4424C4.15713 30.0394 4.64493 29.8705 5.04708 30.064L11.6806 33.2662C12.0843 33.4613 12.254 33.9468 12.0589 34.3505C11.9194 34.6406 11.6291 34.8097 11.3269 34.8097Z" fill="#FFF6D8"/>
<path d="M40.4836 15.0755L16.9814 3.72168L10.7861 6.72461L34.341 18.096L40.4836 15.0755Z" fill="#FF8087"/>
<path d="M34.3408 18.0961V26.9053C34.3408 27.2048 34.6538 27.4012 34.9235 27.2711L40.0243 24.8087C40.3051 24.6731 40.4834 24.3889 40.4834 24.0772V15.0757L34.3408 18.0961Z" fill="#E6646E"/>
</g>
<defs>
<clipPath id="clip0">
<rect width="50" height="50" fill="white"/>
</clipPath>
</defs>
</svg>
